<?xml version="1.0" encoding="UTF-8"?>
<svg id="Layer_1" xmlns="http://www.w3.org/2000/svg" version="1.1" viewBox="0 0 31.8799992 32">
  <!-- Generator: Adobe Illustrator 29.4.0, SVG Export Plug-In . SVG Version: 2.1.0 Build 152)  -->
  <path d="M30.0747719,6.430078h-4.4404373v10.6991715c0,1.3589287-.3062382,2.3733387-.9570007,3.0815144-.631609.7081738-1.5694675,1.0718307-2.7752724,1.0718307-1.2058086,0-1.4163475-.1531181-1.9522591-.440218l-.0765648-.0382786c-.5741997-.3253765-.995266-.8038731-1.2823734-1.3972092-.2870941-.6507568-.4402142-1.3780708-.4402142-2.2585011V6.430078h-4.4404478v10.6991715c0,1.3589287-.3062382,2.3733387-.9569912,3.0815144-.6316118.7081738-1.5694647,1.0718307-2.7752733,1.0718307-1.2058105,0-1.4163485-.1531181-1.9522638-.440218l-.0765586-.0382786c-.5741954-.3253765-.9952722-.8038731-1.2823706-1.3972092-.2870975-.6507568-.4402165-1.3780708-.4402165-2.2585011V6.430078H1.805228v10.8905683c0,1.6077461.3445172,3.0432358,1.0335515,4.2873249.6890349,1.2249508,1.6651659,2.2010803,2.8901157,2.909256,1.2249498.7081738,2.6604376,1.0526924,4.2490444,1.0526924s3.0240898-.3445168,4.2681847-1.0335522c.631608-.3445168,1.2058067-.7847347,1.7225838-1.3206482.516777.5167751,1.0909653.9569931,1.684309,1.3015099,1.2249527.7081738,2.6604309,1.0526924,4.2490406,1.0526924s3.0240917-.3445168,4.2681847-1.0335522c1.2249527-.6698933,2.1819401-1.6460247,2.8709698-2.8901157.6890411-1.2440891,1.0335541-2.6987171,1.0335541-4.3256054V6.430079"/>
</svg>