<?xml version="1.0" encoding="UTF-8"?>
<svg id="Layer_1" xmlns="http://www.w3.org/2000/svg" version="1.1" viewBox="0 0 140 140">
  <!-- Generator: Adobe Illustrator 29.4.0, SVG Export Plug-In . SVG Version: 2.1.0 Build 152)  -->
  <path d="M139.8399734,22.7149696h-21.9402237v52.8646584c0,6.7144699-1.5131226,11.7266808-4.7285385,15.2257805-3.1207886,3.4990845-7.7547455,5.2959213-13.7126389,5.2959213-5.9579086,0-6.9981842-.7565613-9.6461182-2.1751175l-.3783112-.1891327c-2.8371201-1.6076889-4.9176178-3.9719467-6.3362045-6.9036179-1.4185333-3.2153931-2.1750946-6.8090515-2.1750946-11.1592636V22.7149696h-21.9402733v52.8646584c0,6.7144699-1.5131264,11.7266808-4.7284966,15.2257805-3.1207962,3.4990845-7.7547302,5.2959213-13.7126427,5.2959213-5.9579163,0-6.9981842-.7565613-9.6461487-2.1751175l-.3782749-.1891327c-2.8371029-1.6076889-4.9176445-3.9719467-6.3361988-6.9036179-1.4185486-3.2153931-2.1751099-6.8090515-2.1751099-11.1592636V22.7149696H.1600266v53.81036c0,7.943882,1.7022609,15.0366402,5.1067829,21.1836891,3.4045238,6.0524826,8.2275925,10.8755569,14.280077,14.374649,6.0524826,3.4990921,13.145237,5.201355,20.9945488,5.201355s14.9420433-1.7022629,21.0891266-5.106781c3.1207809-1.7022629,5.957901-3.8773727,8.5112991-6.5253296,2.5533981,2.5533829,5.3904648,4.7285004,8.3221741,6.4307632,6.0524902,3.4990921,13.1452026,5.201355,20.9945374,5.201355,7.8493271,0,14.9420471-1.7022629,21.089119-5.1067886,6.0524902-3.3099518,10.7809753-8.1330185,14.1854858-14.2800751,3.4045563-6.147049,5.1067963-13.3343735,5.1067963-21.3728294V22.7149696"/>
</svg>