<?xml version="1.0" encoding="UTF-8"?>
<svg id="Layer_1" xmlns="http://www.w3.org/2000/svg" version="1.1" viewBox="0 0 27.3625516 30.0695018">
  <!-- Generator: Adobe Illustrator 29.4.0, SVG Export Plug-In . SVG Version: 2.1.0 Build 152)  -->
  <defs>
    <style>
      .st0 {
        fill: none;
        stroke: #ec6a4d;
        stroke-linecap: round;
        stroke-linejoin: round;
        stroke-width: 3px;
      }
    </style>
  </defs>
  <path class="st0" d="M19.0951761,1.5v5.4139004M8.2673754,1.5v5.4139004"/>
  <path class="st0" d="M15.0347509,4.2069502h-2.7069502c-5.1042797,0-7.6564054,0-9.2421101,1.5856906-1.5856906,1.5857048-1.5856906,4.1378304-1.5856906,9.2421101v2.7069502c0,5.1042255,0,7.6564738,1.5856906,9.2420688,1.5857048,1.5857319,4.1378304,1.5857319,9.2421101,1.5857319h2.7069502c5.1042255,0,7.6564738,0,9.2420688-1.5857319,1.5857319-1.5855951,1.5857319-4.1378433,1.5857319-9.2420688v-2.7069502c0-5.1042797,0-7.6564054-1.5857319-9.2421101-1.5855951-1.5856906-4.1378433-1.5856906-9.2420688-1.5856906Z"/>
  <path class="st0" d="M1.5,12.3278007h24.3625516"/>
  <path class="st0" d="M13.6751846,17.7417011h.0121823M13.6751846,23.1556014h.0121823M19.0829951,17.7417011h.012181M8.2673754,17.7417011h.012141M8.2673754,23.1556014h.012141"/>
</svg>