<?xml version="1.0" encoding="UTF-8"?>
<svg id="Layer_1" xmlns="http://www.w3.org/2000/svg" version="1.1" viewBox="0 0 27 29.6688538">
  <!-- Generator: Adobe Illustrator 29.4.0, SVG Export Plug-In . SVG Version: 2.1.0 Build 152)  -->
  <defs>
    <style>
      .st0 {
        fill: none;
        stroke: #6e7072;
        stroke-linecap: round;
        stroke-linejoin: round;
        stroke-width: 3px;
      }
    </style>
  </defs>
  <path class="st0" d="M18.8419456,1.5v5.3278618M8.1763725,1.5v5.3278618"/>
  <path class="st0" d="M14.8344269,4.1688156h-2.6688557c-5.0225687,0-7.5437007,0-9.0997124,1.5658598-1.5658596,1.5658593-1.5658596,4.0771828-1.5658596,9.0997515v2.6688557c0,5.0225697,0,7.5437012,1.5658596,9.0997124,1.5658598,1.5658588,4.0771441,1.5658588,9.0997124,1.5658588h2.6688557c5.0225677,0,7.5437012,0,9.0997124-1.5658607,1.5658607-1.5658607,1.5658607-4.0771427,1.5658607-9.0997124v-2.6688557c0-5.0225687,0-7.5437403-1.5658607-9.0997515-1.5658607-1.5658598-4.0771446-1.5658598-9.0997124-1.5658579Z"/>
  <path class="st0" d="M1.5096216,12.1656704h23.99018"/>
  <path class="st0" d="M13.5042343,17.493433h.0098486M13.5042343,22.8311443h.0098486M18.8222485,17.493433h.0098476M8.1763725,17.493433h.0098486M8.1763725,22.8311443h.0098486"/>
</svg>