<?xml version="1.0" encoding="UTF-8"?>
<svg id="Layer_1" xmlns="http://www.w3.org/2000/svg" xmlns:xlink="http://www.w3.org/1999/xlink" version="1.1" viewBox="0 0 64 64">
  <!-- Generator: Adobe Illustrator 29.4.0, SVG Export Plug-In . SVG Version: 2.1.0 Build 152)  -->
  <defs>
    <style>
      .st0 {
        fill: none;
      }

      .st1 {
        fill: #28292a;
      }

      .st2 {
        fill: url(#New_Pattern_Swatch_1);
      }
    </style>
    <pattern id="New_Pattern_Swatch_1" data-name="New Pattern Swatch 1" x="0" y="0" width="19.8620682" height="19.8620682" patternTransform="translate(-12243.7146556 -16691.5775224) scale(.5323496 -.5323496)" patternUnits="userSpaceOnUse" viewBox="0 0 19.8620682 19.8620682">
      <g>
        <rect class="st0" width="19.8620682" height="19.8620682"/>
        <g>
          <rect class="st0" width="19.8620682" height="19.8620682"/>
          <g>
            <rect class="st0" width="19.8620682" height="19.8620682"/>
            <g>
              <rect class="st0" width="19.8620682" height="19.8620682"/>
              <rect class="st1" width="19.8620682" height="19.8620682"/>
            </g>
          </g>
        </g>
      </g>
    </pattern>
  </defs>
  <path class="st2" d="M64,10.3344574h-10.0527954v24.2220764c0,3.0765076-.6932907,5.3730545-2.1665726,6.9763031-1.4299164,1.6032486-3.5531464,2.4265366-6.2829971,2.4265366-2.7298546,0-3.2065048-.3466492-4.4197617-.9966202l-.173336-.0866623c-1.299942-.7366295-2.2532043-1.8199081-2.9031906-3.1631699-.6499557-1.473259-.9966087-3.1198387-.9966087-5.1130676V10.3344574h-10.0528221v24.2220764c0,3.0765076-.6933022,5.3730545-2.1665516,6.9763031-1.4299183,1.6032486-3.5531445,2.4265366-6.2830009,2.4265366-2.7298603,0-3.2065001-.3466492-4.4197731-.9966202l-.1733217-.0866623c-1.2999334-.7366295-2.2532177-1.8199081-2.9031849-3.1631699-.6499653-1.473259-.9966145-3.1198387-.9966145-5.1130676V10.3344574H0v24.6553879c0,3.6398087.7799594,6.8896408,2.3398786,9.7061615,1.5599198,2.7731895,3.7698035,4.983078,6.5429931,6.5863266s6.0230198,2.3832092,9.6194992,2.3832092,6.846302-.7799606,9.6628323-2.3398819c1.4299126-.7799606,2.7298527-1.7765732,3.8997955-2.9898453,1.1699448,1.1699371,2.4698601,2.1665535,3.8131409,2.9465103,2.7731934,1.6032486,6.0230064,2.3832092,9.6194954,2.3832092,3.5964851,0,6.8463058-.7799606,9.6628342-2.3398819,2.7731934-1.5165863,4.9397469-3.7264709,6.4996529-6.5429916,1.5599289-2.8165207,2.3398857-6.1096802,2.3398857-9.7928238V10.3344574"/>
</svg>