<?xml version="1.0" encoding="UTF-8"?>
<svg id="Layer_1" xmlns="http://www.w3.org/2000/svg" version="1.1" viewBox="0 0 78.3979936 44">
  <!-- Generator: Adobe Illustrator 29.4.0, SVG Export Plug-In . SVG Version: 2.1.0 Build 152)  -->
  <defs>
    <style>
      .st0 {
        fill: #444545;
      }
    </style>
  </defs>
  <g id="CbSNaa">
    <g>
      <path class="st0" d="M28.6553037.0791384c-4.7665732.7101488-2.6644423,8.768589,2.2586478,6.5169062,3.474306-1.5890498,2.1693213-7.176608-2.2586478-6.5169062ZM37.4523065.0759825c-3.8243358.65445-3.1380186,7.2296255,1.0612183,6.8923137,4.688296-.3765964,4.2091945-7.7942276-1.0612183-6.8923137ZM19.1081979,11.3970591H.230433c-.8260858,0,.8502968,2.5072693.6444519,2.9040001v26.4119444c.0132716,1.0216339-.9554788,1.744991-.857359,2.7620621h8.0195016c.5648942,0-.4832415-1.8651359-.5611137-2.1357097-.4452606-1.5470982-.3883509-7.8930575-.2262152-9.7227896.0449775-.5075795.0463088-.8563124.6373362-.9239827,1.0962117-.125512,3.8700009-.1126128,4.9762897.0076524.9343753.1015765,1.6862495.854398,2.6254523.8520307v-8.2324088c-.9431505.0269318-1.6996866.8526923-2.6382739.9811472-.5834205.0798468-4.8265989.0876467-5.1650619-.0618084-.2757878-.1217797-.4002268-.423132-.4364348-.6990699-.0979511-.7464775-.1001905-4.7240686.0696566-5.3425318.099345-.3617444.3763132-.3770645.7159627-.4133437,1.8221782-.1946334,7.7855968-.1981296,9.4101835.2440301.3925653.1068435,1.7230432.7881236,2.0047119.5952894.1042358-.2440088.1426054-.4962623.162057-.7619951.108736-1.4854722.1138847-3.9233393-.0012653-5.4047916-.0286504-.3685996-.053773-.9839512-.5021147-1.059725ZM31.2439039,11.3970591h-8.0195016c-.58788,0,.394249,1.6181648.4628178,1.8081924.1442973.399897.3120183.8018815.3238249,1.2374931l.10128,26.1572652c.9163579.8295895,2.5029376,3.0677129,3.6881729,3.2667931,3.9099731-.159081,8.1658921.3281905,12.0366659.0400828.5740724-.0427291.9273928-.0894774,1.4144692-.4307258.3755156-.2630883,2.3658182-2.2530039,2.6248887-2.6268203.1264239-.1824189.264627-.3367052.2756244-.5760041l.0021405-25.8305904c.032038-1.0903617.9264605-1.9467654.8576113-3.045686h-8.0195016c-.6184517,0,.5015663,1.7991522.563872,1.9910129.1111902.3423927.2062763.6920521.2218187,1.0556246l-.0400804,22.1123229c-.0755866.2817127-.1052581.6493749-.4598715.6756332-1.032497-.1735787-6.1698428.2771803-6.6866746-.1300786-.1562144-.1230956-.2025437-.3133719-.2057177-.5039728l-.0009772-22.2983213c-.1263035-.5446367,1.302346-2.6169527.8591383-2.9022209ZM55.8701612,11.3970591h-6.8130279l-.2004537.2328987c.2637234,1.141974.8908969,1.8120391.9872422,3.0965171.6214729,8.2854889-.482896,17.3369765-.0001458,25.7029052-.0244182.465101-.1946386.9143118-.3636139,1.3396398-.0742758.1869596-1.0589423,1.7060457-.4230288,1.7060457h8.0195016c.2561118-.6490383-.8516285-1.9349745-.8516285-2.3419784v-14.2647773l7.4517789,16.6039125,7.4517198-16.7458506v14.1228392c0,.5796021-.8938966,1.6536577-.9709095,2.1620063-.0271853.1794457.0439342.4638482.19025.4638482h8.0195016c.2383185-1.0725895-.9958679-1.8887704-.8576684-3.0456289l.0003093-26.2703156c-.0133276-1.0214675.9555188-1.7451232.857359-2.7620621h-7.0259351l-7.66719,17.0366941-7.804061-17.0366941Z"/>
      <path class="st0" d="M55.8701612,11.3970591l7.804061,17.0366941,7.66719-17.0366941h7.0259351c.0981597,1.0169389-.8706867,1.7405946-.857359,2.7620621l-.0003093,26.2703156c-.1381995,1.1568585,1.0959868,1.9730394.8576684,3.0456289h-8.0195016c-.1463159,0-.2174354-.2844025-.19025-.4638482.0770129-.5083486.9709095-1.5824042.9709095-2.1620063v-14.1228392l-7.4517198,16.7458506-7.4517789-16.6039125v14.2647773c0,.4070039,1.1077403,1.69294.8516285,2.3419784h-8.0195016c-.6359135,0,.3487531-1.5190861.4230288-1.7060457.1689753-.425328.3391957-.8745388.3636139-1.3396398-.4827502-8.3659288.6216187-17.4174163.0001458-25.7029052-.0963453-1.284478-.7235188-1.9545432-.9872422-3.0965171l.2004537-.2328987h6.8130279Z"/>
      <path class="st0" d="M31.2439039,11.3970591c.4432078.2852682-.9854417,2.3575842-.8591383,2.9022209l.0009772,22.2983213c.0031739.1906008.0495032.3808772.2057177.5039728.5168318.4072589,5.6541776-.0435001,6.6866746.1300786.3546134-.0262583.3842849-.3939205.4598715-.6756332l.0400804-22.1123229c-.0155423-.3635725-.1106284-.7132319-.2218187-1.0556246-.0623057-.1918607-1.1823237-1.9910129-.563872-1.9910129h8.0195016c.0688492,1.0989206-.8255733,1.9553243-.8576113,3.045686l-.0021405,25.8305904c-.0109974.2392989-.1492005.3935852-.2756244.5760041-.2590705.3738164-2.2493731,2.363732-2.6248887,2.6268203-.4870765.3412484-.8403968.3879967-1.4144692.4307258-3.8707738.2881077-8.1266927-.1991638-12.0366659-.0400828-1.1852353-.1990803-2.7718149-2.4372036-3.6881729-3.2667931l-.10128-26.1572652c-.0118065-.4356116-.1795276-.8375961-.3238249-1.2374931-.0685688-.1900276-1.0506979-1.8081924-.4628178-1.8081924h8.0195016Z"/>
      <path class="st0" d="M19.1081979,11.3970591c.4483417.0757738.4734643.6911253.5021147,1.059725.11515,1.4814523.1100013,3.9193195.0012653,5.4047916-.0194515.2657328-.0578212.5179863-.162057.7619951-.2816687.1928342-1.6121466-.4884459-2.0047119-.5952894-1.6245867-.4421597-7.5880052-.4386635-9.4101835-.2440301-.3396495.0362792-.6166177.0515993-.7159627.4133437-.169847.6184632-.1676077,4.5960543-.0696566,5.3425318.036208.2759379.160647.5772902.4364348.6990699.338463.1494552,4.5816414.1416553,5.1650619.0618084.9385873-.1284549,1.6951234-.9542154,2.6382739-.9811472v8.2324088c-.9392029.0023673-1.691077-.7504542-2.6254523-.8520307-1.1062888-.1202653-3.880078-.1331644-4.9762897-.0076524-.5910274.0676703-.5923587.4164032-.6373362.9239827-.1621357,1.8297321-.2190453,8.1756914.2262152,9.7227896.0778721.2705738,1.1260079,2.1357097.5611137,2.1357097H.0175258c-.0981198-1.0170711.8706306-1.7404282.857359-2.7620621V14.3010592c.2058448-.3967309-1.4705377-2.9040001-.6444519-2.9040001h18.8777649Z"/>
      <path class="st0" d="M28.6553037.0791384c4.4279691-.6597018,5.7329538,4.9278564,2.2586478,6.5169062-4.9230902,2.2516829-7.0252211-5.8067574-2.2586478-6.5169062Z"/>
      <path class="st0" d="M37.4523065.0759825c5.2704128-.9019139,5.7495143,6.5157173,1.0612183,6.8923137-4.199237.3373118-4.8855541-6.2378637-1.0612183-6.8923137Z"/>
    </g>
  </g>
</svg>