<?xml version="1.0" encoding="UTF-8"?>
<svg id="Layer_1" xmlns="http://www.w3.org/2000/svg" version="1.1" viewBox="0 0 36.9999984 33">
  <!-- Generator: Adobe Illustrator 29.4.0, SVG Export Plug-In . SVG Version: 2.1.0 Build 152)  -->
  <defs>
    <style>
      .st0 {
        fill: none;
        stroke: #6e7072;
        stroke-linecap: round;
        stroke-linejoin: round;
        stroke-width: 3px;
      }
    </style>
  </defs>
  <path class="st0" d="M3.4999974,1.5l5.5524502,5.5524502M33.4999974,31.5l-5.5522995-5.5522995M9.0524476,7.0524502c2.7387495-1.6173601,5.9774494-2.5524502,9.4477501-2.5524502,7.8722992,0,14.5514011,4.8112001,16.9106998,11.4848003.1188011.3311996.1188011.6896,0,1.0223999-1.3158989,3.7348003-3.9867001,6.8873997-7.4631996,8.9405003M9.0524476,7.0524502l18.8952503,18.8952503"/>
  <path class="st0" d="M5.6549876,9.6549997c-1.8173304,1.7812004-3.2214801,3.9394999-4.0671401,6.3379011-.11713.3317986-.11713.6904984,0,1.0223999,2.3593097,6.6735992,9.04005,11.4847984,16.9123502,11.4847984,1.8298988,0,3.5953007-.2599983,5.257-.7428989"/>
  <path class="st0" d="M22.0358976,20.0354996c.9377003-.9375992,1.4645004-2.2094002,1.4645004-3.5354996,0-1.3261003-.5268002-2.5979004-1.4645004-3.5354996-.9377003-.9377003-2.2094002-1.4645004-3.5354996-1.4645004-1.3261013,0-2.5979004.5268002-3.5356007,1.4645004"/>
</svg>