<?xml version="1.0" encoding="UTF-8"?>
<svg id="Layer_1" xmlns="http://www.w3.org/2000/svg" xmlns:xlink="http://www.w3.org/1999/xlink" version="1.1" viewBox="0 0 426.5108948 94.5700531">
  <!-- Generator: Adobe Illustrator 29.4.0, SVG Export Plug-In . SVG Version: 2.1.0 Build 152)  -->
  <defs>
    <style>
      .st0 {
        fill: none;
      }

      .st1 {
        fill: #28292a;
      }

      .st2 {
        fill: url(#New_Pattern_Swatch_12);
      }

      .st3 {
        fill: url(#New_Pattern_Swatch_11);
      }

      .st4 {
        fill-opacity: 0;
      }

      .st5 {
        clip-path: url(#clippath);
      }

      .st6 {
        fill: url(#New_Pattern_Swatch_2);
      }
    </style>
    <clipPath id="clippath">
      <rect class="st0" width="426.0380554" height="94.5700684"/>
    </clipPath>
    <pattern id="New_Pattern_Swatch_2" data-name="New Pattern Swatch 2" x="0" y="0" width="19.8620682" height="19.8620682" patternTransform="translate(-49.6613388 15519.9868622)" patternUnits="userSpaceOnUse" viewBox="0 0 19.8620682 19.8620682">
      <g>
        <rect class="st0" width="19.8620682" height="19.8620682"/>
        <g>
          <rect class="st0" width="19.8620682" height="19.8620682"/>
          <rect class="st1" width="19.8620682" height="19.8620682"/>
        </g>
      </g>
    </pattern>
    <pattern id="New_Pattern_Swatch_11" data-name="New Pattern Swatch 11" x="0" y="0" width="19.8620682" height="19.8620682" patternTransform="translate(-43.1096191 15539.6763153)" patternUnits="userSpaceOnUse" viewBox="0 0 19.8620682 19.8620682">
      <g>
        <rect class="st0" width="19.8620682" height="19.8620682"/>
        <g>
          <rect class="st0" width="19.8620682" height="19.8620682"/>
          <g>
            <rect class="st0" width="19.8620682" height="19.8620682"/>
            <rect class="st1" width="19.8620682" height="19.8620682"/>
          </g>
        </g>
      </g>
    </pattern>
    <pattern id="New_Pattern_Swatch_12" data-name="New Pattern Swatch 12" x="0" y="0" width="19.8620682" height="19.8620682" patternTransform="translate(-43.1096191 15539.6763153)" patternUnits="userSpaceOnUse" viewBox="0 0 19.8620682 19.8620682">
      <g>
        <rect class="st0" width="19.8620682" height="19.8620682"/>
        <g>
          <rect class="st0" width="19.8620682" height="19.8620682"/>
          <g>
            <rect class="st0" width="19.8620682" height="19.8620682"/>
            <rect class="st1" width="19.8620682" height="19.8620682"/>
          </g>
        </g>
      </g>
    </pattern>
  </defs>
  <g class="st5">
    <g>
      <rect class="st4" width="426.5108948" height="94.5700531"/>
      <path class="st6" d="M139.6799469,0h-21.9402237v52.8646584c0,6.7144699-1.5131226,11.7266808-4.7285385,15.2257805-3.1207886,3.4990845-7.7547455,5.2959213-13.7126389,5.2959213-5.9579086,0-6.9981842-.7565613-9.6461182-2.1751175l-.3783112-.1891327c-2.8371201-1.6076889-4.9176178-3.9719467-6.3362045-6.9036179-1.4185333-3.2153931-2.1750946-6.8090515-2.1750946-11.1592636V0h-21.9402733v52.8646584c0,6.7144699-1.5131264,11.7266808-4.7284966,15.2257805-3.1207962,3.4990845-7.7547302,5.2959213-13.7126427,5.2959213-5.9579163,0-6.9981842-.7565613-9.6461487-2.1751175l-.3782749-.1891327c-2.8371029-1.6076889-4.9176445-3.9719467-6.3361988-6.9036179-1.4185486-3.2153931-2.1751099-6.8090515-2.1751099-11.1592636V0H0v53.81036c0,7.943882,1.7022609,15.0366402,5.1067829,21.1836891,3.4045238,6.0524826,8.2275925,10.8755569,14.280077,14.374649,6.0524826,3.4990921,13.145237,5.201355,20.9945488,5.201355s14.9420433-1.7022629,21.0891266-5.106781c3.1207809-1.7022629,5.957901-3.8773727,8.5112991-6.5253296,2.5533981,2.5533829,5.3904648,4.7285004,8.3221741,6.4307632,6.0524902,3.4990921,13.1452026,5.201355,20.9945374,5.201355,7.8493271,0,14.9420471-1.7022629,21.089119-5.1067886,6.0524902-3.3099518,10.7809753-8.1330185,14.1854858-14.2800751,3.4045563-6.147049,5.1067963-13.3343735,5.1067963-21.3728294V0"/>
      <path class="st6" d="M385.6566162,0c-7.8492432,0-14.9420166,1.7968338-20.9945068,5.2013321-6.1470947,3.4990931-10.9701233,8.3221779-14.2801208,14.37467-3.4045105,6.1470261-5.1068115,13.2397938-5.1068115,21.1837139v53.8103371h21.9403076v-52.8646545c0-4.350235.6619568-7.9439087,2.1750488-11.1592808,1.4185486-3.026247,3.499115-5.3904667,6.3362122-6.9035912,2.8371277-1.6077099,6.2416077-2.4588089,10.0244141-2.4588089,5.9579163,0,10.5918579,1.7967892,13.7126465,5.2958775,3.2153931,3.5936775,4.7285156,8.6058922,4.7285156,15.2258034v52.8646545h21.9402771v-53.8103333c0-8.038456-1.70224-15.2258148-5.1068115-21.3728409-3.40448-6.1470814-8.2275696-10.9701614-14.1854553-14.280076C400.5986938,1.7022541,393.7896423.0000048,385.7511902.0000048h-.0946045l.0000305-.0000048Z"/>
      <path class="st3" d="M169.6586914,38.0171318c.5673828-2.1750908,1.2294006-4.1610603,2.2696228-5.9578972,2.1751556-4.0665245,5.2014008-7.2818947,9.0787506-9.5515804,3.8773956-2.26968,8.5112915-3.4044991,13.8072205-3.4044991s9.267868,1.0402794,12.7669525,3.026247,6.1470947,4.9176197,8.0384521,8.7004242c1.8914337,3.7828064,1.8914337,4.5393715,2.3642731,7.1873055h-48.3252716ZM232.9260254,21.9402733c-3.6882324-6.8090525-8.7950287-12.1995687-15.3203583-16.07691C211.0803223,1.9859622,203.609314-.0000005,195.1925964-.0000005,186.7758179-.0000005,178.5482483,2.0805566,171.4554749,6.2416105c-7.0927124,4.1611195-12.7669373,9.8352976-16.928009,16.928071-4.1611176,7.0927162-6.2416229,15.1311684-6.2416229,24.115345,0,8.9841537,2.0805054,17.0226135,6.3361511,24.209938,4.2557068,7.1873169,9.9298859,12.8615265,17.211792,16.9280396,7.2818756,4.0665131,15.4148712,6.1470566,24.4936218,6.1470566,9.0787201,0,13.712677-1.3239822,20.0488281-3.9719391,6.3362122-2.6479568,11.6321411-6.5253372,16.0769348-11.7266922l-13.2397919-13.4289474c-2.7425232,3.1208267-6.1470947,5.5796432-10.1190186,7.1873245-3.9719391,1.6076889-8.3221893,2.4588242-12.9560852,2.4588242-4.6339569,0-10.213562-1.1348419-14.3746643-3.4990921-4.1610565-2.3642502-7.3764191-5.674202-9.6461029-9.9298553-1.1348724-2.0805435-1.8914337-4.2556496-2.4588165-6.6199036h67.7121582c.3782501-1.8914032.661972-3.5936546.8511047-5.201355.1891327-1.6076851.2837067-3.1208.2837067-4.6339302,0-8.7004166-1.8913727-16.4552116-5.5796356-23.2642097v-.0000114Z"/>
      <path class="st2" d="M267.7277832,38.0171318c.5674133-2.1750908,1.2294617-4.1610603,2.2696838-5.9578972,2.1751404-4.0665245,5.2013855-7.2818947,9.0787354-9.5515804,3.8774109-2.26968,8.5112915-3.4044991,13.807251-3.4044991,5.295929,0,9.2678528,1.0402794,12.7669373,3.026247,3.499115,1.9859676,6.1470947,4.9176197,8.0384521,8.7004242,1.891449,3.7828064,1.891449,4.5393715,2.3642883,7.1873055h-48.3253479ZM330.9006042,21.9402733c-3.6882629-6.8090525-8.7950134-12.1995687-15.320343-16.07691C309.0549316,1.9859622,301.5838623-.0000005,293.1671448-.0000005,284.7503357-.0000005,276.5227966,2.0805566,269.4300842,6.2416105c-7.0927734,4.1611195-12.7669678,9.8352976-16.9280701,16.928071-4.1610565,7.0927162-6.2416077,15.1311684-6.2416077,24.115345,0,8.9841537,2.0805511,17.0226135,6.3361969,24.209938,4.255661,7.1873169,9.9298553,12.8615265,17.2117462,16.9280396s15.4149475,6.1470566,24.4936829,6.1470566c9.0786743,0,13.7126465-1.3239822,20.0488281-3.9719391,6.3361511-2.6479568,11.6320801-6.5253372,16.0768738-11.7266922l-13.2398071-13.4289474c-2.7425232,3.1208267-6.1470337,5.5796432-10.1189575,7.1873245-3.9719849,1.6076889-8.3221741,2.4588242-12.9561157,2.4588242-4.6340027,0-10.213562-1.1348419-14.3746033-3.4990921-4.1611023-2.3642502-7.3764954-5.674202-9.6462708-9.9298553-1.1348267-2.0805435-1.8913879-4.2556496-2.4588013-6.6199036h67.7121582c.3782959-1.8914032.6620789-3.5936546.8511353-5.201355.1892395-1.6076851.2837219-3.1208.2837219-4.6339302,0-8.7004166-1.8914185-16.4552116-5.5796509-23.2642097h.0000916l-.0000305-.0000114Z"/>
    </g>
  </g>
</svg>