<?xml version="1.0" encoding="UTF-8"?>
<svg id="Layer_1" xmlns="http://www.w3.org/2000/svg" version="1.1" viewBox="0 0 41.6470744 36.0000214">
  <!-- Generator: Adobe Illustrator 29.4.0, SVG Export Plug-In . SVG Version: 2.1.0 Build 152)  -->
  <defs>
    <style>
      .st0 {
        fill: none;
        stroke: #ec6a4d;
        stroke-linejoin: round;
        stroke-width: 4px;
      }
    </style>
  </defs>
  <path class="st0" d="M1.9999987,6.7059278l13.0127001,7.3731694c4.7974005,2.7180996,6.8242998,2.7180996,11.6216993,0l13.0126991-7.3731694"/>
  <path class="st0" d="M2.0296787,20.7775969c.12305,5.7705002.1845901,8.6556015,2.3137701,10.7930012,2.1291699,2.1373005,5.0924602,2.2115993,11.0190501,2.3604984,3.6526995.0918999,7.2694006.0918999,10.9220991,0,5.9266014-.1488991,8.889801-.2231979,11.0191002-2.3604984,2.1291008-2.1373997,2.1907005-5.022501,2.3135986-10.7930012.0397034-1.8554001.0397034-3.6997986,0-5.5551996-.1228981-5.7704296-.1844978-8.6556396-2.3135986-10.7929196-2.1292992-2.13728-5.0924988-2.21173-11.0191002-2.36064-3.6526985-.0917801-7.2694988-.0917801-10.9220991-.00002-5.92659.1489-8.8898802.22334-11.0190701,2.36064-2.12918,2.13728-2.1907001,5.02249-2.31376,10.7929397-.03957,1.855401-.0395499,3.6997995.00001,5.5551996Z"/>
</svg>