<?xml version="1.0" encoding="UTF-8"?>
<svg id="Layer_1" xmlns="http://www.w3.org/2000/svg" version="1.1" viewBox="0 0 185.6457374 40">
  <!-- Generator: Adobe Illustrator 29.4.0, SVG Export Plug-In . SVG Version: 2.1.0 Build 152)  -->
  <defs>
    <style>
      .st0 {
        fill: #444545;
      }
    </style>
  </defs>
  <path class="st0" d="M139.4674695,2.9310052v7.3741421h8.6566016c-.3243679-5.0118616.6112961-8.3399131,6.4122974-7.3741421v7.3741421h7.0535272c.3175146.7742985-.2918222,3.2061487-1.1221521,3.2061487h-5.9313751v21.320889c0,2.1567853,4.7597659,1.3130919,6.0580181.8285887l.618081,2.4811592c-3.1040964,2.2828573-10.5174659,2.8807634-12.3712996-1.1415604-.1214204-.2634499-.717097-2.0540028-.717097-2.1681875V13.511296h-8.6566016v21.320889c0,1.7726598,4.2437284,1.6784277,5.4469104,1.1199508l.482193,2.2648803c-2.3099954,2.2809551-9.0334717,2.3282146-11.0123289-.225295-.2004286-.2586323-1.329072-2.6821898-1.329072-2.8389213V13.511296h-4.4886082v-3.2061487h4.4886082c-.4258271-5.225742.4597753-8.2709279,6.4122974-7.3741421Z"/>
  <path class="st0" d="M16.3513585,38.8398709V15.5952927c0-1.4629615-2.7209201-2.1599388-3.9651123-2.0564416-9.8206596.8169243-4.9640366,18.414271-6.5917497,24.5229114-.105065.1456338-1.0674641.7781084-1.1455809.7781084H0V12.389144c0-.0985357.9131125-1.5001854,1.0721686-1.6535312,1.3037651-1.256958,3.3566343-.606971,5.019514-.7510804v4.4886082l2.7339394-3.5180503c5.3370716-3.5392449,13.1698845-3.0613602,13.9349881,4.6432483.5003998,5.0390362.4861199,15.7910132.0177568,20.8516318-.0740404.7999998-.4699932,2.3899006-1.4574779,2.3899006h-4.9695305Z"/>
  <path class="st0" d="M70.1372266,9.1056137c17.816074-2.4137374,19.3906889,30.7219988,1.7861717,30.8937318-16.3455178.1594514-16.7443392-28.8671861-1.7861717-30.8937318ZM70.7681201,12.6241347c-.6486215.1332284-1.5364901.7178782-2.0075682,1.1964392-3.4042138,3.4582889-3.2221851,15.5447821-1.0540355,19.6723732,2.1321772,4.059109,6.5903639,3.6369201,8.4383057-.425354,1.9311412-4.2451687,1.9335893-14.3420178-.5944853-18.3193719-1.0978187-1.7271696-2.6769772-2.5565079-4.7822167-2.1240866Z"/>
  <path class="st0" d="M110.9327458,24.7328166c.3691998,3.0416732.5749422,5.6962354,2.5726764,8.1679219,3.3918418,4.1965392,9.2501465,3.8665216,13.2984628.8150632,2.302536,2.3271001.4224843,3.7422439-1.8671928,4.8606535-4.2632932,2.0824368-10.9819239,1.7538665-14.9451355-.8793917-8.9855279-5.9702124-7.4990559-25.1546431,3.500044-28.199516,6.6064339-1.8288544,12.4403869,1.3166883,14.2028863,7.9316687.3731646,1.4005544,1.4339584,7.3036004-.8913049,7.3036004h-15.8704362ZM121.8336515,21.206053c.5592326-12.4174688-10.597427-11.6951471-10.2596759,0h10.2596759Z"/>
  <path class="st0" d="M168.322808,24.7328166c-.1818483,7.6752813,4.739798,13.2130156,12.7599992,10.6760203,1.1600225-.3669449,1.9333537-1.1386635,3.0673113-1.3610371l1.1128776,2.0205965c-4.2283648,5.0675291-13.9730593,4.9339401-18.8370989.9813145-5.1090662-4.1517396-5.7421001-11.4733747-4.4201239-17.511777,3.2163293-14.6912561,23.1964098-13.9692807,23.639318,1.8442746.023014.8216882-.5707615,3.3506082-1.451847,3.3506082h-15.8704362ZM178.9030988,21.206053c.1625108-3.2263707-.3552446-9.0122606-4.6496503-9.0035526-4.534808.0091955-5.3590635,5.5160771-5.6100256,9.0035526h10.2596759Z"/>
  <path class="st0" d="M57.9843028,34.7138764l.9814173,2.3121467c-6.080642,4.9598798-16.3211763,3.5729653-20.1101363-3.5374818-6.3536569-11.9234149,2.5804717-29.5361297,17.2475457-23.3392266,2.8480123,1.2032977,3.7434075,2.017889,1.4530952,4.614451-6.6787507-4.3987342-12.9886942-.3191246-13.6435398,7.232275-.6074563,7.0049259,1.3062719,15.0639647,10.0280345,13.8754117.8615393-.1174058,3.6945407-1.3627004,4.0435835-1.1575761Z"/>
  <path class="st0" d="M103.5586038,9.3433027v5.4504528c-13.5381335-1.7164389-8.0698096,14.4632531-9.3180279,22.2625371-.1013106.6330226-.7946287,1.7835784-1.4225703,1.7835784h-4.9695305V13.0303737c0-.1117975.6596784-1.5358964.8136368-1.7512821,1.3841594-1.93642,3.5449543-1.1621182,5.5986606-1.2945592v5.129838l1.6588555-2.9900553c1.7647435-2.4028427,4.7843245-3.0586994,7.6389758-2.7810124Z"/>
  <path class="st0" d="M33.3439467,9.9845324v27.0919567c0,.3013795-.9478519,1.7633818-1.4427669,1.7633818h-4.9695305V12.7097588c0-.0935499.7874733-1.4113473.9574762-1.6074427,1.5029449-1.733622,3.4107989-.9791638,5.4548213-1.1177837Z"/>
  <path class="st0" d="M29.4047886.1122499c5.3017203-1.1908599,4.6434763,7.5327001-.4670009,5.4592782-2.3753534-.9637279-2.0433441-4.8954104.4670009-5.4592782Z"/>
</svg>