<?xml version="1.0" encoding="UTF-8"?>
<svg id="Layer_1" xmlns="http://www.w3.org/2000/svg" version="1.1" viewBox="0 0 67.7789121 28">
  <!-- Generator: Adobe Illustrator 29.4.0, SVG Export Plug-In . SVG Version: 2.1.0 Build 152)  -->
  <defs>
    <style>
      .st0 {
        fill: #444545;
      }
    </style>
  </defs>
  <g id="_x34_Oeb3J.tif">
    <g>
      <path class="st0" d="M67.5860897,1.7884028c-.7793423.5812492-1.690135.2482985-2.5492224.3818506-1.0156308.157888-2.7496857,1.2934808-3.4517216,2.0490098-.7007376.7541317-1.0853876,1.7158883-1.7133481,2.5215261-.1962413-.0004714-.5961842-1.1706881-.6780526-1.3931881-.5974683-1.6237864-1.0045182-3.6865651-1.7302641-5.2085491-.0576961-.1209963-.1084234-.2098888-.2073602-.061076-1.042915,1.8773143-2.47918,3.2948127-1.7390919,5.6069913.4949516,1.5463248,1.5356004,3.1138217,2.1025292,4.6579695.0525277.1266526.0646774.2542317.0255232.3872336-.0538364.1828759-.8297821,1.1348744-1.014189,1.424366-3.1475291,4.9411575-5.1705293,10.437963-7.36098,15.8454634,4.4264518-3.4813813,6.5568406-8.8722734,9.7902115-13.3305566l6.1798468,9.3672809c-.2901899-.7570135-.3057226-1.492187-.2689151-2.2959596.0220189-.4808317.2254073-1.2338405.1605191-1.6889188-.0668553-.468874-.8413521-1.7950875-1.0799362-2.3492137-.4347612-1.0097594-.8921492-2.036887-1.2488949-3.0769165-.7709252-2.2474971-1.1748379-3.2849554.3241833-5.3545374,1.1718969-1.6179469,2.8861324-2.9381055,4.0294609-4.6249105.1389529-.2050036.5536595-.824071.609697-1.0131957.03628-.1224437-.0038341-.16281-.1275359-.1278562l-.9534873.2643118.9010283-1.9811249ZM56.2171868.8880545l-.0837739-.6819733c-.9304203-.2167931-.7142981.8056445.0837739.6819733ZM20.2815496.3706699c-.6971192.1012027-1.5723579.7422333-1.687084,1.4685291-.4679133,2.9622144,3.8195609,2.8988864,4.1371189.616983.2200019-1.5808861-1.0046179-2.2953473-2.4500349-2.0855121ZM50.5645487,3.5577243c1.0825619,1.0805993,3.4122326.5603871,3.716307-1.0444271.5288295-2.7910042-3.9555187-2.8676235-4.1906064-.3987961-.0498874.5239043.1024584,1.0720564.4742994,1.4432232ZM66.3011191.9099816c-.5745914-.5665539-.9642011,1.1295909-.0207913.6099387.1353561-.1599466.1748491-.4580358.0207913-.6099387ZM0,17.1911089h3.3838617l1.9851995-9.2785716,5.4776307,9.2595011,2.9586698.018311,2.9785923-14.9515875h-3.5192162l-1.8498414,9.2785751L5.937262,2.2578327l-2.947365-.0073066L0,17.1911089ZM30.8675358,9.7993215l2.8740791-1.399398c-1.4422935-3.3230245-6.1593164-3.5913188-8.9872221-1.9431128-2.4600161,1.4337866-3.7089987,4.3409838-3.0534126,7.1321743,1.1196584,4.7670013,8.9115366,4.9310104,11.2250056,1.0344312l-2.4601317-1.5692257c-2.0370025,2.7173028-6.3437714,1.7369003-5.3534957-2.1867092.678601-2.6887113,4.4440431-3.7302918,5.7551773-1.0681597ZM21.6567148,5.6615883h-3.4289798l-2.2559078,11.5295206h3.2936254l2.3912623-11.5295206ZM53.1491877,5.6615883h-3.3387435l-2.2559078,11.5295206h3.3387435l2.2559078-11.5295206Z"/>
      <path class="st0" d="M67.5860897,1.7884028l-.9010283,1.9811249.9534873-.2643118c.1237018-.0349538.1638159.0054124.1275359.1278562-.0560375.1891247-.4707441.8081921-.609697,1.0131957-1.1433285,1.686805-2.8575641,3.0069636-4.0294609,4.6249105-1.4990212,2.069582-1.0951085,3.1070403-.3241833,5.3545374.3567457,1.0400294.8141338,2.067157,1.2488949,3.0769165.2385841.5541263,1.0130809,1.8803398,1.0799362,2.3492137.0648882.4550783-.1385001,1.2080871-.1605191,1.6889188-.0368075.8037726-.0212748,1.538946.2689151,2.2959596l-6.1798468-9.3672809c-3.2333709,4.4582832-5.3637597,9.8491753-9.7902115,13.3305566,2.1904507-5.4075004,4.213451-10.904306,7.36098-15.8454634.1844068-.2894916.9603526-1.24149,1.014189-1.424366.0391541-.1330019.0270045-.260581-.0255232-.3872336-.5669287-1.5441478-1.6075775-3.1116447-2.1025292-4.6579695-.7400881-2.3121786.6961769-3.729677,1.7390919-5.6069913.0989368-.1488128.1496641-.0599202.2073602.061076.7257459,1.5219839,1.1327958,3.5847627,1.7302641,5.2085491.0818683.2225.4818112,1.3927167.6780526,1.3931881.6279606-.8056379,1.0126105-1.7673944,1.7133481-2.5215261.7020359-.755529,2.4360908-1.8911218,3.4517216-2.0490098.8590874-.1335521,1.7698801.1993986,2.5492224-.3818506Z"/>
      <polygon class="st0" points="0 17.1911089 2.9898969 2.2505261 5.937262 2.2578327 11.4148965 11.517337 13.2647378 2.2387619 16.783954 2.2387619 13.8053617 17.1903495 10.8466919 17.1720385 5.3690612 7.9125374 3.3838617 17.1911089 0 17.1911089"/>
      <path class="st0" d="M48.1012862,6.4205885c-.1911449-2.6767926-2.4196122-4.0283678-4.9184188-4.1865955-2.3075812-.1450286-4.7667906.1186708-7.0875709.0065995l-2.8876958,14.9531214h3.5206066l.804418-4.1074817c1.925211-.1516684,3.8767397.1714268,5.7623535-.2769387,3.1317174-.7450223,5.0305303-3.1119188,4.8063073-6.388705ZM41.9170458,10.1654986h-3.837223l1.0746768-5.0964853c1.9186115-.0263579,5.5844077-.5801951,5.4195805,2.3471381-.0725948,1.3318169-1.2725016,2.7493472-2.6570343,2.7493472Z"/>
      <path class="st0" d="M30.8675358,9.7993215c-1.3111343-2.6621321-5.0765763-1.6205516-5.7551773,1.0681597-.9902757,3.9236095,3.3164932,4.904012,5.3534957,2.1867092l2.4601317,1.5692257c-2.313469,3.8965792-10.1053473,3.7325701-11.2250056-1.0344312-.6555861-2.7911905.5933965-5.6983876,3.0534126-7.1321743,2.8279057-1.6482061,7.5449286-1.3799118,8.9872221,1.9431128l-2.8740791,1.399398Z"/>
      <polygon class="st0" points="53.1491877 5.6615883 50.8932799 17.1911089 47.5545363 17.1911089 49.8104441 5.6615883 53.1491877 5.6615883"/>
      <polygon class="st0" points="21.6567148 5.6615883 19.2654526 17.1911089 15.9718272 17.1911089 18.227735 5.6615883 21.6567148 5.6615883"/>
      <path class="st0" d="M50.5645487,3.5577243c-.3718409-.3711668-.5241868-.9193189-.4742994-1.4432232.2350877-2.4688274,4.7194359-2.3922081,4.1906064.3987961-.3040744,1.6048142-2.6337452,2.1250264-3.716307,1.0444271Z"/>
      <path class="st0" d="M20.2815496.3706699c1.4454169-.2098352,2.6700368.504626,2.4500349,2.0855121-.317558,2.2819033-4.6050323,2.3452314-4.1371189-.616983.1147262-.7262958.9899648-1.3673264,1.687084-1.4685291Z"/>
      <path class="st0" d="M66.3011191.9099816c.1540578.1519028.1145648.4499921-.0207913.6099387-.9434098.5196522-.5538001-1.1764926.0207913-.6099387Z"/>
      <path class="st0" d="M56.2171868.8880545c-.798072.1236712-1.0141941-.8987664-.0837739-.6819733l.0837739.6819733Z"/>
    </g>
  </g>
</svg>