<?xml version="1.0" encoding="UTF-8"?>
<svg id="Layer_1" xmlns="http://www.w3.org/2000/svg" version="1.1" viewBox="0 0 42.5999985 46.9999793">
  <!-- Generator: Adobe Illustrator 29.4.0, SVG Export Plug-In . SVG Version: 2.1.0 Build 152)  -->
  <defs>
    <style>
      .st0 {
        fill: none;
        stroke: #28292a;
        stroke-linecap: round;
        stroke-linejoin: round;
        stroke-width: 3px;
      }
    </style>
  </defs>
  <path class="st0" d="M21.2999992,45.4999793c-1.7999992,0-3.5195999-.7263985-6.9587994-2.1791-8.5607901-3.6162987-12.8411999-5.4244995-12.8411999-8.4659996V12.4999802M21.2999992,45.4999793c1.8000011,0,3.5195999-.7263985,6.9588013-2.1791,8.5608978-3.6162987,12.841198-5.4244995,12.841198-8.4659996V12.4999802M21.2999992,45.4999793v-23.4193993"/>
  <path class="st0" d="M13.217,18.4210799l-6.42662-3.1097994c-3.5269301-1.7067003-5.29038-2.5600004-5.29038-3.9113007,0-1.3512993,1.7634499-2.2045994,5.29038-3.9112496l6.42662-3.1097603c3.9663992-1.9193099,5.9497004-2.8789699,8.0829992-2.8789699,2.1333008,0,4.1166.95964,8.0830002,2.8789699l6.4267006,3.1097603c3.5267982,1.7066503,5.2902985,2.5599504,5.2902985,3.9112496,0,1.3513002-1.7635002,2.2046003-5.2902985,3.9113007l-6.4267006,3.1097994c-3.9664001,1.9193001-5.9496994,2.8789005-8.0830002,2.8789005-2.1332989,0-4.1166-.9596004-8.0829992-2.8789005Z"/>
  <path class="st0" d="M8.1015596,23.4998801l4.4000406,2.2000008"/>
  <path class="st0" d="M32.3008003,5.9000299l-22,10.9999509"/>
</svg>