<?xml version="1.0" encoding="UTF-8"?>
<svg id="Layer_1" xmlns="http://www.w3.org/2000/svg" version="1.1" viewBox="0 0 39.999998 39.9999771">
  <!-- Generator: Adobe Illustrator 29.4.0, SVG Export Plug-In . SVG Version: 2.1.0 Build 152)  -->
  <defs>
    <style>
      .st0 {
        fill: none;
        stroke: #ec6a4d;
        stroke-linecap: round;
        stroke-linejoin: round;
        stroke-width: 4px;
      }
    </style>
  </defs>
  <path class="st0" d="M5.823728,17.0825996l5.28087-5.2809c1.0771999-1.0771999,1.4499998-2.6688795,1.0143003-4.1286697-.3407001-1.1415-.7245007-2.5137601-.9797001-3.6871898-.2360001-1.0853-1.1882906-1.9858401-2.2989502-1.9858401h-3.01652c-2.2213199,0-4.0455,1.8076799-3.8018401,4.0155902,1.8523002,16.7836099,15.17891,30.1101117,31.9625118,31.9625096,2.2080002.2435989,4.0155983-1.5806007,4.0155983-3.8019981v-3.0164013c0-1.1105995-.9042015-2.021801-1.9970016-2.2206001-1.2053986-.2192001-2.4807968-.5783997-3.5477982-.9186001-1.5330009-.4888-3.2369995-.1452007-4.3745995.9923992l-5.1632004,5.1632023"/>
</svg>