<?xml version="1.0" encoding="UTF-8"?>
<svg id="Layer_1" xmlns="http://www.w3.org/2000/svg" version="1.1" viewBox="0 0 33.1763992 36">
  <!-- Generator: Adobe Illustrator 29.4.0, SVG Export Plug-In . SVG Version: 2.1.0 Build 152)  -->
  <defs>
    <style>
      .st0 {
        fill: none;
        stroke: #28292a;
        stroke-linecap: round;
        stroke-linejoin: round;
        stroke-width: 4px;
      }
    </style>
  </defs>
  <path class="st0" d="M26.4705009,11.4118004c2.598999,0,4.7058983-2.1069307,4.7058983-4.7059202,0-2.5989799-2.1068993-4.7058802-4.7058983-4.7058802-2.5990009,0-4.7059002,2.1069002-4.7059002,4.7058802,0,2.5989895,2.1068993,4.7059202,4.7059002,4.7059202Z"/>
  <path class="st0" d="M6.7058802,34c2.5989895,0,4.7059202-2.1068993,4.7059202-4.7059002,0-2.5988998-2.1069307-4.7057991-4.7059202-4.7057991-2.5989799,0-4.7058802,2.1068993-4.7058802,4.7057991,0,2.5990009,2.1069002,4.7059002,4.7058802,4.7059002Z"/>
  <path class="st0" d="M16.5879002,6.7058702h-5.8823004c-3.2487397,0-5.88236,2.5282702-5.88236,5.6470294,0,3.1188002,2.6336203,5.6471004,5.88236,5.6471004h11.7647009c3.2486992,0,5.8823986,2.5282993,5.8823986,5.6469994,0,3.1188011-2.6336994,5.6471004-5.8823986,5.6471004h-5.8824005"/>
</svg>