<?xml version="1.0" encoding="UTF-8"?>
<svg id="Layer_1" xmlns="http://www.w3.org/2000/svg" xmlns:xlink="http://www.w3.org/1999/xlink" version="1.1" viewBox="0 0 109.5860291 122">
  <!-- Generator: Adobe Illustrator 29.4.0, SVG Export Plug-In . SVG Version: 2.1.0 Build 152)  -->
  <defs>
    <style>
      .st0, .st1, .st2, .st3, .st4 {
        fill: none;
      }

      .st1 {
        stroke-miterlimit: 3.9999993;
      }

      .st1, .st2, .st3, .st4 {
        stroke: url(#New_Pattern_Swatch_8);
        stroke-width: 3px;
      }

      .st2 {
        stroke-miterlimit: 4.0000005;
      }

      .st3 {
        stroke-linecap: round;
      }

      .st5 {
        fill: #d5d6d7;
      }
    </style>
    <pattern id="New_Pattern_Swatch_8" data-name="New Pattern Swatch 8" x="0" y="0" width="19.8620682" height="19.8620682" patternTransform="translate(13.8046595 -21.737187) scale(1.1068285 -1.1068285)" patternUnits="userSpaceOnUse" viewBox="0 0 19.8620682 19.8620682">
      <g>
        <rect class="st0" width="19.8620682" height="19.8620682"/>
        <g>
          <rect class="st0" width="19.8620682" height="19.8620682"/>
          <g>
            <rect class="st0" width="19.8620682" height="19.8620682"/>
            <g>
              <rect class="st0" width="19.8620682" height="19.8620682"/>
              <rect class="st5" width="19.8620682" height="19.8620682"/>
            </g>
          </g>
        </g>
      </g>
    </pattern>
  </defs>
  <path class="st4" d="M36.2657127,53.5902901c0-.6113014.4955254-1.1068306,1.1068306-1.1068306h27.6707153c.6113052,0,1.1068268.4955254,1.1068268,1.1068306v61.9823952c0,2.4449844-1.9822235,4.4273148-4.4273148,4.4273148h-21.0297394c-2.4450951,0-4.4273148-1.9823303-4.4273148-4.4273148,0,0,0-61.9823952-.0000038-61.9823952Z"/>
  <circle class="st4" cx="51.2078972" cy="80.7075882" r="6.0875549"/>
  <path class="st4" d="M16.8530464,2.1933465l10.8524532,4.8584905c.6769352.3030615.8700752,1.1731157.3849545,1.7341452L10.4912157,29.1397858c-.4850121.5610504-1.3738947.4955254-1.7715225-.1304951l-6.3746576-10.0370541c-.5238509-.8248081-.4449561-1.8955555.1941378-2.6346931L14.2740259,2.7658978c.639082-.7391288,1.6872492-.9718176,2.5790205-.5725513Z"/>
  <polygon class="st1" points="10.9654179 28.5912857 27.615963 9.3345776 41.0119324 20.9175625 24.3613892 40.1742744 10.9654179 28.5912857"/>
  <path class="st4" d="M108.0258255,37.0070114l-1.8094406,7.6109962c-.1715622.721653-.9903946,1.0736237-1.632019.7016182l-16.2795639-9.4386978c-.6416321-.3720093-.7430115-1.2574692-.2020035-1.7648392l5.7061462-5.351738c.7126846-.6684132,1.779335-.7904949,2.6246185-.3003941l10.5489578,6.1160069c.8452835.4901009,1.26931,1.4765091,1.0432892,2.4270477h.0000153Z"/>
  <polygon class="st2" points="81.935379 47.1175003 88.4135056 35.9441719 104.4751358 45.2564545 97.9970016 56.4297867 81.935379 47.1175003"/>
  <path class="st3" d="M58.402504,46.1780815c2.2134361-11.0683937,12.8721924-10.8349648,18.0012436-8.5388489M76.4037476,37.6392326l-5.2023163,2.7886581M76.4037476,37.6392326l-2.7893219-5.2025375"/>
  <path class="st3" d="M37.9175453,33.5759506c4.2917252,1.9670525,7.5908508,6.2134018,7.8663368,11.8261299M45.7838821,45.4020844l-4.8424835-3.3757133M45.7838821,45.4020844l3.3756065-4.8424835"/>
</svg>