<?xml version="1.0" encoding="UTF-8"?>
<svg id="Layer_1" xmlns="http://www.w3.org/2000/svg" xmlns:xlink="http://www.w3.org/1999/xlink" version="1.1" viewBox="0 0 136 83.054512">
  <!-- Generator: Adobe Illustrator 29.4.0, SVG Export Plug-In . SVG Version: 2.1.0 Build 152)  -->
  <defs>
    <style>
      .st0, .st1, .st2, .st3 {
        fill: none;
      }

      .st4 {
        fill: #569ad3;
      }

      .st1 {
        stroke-miterlimit: 3.9999999;
      }

      .st1, .st2, .st3 {
        stroke-width: 3px;
      }

      .st1, .st3 {
        stroke: #b1cbe6;
      }

      .st2 {
        stroke: url(#New_Pattern_Swatch_2);
      }
    </style>
    <pattern id="New_Pattern_Swatch_2" data-name="New Pattern Swatch 2" x="0" y="0" width="19.8620682" height="19.8620682" patternTransform="translate(2393.8156665 -18871.712931) scale(1.1457177 -1.1457177)" patternUnits="userSpaceOnUse" viewBox="0 0 19.8620682 19.8620682">
      <g>
        <rect class="st0" width="19.8620682" height="19.8620682"/>
        <g>
          <rect class="st0" width="19.8620682" height="19.8620682"/>
          <g>
            <rect class="st0" width="19.8620682" height="19.8620682"/>
            <g>
              <rect class="st0" width="19.8620682" height="19.8620682"/>
              <g>
                <rect class="st0" width="19.8620682" height="19.8620682"/>
                <g>
                  <rect class="st0" width="19.8620682" height="19.8620682"/>
                  <rect class="st4" width="19.8620682" height="19.8620682"/>
                </g>
              </g>
            </g>
          </g>
        </g>
      </g>
    </pattern>
  </defs>
  <path class="st2" d="M4.5230546,6.968874c.3603854-2.8438082,2.7904873-4.968874,5.6570277-4.968874h115.9435291c2.8998108,0,5.3459167,2.1717196,5.6690216,5.0525918,2.9548035,26.3500381,2.9307404,42.9951415.0022888,68.9538932-.3242493,2.8791885-2.77034,5.048027-5.6678696,5.048027H10.1639166c-2.8595629,0-5.2863531-2.1151047-5.6525364-4.9511108-3.3878181-26.2379646-3.312808-42.9007072.0116744-69.1345272Z"/>
  <path class="st2" d="M111.5800018,65.0100021h3.0500031c9.5599976,0,17.8600006-6.9199982,18.5700073-16.4400024.9900055-13.3499985.1799927-25.1000004-1.4700012-41.4300003-.2899933-2.9200001-2.75-5.1399999-5.6900024-5.1399999H10.1800003c-2.8699999,0-5.3000002,2.1199999-5.6700001,4.9699998-2.0999999,16.2099991-3.0799999,27.8799992-1.6799998,42.0800037.9100001,9.3199997,9.1200004,15.9599991,18.4799991,15.9599991h72.7699947"/>
  <path class="st3" d="M65.1999969,48.9099998c-3.9000015-.6399994-8.0299988-5.4099998-9.9500008-11.9500008-2.2900009-7.8400002,1.5400009-14.1199989,3.9300003-16.5599995,2.5600014.6200008,6.7100029,2.4799995,9.6499977,6.5300007"/>
  <ellipse class="st1" cx="73.1142419" cy="35.6650481" rx="15.5939021" ry="9.0244062" transform="translate(.7824025 72.8912893) rotate(-53.2360988)"/>
  <path class="st3" d="M93.7449493,52.4980812c-.0456085-.6642876.4794922-1.2322235,1.145256-1.2322235h14.943367c.5769806,0,1.0648422.4311371,1.1336899,1.003994.9393768,7.8087502.8638687,12.464035-.0017166,19.7576752-.068161.574234-.5564651,1.0069733-1.1345978,1.0069733h-14.9445114c-.6642914,0-1.1890335-.5657578-1.1450272-1.2286606.4877319-7.348175.5081177-11.9604874.00354-19.3077583Z"/>
</svg>