<?xml version="1.0" encoding="UTF-8"?>
<svg id="Layer_1" xmlns="http://www.w3.org/2000/svg" xmlns:xlink="http://www.w3.org/1999/xlink" version="1.1" viewBox="0 0 37.1067963 114">
  <!-- Generator: Adobe Illustrator 29.4.0, SVG Export Plug-In . SVG Version: 2.1.0 Build 152)  -->
  <defs>
    <style>
      .st0, .st1 {
        fill: none;
      }

      .st2 {
        fill: #d5d6d7;
      }

      .st1 {
        stroke: url(#New_Pattern_Swatch_8);
        stroke-linecap: round;
        stroke-linejoin: round;
        stroke-width: 3px;
      }
    </style>
    <pattern id="New_Pattern_Swatch_8" data-name="New Pattern Swatch 8" x="0" y="0" width="19.8620682" height="19.8620682" patternTransform="translate(1122.4870013 17665.8448388) scale(1.0679611)" patternUnits="userSpaceOnUse" viewBox="0 0 19.8620682 19.8620682">
      <g>
        <rect class="st0" width="19.8620682" height="19.8620682"/>
        <g>
          <rect class="st0" width="19.8620682" height="19.8620682"/>
          <g>
            <rect class="st0" width="19.8620682" height="19.8620682"/>
            <rect class="st2" width="19.8620682" height="19.8620682"/>
          </g>
        </g>
      </g>
    </pattern>
  </defs>
  <path class="st1" d="M4.3097754,46.1484451l-1.8612638,2.3984261c-.2907205.3746414-.4485117.8353577-.4485117,1.309536v4.8489685M4.3097754,46.1484451l-1.3306901-.857357c-.6103079-.3932266-.9790854-1.069458-.9790854-1.7954597v-4.3907089c0-.497242.173501-.9790001.4905784-1.361969l.5586934-.6749496c.3170776-.3830757.4905784-.864727.4905784-1.361969v-17.1435547c0-.6685429.3169818-1.2956505.8378475-1.7148247,4.1145768-3.3111067,5.6781259-6.2363586,6.3365455-12.0499983.0978251-.8644397.6839218-1.6094813,1.5224857-1.8413677,4.8273964-1.3349942,7.978096-1.2173584,12.6023674.0116725.8538342.2269206,1.4565907.9790108,1.5565529,1.8567891.6602116,5.7957287,2.2253113,8.7169228,6.3334351,12.0229044.5208435.4191742.8378143,1.0462818.8378143,1.7148247v17.1435547c0,.497242.1735458.9788933.4906235,1.361969l.5586472.6749496c.3170776.3829727.4906197.864727.4906197,1.361969v4.3907089c0,.7260017-.3687668,1.4022331-.9791069,1.7954597l-1.330677.857357M4.3097754,46.1484451c3.8496265,1.8600655,22.7127695,2.2321434,28.4872332,0M32.7970085,46.1484451l1.8612442,2.3984261c.2906952.3746414.4485435.8353577.4485435,1.309536v4.8489685M2,54.7053757v49.5290451c0,1.4003143.5244009,2.7792664,1.6509078,3.6112061,7.4944713,5.5341721,21.9196355,5.5395126,29.7115877.0138855,1.181057-.8372879,1.7443008-2.2576675,1.7443008-3.7055054v-49.4486275M2,54.7053757c5.0067086,4.3239632,26.5701256,4.4067307,33.1067963,0"/>
  <path class="st1" d="M9.475728,20.1553402v17.0873775"/>
</svg>