<?xml version="1.0" encoding="UTF-8"?>
<svg id="Layer_1" xmlns="http://www.w3.org/2000/svg" xmlns:xlink="http://www.w3.org/1999/xlink" version="1.1" viewBox="0 0 36.006392 36">
  <!-- Generator: Adobe Illustrator 29.4.0, SVG Export Plug-In . SVG Version: 2.1.0 Build 152)  -->
  <defs>
    <style>
      .st0, .st1 {
        fill: none;
      }

      .st2 {
        fill: #ed6b4d;
      }

      .st1 {
        stroke: url(#New_Pattern_Swatch_4);
        stroke-linecap: round;
        stroke-linejoin: round;
        stroke-width: 4px;
      }
    </style>
    <pattern id="New_Pattern_Swatch_4" data-name="New Pattern Swatch 4" x="0" y="0" width="19.862069" height="19.862069" patternTransform="translate(4053.7645663 4762.0479207) scale(1.6842093)" patternUnits="userSpaceOnUse" viewBox="0 0 19.862069 19.862069">
      <g>
        <rect class="st0" width="19.862069" height="19.862069"/>
        <rect class="st2" width="19.862069" height="19.862069"/>
      </g>
    </pattern>
  </defs>
  <path class="st1" d="M13.7894627,23.0526107l12.6315534-12.6315695"/>
  <path class="st1" d="M11.2770102,10.7223129l12.3295228-5.8274822c5.123027-2.4213877,7.6845421-3.6320818,9.3183942-2.417514,1.6338521,1.2145505,1.1669881,3.9824478.2334304,9.5182247l-1.6082495,9.5358912c-.6103575,3.6197033-.9157066,5.4293847-2.2645889,6.2186072-1.3490526.7892193-3.1014702.1830732-6.6061432-1.0292222l-10.7212203-3.7082909c-6.5542698-2.2671138-9.8314039-3.4005872-9.9546543-5.6247532-.1232672-2.2241676,3.0089912-3.7045533,9.2735089-6.6654605Z"/>
  <path class="st1" d="M13.7894627,23.8947153v3.7514074c0,3.9976391,0,5.9964587,1.1961083,6.3152804,1.1961259.3186515,2.4557461-1.3443369,4.9749863-4.6706508l1.407831-2.0276185"/>
</svg>