<?xml version="1.0" encoding="UTF-8"?>
<svg id="Layer_1" xmlns="http://www.w3.org/2000/svg" version="1.1" viewBox="0 0 36.9999984 33">
  <!-- Generator: Adobe Illustrator 29.4.0, SVG Export Plug-In . SVG Version: 2.1.0 Build 152)  -->
  <defs>
    <style>
      .st0 {
        stroke: #6e7072;
      }

      .st0, .st1 {
        fill: none;
        stroke-linecap: round;
        stroke-linejoin: round;
        stroke-width: 3px;
      }

      .st1 {
        stroke: #dad9d9;
      }
    </style>
  </defs>
  <path class="st0" d="M22.0358976,20.0354996c.9377003-.9375992,1.4645004-2.2094002,1.4645004-3.5354996,0-1.3261003-.5268002-2.5979004-1.4645004-3.5354996-.9377003-.9377003-2.2094002-1.4645004-3.5354996-1.4645004-1.3261013,0-2.5979004.5268002-3.5356007,1.4645004"/>
  <path class="st1" d="M1.5878475,17.015275c-.11713-.3318996-.11713-.6904993,0-1.0223999C3.9420674,9.3160753,10.6244977,4.5000753,18.5001977,4.5000753c7.8722992,0,14.5514011,4.8112001,16.9106998,11.4848003.1188011.3311996.1188011.6896,0,1.0223999-2.3525009,6.6767998-9.0349998,11.4927998-16.9106998,11.4927998-7.8723001,0-14.5530405-4.8111992-16.9123502-11.4848003Z"/>
  <path class="st1" d="M23.4999974,16.5000753c0,1.3261003-.5268002,2.5979004-1.4645004,3.5354996-.9375992.9377003-2.2094002,1.4645004-3.5354996,1.4645004s-2.5979004-.5268002-3.5354996-1.4645004c-.9377003-.9375992-1.4645004-2.2093992-1.4645004-3.5354996s.5268002-2.5979004,1.4645004-3.5354996c.9375992-.9377203,2.2094002-1.4645004,3.5354996-1.4645004s2.5979004.5267801,3.5354996,1.4645004c.9377003.9375992,1.4645004,2.2093992,1.4645004,3.5354996Z"/>
</svg>