<?xml version="1.0" encoding="UTF-8"?>
<svg id="Layer_1" xmlns="http://www.w3.org/2000/svg" xmlns:xlink="http://www.w3.org/1999/xlink" version="1.1" viewBox="0 0 39.9999924 40">
  <!-- Generator: Adobe Illustrator 29.4.0, SVG Export Plug-In . SVG Version: 2.1.0 Build 152)  -->
  <defs>
    <style>
      .st0, .st1 {
        fill: none;
      }

      .st2 {
        fill: #28292a;
      }

      .st1 {
        stroke: url(#New_Pattern_Swatch_1);
        stroke-linecap: round;
        stroke-linejoin: round;
        stroke-width: 4px;
      }
    </style>
    <pattern id="New_Pattern_Swatch_1" data-name="New Pattern Swatch 1" x="0" y="0" width="19.8620682" height="19.8620682" patternTransform="translate(-934.9717331 -14779.5046539) scale(1 -1)" patternUnits="userSpaceOnUse" viewBox="0 0 19.8620682 19.8620682">
      <g>
        <rect class="st0" width="19.8620682" height="19.8620682"/>
        <g>
          <rect class="st0" width="19.8620682" height="19.8620682"/>
          <rect class="st2" width="19.8620682" height="19.8620682"/>
        </g>
      </g>
    </pattern>
  </defs>
  <path class="st1" d="M24.8561001,9.7448397c-.3297997.33636-.5144005.78866-.5144005,1.2596607,0,.4710999.1846008.9233999.5144005,1.2598l2.8794003,2.8793001c.3363991.3296995.7887001.5143995,1.2596989.5143995.4710999,0,.9234009-.1847,1.2598-.5143995l5.5896015-5.5877104c.575901-.5794697,1.5531006-.3959103,1.769001.3922997.5437965,1.9775105.5129967,4.0690107-.0886002,6.0297098-.6015015,1.9605999-1.7490997,3.7095013-3.308403,5.0417004-1.5592003,1.3323002-3.4656982,2.1930008-5.4962978,2.4813995-2.0305004.2883015-4.1012001-.0075989-5.9698009-.853199l-14.2350197,14.2346992c-.71593.7157021-1.6868501,1.1176987-2.6991701,1.1175003s-1.98311-.4025002-2.6987998-1.1184006c-.7157001-.7159004-1.1176801-1.6867981-1.1175101-2.6991005.00017-1.0122986.4024701-1.9829979,1.1184101-2.698698l14.2349892-14.2347012c-.845499-1.8684998-1.1413994-3.9390993-.8530998-5.9696999.2884007-2.0304995,1.1490002-3.9369097,2.4814014-5.49613,1.3322983-1.5592198,3.0811996-2.7067599,5.0418987-3.3083298,1.960701-.60157,4.0522003-.6323,6.0298004-.0885901.7882004.21595.9717999,1.1913302.3941002,1.7707899l-5.5914001,5.5876999Z"/>
</svg>