<?xml version="1.0" encoding="UTF-8"?>
<svg id="Layer_1" xmlns="http://www.w3.org/2000/svg" version="1.1" viewBox="0 0 147.7076924 240.3627444">
  <!-- Generator: Adobe Illustrator 29.4.0, SVG Export Plug-In . SVG Version: 2.1.0 Build 152)  -->
  <defs>
    <style>
      .st0 {
        fill: #dad9d9;
      }
    </style>
  </defs>
  <path class="st0" d="M81.2823028,29.5976993c-.6854019,1.285099.0934982,2.3754997.1167984,3.6684017.0156021.3893967-.031105.7709999-.1167984,1.1448975-.2257996,1.3083992-1.3318024,2.6870003-.3427048,3.1543007,1.2384033.5139999,3.0609055-.0312004,4.4472046-.0390015,4.4627991-.5061989,8.4972,1.721302,13.1701965,1.9705009,4.0810013.1869011,9.7040024-.6309013,11.3789978,4.1590004,1.5730057,4.1902008-2.0799942,7.5470009-4.1049957,10.8569984-3.0060043,4.4239006-5.2649994,9.2371025-8.7304001,13.1780052-1.5654984,1.8302994-3.8319016,3.1231995-4.9846039,5.2571945-.8800964,1.4175034-.0700989,3.6450043-.0778961,4.828804-.2181015,2.2897949-6.1295013,1.7523956-8.0065002,3.403595-1.9626999,1.215004-1.4096985,3.1931992,1.1215973,3.3646011,1.8069.2024994,3.6138-.3660965,5.3816986.0856018,1.4253006.319397,2.9285049,1.1682968,4.3927002,2.1417999,11.2074051,6.2386017,7.5934067,24.1986008,12.9134064,35.9906006,3.1619949,7.2579956,11.8769989,10.6150055,13.3409958,18.9570007.4440002,2.2579956.1949997,4.5789948.6470032,6.8150024.2879944,1.946991,1.6349945,3.5979919,2.1419983,5.4440002.3730011,1.7440033-1.7919998,1.9859924-1.4329987,4.1429901,1.3079987,4.1670074,5.0540009,8.9179993,3.1769943,12.7730103-.5999985,1.5500031-1.6429977,3.1149902-1.923996,4.7429962-.2490005,1.3869934.0629959,2.6949921,1.4570007,2.9210052,1.6819992.2569885,3.5200043-1.6360016,6.0130005-1.8380127,6.8609924-.5219879,14.5169983,4.6110077,16.1529999,11.0279999,1.2379913,4.9850006-1.651001,10.9740143-4.6809998,14.5020142-2.1110077,2.1109924-4.3460083,5.0079956-6.5350037,6.5970001-1.6199951,1.0899963-2.9360046,2.5079956-4.1819916,4.0029907-1.1060028,1.6199951-4.7740097,3.4580078-3.6140137,5.125,1.9470062,2.7100067,6.0910034,2.6869965,8.6610107,4.2290039,2.8499908,2.0950012-.5220032,5.4129944-2.7880096,6.4490051-2.3759918,1.3709869-3.8869934,3.1699982-6.0679932,4.0649872-1.7750015.779007-3.7689972.9970093-5.6539993,1.5350037-1.8850021.5220032-3.8470001,1.4020081-5.6780014,1.5189972-2.086998.1320038-4.0419998-.6859894-6.0820007-1.1920013-3.6449966-1.1609955-7.9599991-.5449982-11.2779999-.996994-1.7523956-.2100067-3.5982971-.927002-5.3039017-1.1990051-2.7259979-.6940002-1.6433945,2.5620117-3.8396988,3.053009-3.1542969.1869965-5.7789993-3.2089996-9.0112-2.32901-1.6822968.4360046-3.1932983,1.4720001-4.9845963,1.3160095-3.3412018-.3580017-7.4300995-1.572998-10.4287033-3.4029999-3.1543007-1.9710083-7.469101-2.4620056-10.7635002-.4909973-4.1044998,2.0639954-5.7244987,10.3349915-11.4801979,7.5779877-8.4971008-5.4669952-14.3696022-3.9949951-21.8153019,1.9240112-1.5186996.7480011-2.7025986.0930023-4.3303986-.6699982-1.1682014-.5370026-3.4113007-1.3860016-4.1122007-2.1110077-.3037996-.4440002.1712999-1.0740051,1.2383003-1.7050018,1.627799-.973999,3.6449995-1.4100037,5.3429003-2.2819977,3.1308994-1.4649963,5.5764999-4.470993,8.5049-6.5740051,1.6978989-1.2929993,3.598299-2.3669891,5.0935993-3.8779907.8022003-.8099976,1.4096985-1.7920074,2.0639992-2.7190094,1.6355019-2.397995,3.8474007-3.394989,5.9580994-4.9059906,1.2150002-.7709961,2.2975998-1.7920074,3.6450005-2.3370056,3.4501991-1.3240051,8.7074013,1.2539978,12.5082016,1.9160004,2.1105995.4129944,3.6604996.6620026,5.2259979-.2259979,1.9393005-1.1990051,4.2758026-4.276001,4.6341019-5.9889984.3815994-3.2089996-6.8927994.9889984-8.9411011.2409973-3.2710991-.1159973-5.3428993-2.9360046-7.1886978-5.1549988-1.3007011-1.3009949-3.0063019-1.4649963-4.6184998-1.9320068-2.0795021-.3819885-2.243103-2.2039948-3.6840019-3.3409882-2.764801-2.0870056-8.4814987.2569885-11.5112-1.9240112-2.0249996-1.5339966-2.5545998-5.1640015-.8099995-7.1259918,1.0903988-1.3170013,2.8426991-1.9160004,4.5405979-2.352005,7.8118019-1.970993,13.8322029-2.5159912,16.2466011-10.3359985.9113007-3.302002,2.9673996-11.8609924-2.9361992-10.7480011-1.1604996.102005-2.5079002.6309967-3.5749016.2810059-.1401978-.0780029-.2024994-.1950073-.2024994-.3590088.6931992-2.4609985,5.1637993-3.8470001,4.4316025-6.9779968-.3660011-1.7839966-2.679203-3.8159943-1.2072029-5.576004,3.1543007-2.5779877,6.4411011,1.2850037,9.4863014,2.2970123,1.6590004.5759888,3.4425011.4989929,5.1870995.5999908,7.6481972,1.0899963,8.6841011,2.1419983,10.9817009-5.8099976.7554016-2.8659973.8099976-5.4210052,2.1417999-7.9210052.7709961-1.6199951,2.3209-3.2709961,2.5700989-5.0159912.1635971-1.4560089-.9189987-1.6040039-2.0404968-1.4799957-1.1604996.0939941-2.1963043.272995-2.9440002-.6070099-1.3318024-1.6589966-2.7416-7.1269989-3.4580994-10.2189941-.6620026-2.7570038.5840988-5.0310059,2.4143982-7.0950012,2.7103958-3.0220032,4.3381958-6.5419998-1.4720001-4.7350006-1.5654984.4749985-3.0920029,1.159996-4.711998,1.4169998-1.9549026.3740005-4.0032043-.5210037-5.2572021-.6539993-.5062027-.0620041-1.0124016.0159988-1.4641991.2259979-2.3988037,1.8150024-3.699501.0469971-5.8335037-1.1139984-1.6510963-.9580002-3.6604996-.5530014-4.7742996-1.5960007-2.0249977-1.8769989-1.1604996-5.2340012.4829025-7.1350021,2.3364983-3.223999,6.3085976-7.0246964,8.0375977-10.5839996,1.0046997-2.819397-1.542099-5.3740005-2.9673996-7.6092987-1.2460976-1.5888977-2.3675995-2.842804-4.1823006-2.1340027-.9891968.4749985-2.3754997,1.5887985-2.1184998,2.7960052.3038025.9111938,2.500103,1.1371002,2.9908028,2.905098.2958984.9656982.093399,3.0764008-1.3474007,2.6948013-.9813995-.264801-1.9860992-1.2851028-2.9752007-1.565506-.7243004-.1946945-1.2616997.3738022-1.6511002.9268036-.8879013,1.2149963-1.9393997,3.0218964-3.3880005,3.0297012-2.5233994-.9657974,1.7835007-6.697998,2.1808014-8.5361023,1.2226982-3.1776962,1.0513992-5.9036026,2.0093994-8.762001,1.2150002-3.4813995.8801003-4.2445984-2.2042007-.8566971-2.3597984,2.7492981-4.2602005,5.927002-7.1730995,7.8663025-2.1339989,1.5654984-4.0811005-1.7134018-3.6138-3.8241043.257-1.1837997,1.2383995-1.7289963,2.5000992-2.2430954,2.6557999-.7476044,5.3506012-1.3474045,7.3288994-3.4736023,2.679203-2.8661041,6.5811996-5.5998993,6.5890007-9.4006042-.5607986-1.7834969-2.6637001.1402054-3.9642982.5686035-1.7835999.8799973-4.0578003,1.2382965-5.9036026.3972015-.9813995-.4985046-.2102966-1.362999.1713028-2.9752007.4049988-1.5888023.7010002-3.3802032,1.7445984-4.6653023.7943993-.9813004,1.3317986-1.6044006,1.9626999-2.585701,1.0125008-1.6433983,2.9595985-1.8848,4.5718002-4.011097.9968987-1.4407997,1.9626999-3.4736023,2.2585983-5.1014023.0156021-.257-.0700989-.4049988-.2258987-.4906006-.6541977-.241497-1.5108986-.3115997-2.1806984-.584198-.9658012-.3036995-1.5577011-1.6122017-3.2400017-3.0764008-2.5545998-2.2508011-5.669899-5.7868004-5.0312996-9.3382988.4361992-1.5109024,2.4845009-1.4253006,3.7150993-2.149601,2.9127998-.6931992,4.7665024,1.6823006,5.7478027,4.4315987.3426971.9035034,1.7056999,5.8803024,2.990799,4.4628029.5061989-.8255997.3270988-2.7649002.3971977-3.8864021.0701027-1.4953995.6464005-2.9440994,1.0046997-4.4004974.5608025-2.0172024.9346008-4.641901,2.8817024-5.5609016,1.199398-.6231003,2.8115997-.4361992,4.0421982-.8022003,2.5156021-.7789001,1.5343018-4.0422001,2.4222031-5.927,1.2304955-2.2430992,2.9595985-3.855299,4.4238014-6.2697001,2.1106949-4.6340895,3.7929001-5.2026396,8.7229996-3.1620998,4.945694,1.8926001,10.5688934,1.1915998,15.8727951,1.3708,2.9673996.0545006,6.0750046,1.6433001,4.213501,4.9534006-2.0327988,3.8241005-8.1699982,7.5002995-12.1733017,10.1949997-.9734955.6854-2.0326996,1.4953995-2.6091003,2.4377995l-.062294.1168003v.0156002Z"/>
  <path class="st0" d="M35.1906013,97.2780982c1.1136971,1.362999.934597,4.1278992,1.6121979,6.3009033.3738022,1.510994,1.0825996,2.935997,1.4097023,4.4469986.2803001,1.3399963.0233002,3.0999985.4672966,4.1439972.700901,1.8059998,2.6480026,2.8970032,3.0297012,4.9300003.7243004,5.0390015-3.699501,7.6559982-7.9131012,10.125-2.3831978,1.6510086-5.1636982,1.814003-7.9207973,1.1830063-2.1262016-.451004-3.9331017-.3659973-4.8132-1.8840027-.9113007-2.8740005-2.0406017-7.2509995-4.8600006-8.7080002-2.3987999-.6460037-3.9565001,2.6090012-6.0749006,3.2949982-1.9471493.7939987-3.9954996-.4369965-6.0049095-1.7450027-1.97826-1.2689972-2.9206501-3.2869949-3.6839191-5.4990005-1.308453-3.4189987.506247-3.6759949,2.858349-5.6769943,1.0124903-.989006,1.5187402-2.2509995,2.9050698-2.8430023,1.0670204-.5299988,2.6792207-.8720016,3.8397098-1.8619995,1.5732002-1.2070007,2.3054008-3.201004,3.9253006-4.3454971,1.8458996-1.3396072,4.7509995-1.2851028,7.4302006-2.2898026,4.1745987-1.8146973,10.0781994-3.084198,13.6919975.3038025l.1013031.1245956Z"/>
  <path class="st0" d="M36.9901008,26.1311999c.4438972-.8956013,1.4641991-1.5810013,1.8381004-2.5234013.4204979-1.1993999-.9813995-2.484499-.9191017-4.1901989.0545006-1.6667004.7633018-3.3957005,1.6823006-4.7743006.9346008-1.4720001,4.4160004-2.4144001,6.6669006-3.4034996,2.4922981-.9502001,7.8740997-3.9798803,6.5500984,1.0046997-.7087975,2.4766998-2.733799,4.3070002-3.8787003,6.7214003-1.285099,2.8349991-2.7180977,5.8957996-6.0125999,6.6824989-2.1263008.6697998-3.8863983,1.9626007-5.5219994,1.6198997-.5530014-.1245995-.7088013-.5139999-.4594994-1.035799l.0545006-.1091003v.0078011Z"/>
  <path class="st0" d="M101.5479964,1.4895191c.2100067.8645099-1.7601929,1.8458501-1.5339966,2.6402699.2959976.7866302,2.8270035.9579802,2.913002,2.0795102.0699997.7866302-.6160049,1.9704704-.9580002,2.7415199-.3899994.8099899-.8880005,1.3629799-1.8000031,1.3395796-1.5494995-.1790991-4.4311981.0468006-5.8253021-.8021793-.5685959-.5529804-.4049988-1.4408598-.327095-2.2041202.5217972-3.9798801,2.9283981-8.42706,6.2544022-7.0173601.5139999.202499,1.159996.576342,1.260994,1.10595l.0159988.13241v-.0155801Z"/>
  <path class="st0" d="M29.8553008,43.5390998c-.4517002.4361-.9736004.257-1.3318005-.2336998-1.892601-3.5515022,1.3318005-7.5625,1.7290001-11.519001.1791-1.105999.1868992-2.227499.9813004-3.0764999,9.7432995-7.6170006-.6698017,9.2293015-.5841007,12.5471992-.1324005.7321014-.3192997,1.6667023-.7164993,2.1884995l-.0778999.1013031v-.0078011Z"/>
</svg>