<?xml version="1.0" encoding="UTF-8"?>
<svg id="Layer_1" xmlns="http://www.w3.org/2000/svg" version="1.1" viewBox="0 0 506.4712959 513.1795849">
  <!-- Generator: Adobe Illustrator 29.4.0, SVG Export Plug-In . SVG Version: 2.1.0 Build 152)  -->
  <defs>
    <style>
      .st0 {
        fill: #444445;
      }

      .st1 {
        opacity: .3;
      }

      .st1, .st2 {
        fill: #32a2fe;
      }

      .st3 {
        opacity: .9;
      }

      .st4 {
        fill: #e7f5fb;
      }
    </style>
  </defs>
  <g>
    <path class="st2" d="M401.6031318,72.0390625c-.7089844-.5664062-1.2451172-1.2133789-1.6103516-1.940918-.3662109-.7280273-.5429688-1.5048828-.5302734-2.3320312l1.7988281-.2001953c-.0517578.5561523.0449219,1.1074219.2910156,1.6538086.2460938.546875.6191406,1.0200195,1.1181641,1.4194336.4892578.3916016.9814453.6357422,1.4765625.7324219.4941406.0966797.9736328.0576172,1.4384766-.1176758.4638672-.1748047.8710938-.480957,1.2207031-.918457.3583984-.4472656.5673828-.9121094.6279297-1.3930664.0595703-.480957-.0195312-.9584961-.2382812-1.4321289s-.5830078-.9145508-1.0927734-1.3222656c-.1777344-.1420898-.3730469-.2763672-.5859375-.4047852-.2138672-.1279297-.4248047-.2324219-.6328125-.3134766l1.2998047-.34375c.2724609.0639648.5439453.1621094.8144531.293457.2705078.1308594.5205078.2880859.75.4711914.5830078.4663086.9980469,1.0205078,1.2451172,1.6616211s.3125,1.3168945.1972656,2.0268555c-.1162109.7104492-.4316406,1.3881836-.9472656,2.0336914-.5498047.6875-1.1992188,1.1630859-1.9472656,1.4262695-.7490234.2636719-1.5283203.3144531-2.3378906.1533203-.8105469-.1611328-1.5957031-.5458984-2.3554688-1.1533203ZM404.8843818,65.4697266l.7119141-.890625,6.0566406-1.0722656,1.7490234,1.3989258-6.2119141,1.0756836-2.3056641-.5117188ZM406.457624,60.0439453l1.0498047-1.3120117,6.6064453,5.2836914-.7119141.8901367-1.6181641-.6025391-5.3261719-4.2592773Z"/>
    <path class="st2" d="M407.5923897,81.8974609l9.0439453-9.996582,1.3339844,1.2075195-1.6767578,1.8540039-1.7949219,1.4775391-1.3046875,1.9487305-4.2666016,4.7163086-1.3349609-1.2075195ZM413.8365303,82.4487305c-.5341797-.4829102-.9150391-1.0302734-1.1445312-1.6420898-.2285156-.6113281-.2929688-1.2314453-.1923828-1.859375s.3642578-1.2075195.7910156-1.7387695l1.9189453-2.1210938c.4941406-.4868164,1.0498047-.8076172,1.6650391-.9609375.6152344-.1538086,1.2392578-.1469727,1.8701172.0195312.6318359.1665039,1.2089844.4868164,1.7333984.9609375.6425781.581543,1.0761719,1.2700195,1.2998047,2.065918s.2333984,1.6049805.0292969,2.4272461-.6191406,1.5791016-1.2451172,2.2709961c-.6269531.6923828-1.3388672,1.1811523-2.1357422,1.4663086-.7978516.2856445-1.6015625.3540039-2.4111328.2055664-.8095703-.1479492-1.5361328-.5126953-2.1787109-1.0942383ZM414.754499,80.9868164c.4453125.4023438.9296875.6518555,1.453125.7485352.5244141.0961914,1.0458984.0517578,1.5654297-.1352539.5185547-.1860352.9931641-.5170898,1.4228516-.9916992.4199219-.4643555.6972656-.9643555.8310547-1.5.1337891-.5351562.1259766-1.059082-.0224609-1.5703125-.1484375-.512207-.4443359-.9692383-.8896484-1.371582-.4345703-.3935547-.9150391-.6386719-1.4384766-.7353516-.5244141-.0961914-1.0429688-.0493164-1.5576172.1420898-.5146484.190918-.9863281.5234375-1.4150391.9980469-.4208984.4648438-.703125.9604492-.8466797,1.4868164s-.1386719,1.0478516.0146484,1.5639648.4472656.9711914.8828125,1.3647461Z"/>
    <path class="st2" d="M418.7535225,86.7597656l6.5947266-6.8378906,1.3105469,1.2631836-6.5957031,6.8378906-1.3095703-1.2631836ZM427.3296943,79.1928711c-.2402344-.2314453-.3603516-.5004883-.3613281-.8066406-.0009766-.3066406.1142578-.5795898.3457031-.8198242.2226562-.2299805.4863281-.3505859.7929688-.3608398.3056641-.0102539.5791016.1005859.8193359.3320312.2392578.230957.3603516.5.3613281.8066406,0,.3061523-.1103516.574707-.3320312.8051758-.2314453.2402344-.5009766.3647461-.8066406.3754883-.3066406.0097656-.5800781-.1005859-.8193359-.3320312Z"/>
    <path class="st2" d="M421.9068428,89.8344727l10.0927734-10.1025391,1.2734375,1.2724609-10.0927734,10.1020508-1.2734375-1.2719727Z"/>
    <path class="st2" d="M424.9947334,92.949707l10.2695312-9.9228516,1.2509766,1.2944336-10.2695312,9.9228516-1.2509766-1.2944336Z"/>
    <path class="st2" d="M430.5855537,99.184082c-.5917969-.6518555-.9619141-1.3828125-1.1103516-2.1923828-.1494141-.8095703-.0839844-1.6157227.1962891-2.4189453.2802734-.8027344.765625-1.5170898,1.4570312-2.144043s1.4501953-1.0405273,2.2773438-1.2407227c.8261719-.2001953,1.6376953-.1884766,2.4335938.0341797.7958984.2231445,1.4892578.6606445,2.0800781,1.3129883.484375.5332031.8046875,1.1103516.9628906,1.7319336s.1591797,1.2373047.0019531,1.8481445c-.1582031.6103516-.4794922,1.1635742-.9667969,1.6586914l-2.1181641,1.9208984c-.53125.4267578-1.1083984.6938477-1.7314453.7998047-.6240234.1064453-1.2392578.0478516-1.8466797-.175293-.6074219-.2236328-1.1523438-.6015625-1.6357422-1.1352539ZM432.0464912,98.2646484c.5996094.6616211,1.3076172.9916992,2.125.9892578.8164062-.0024414,1.5751953-.3217773,2.2763672-.9575195.4746094-.4296875.8085938-.9042969,1.0048828-1.4233398.1943359-.519043.2441406-1.0356445.1464844-1.550293s-.3476562-.9941406-.7509766-1.4384766c-.4023438-.4443359-.8623047-.7431641-1.3789062-.8959961s-1.0419922-.1621094-1.5771484-.027832-1.0351562.4121094-1.4990234.8325195c-.4746094.4301758-.8046875.9047852-.9902344,1.4243164-.1865234.5195312-.2265625,1.0458984-.1201172,1.5795898.1054688.5341797.3603516,1.0234375.7636719,1.4677734ZM432.8560615,101.3911133l1.8964844-1.7192383,1.9472656-1.3066406,1.4755859-1.7963867,1.71875-1.5581055,1.2226562,1.3481445-7.0390625,6.3803711-1.2216797-1.3481445Z"/>
    <path class="st2" d="M435.6812568,104.628418l7.2861328-6.0966797,1.1552734,1.3808594-7.2861328,6.0961914-1.1552734-1.3803711ZM440.9781318,102.543457l-.1914062-.7265625c.9306641-.7788086,1.8515625-1.1845703,2.7636719-1.2172852.9111328-.0322266,1.7050781.3549805,2.3808594,1.1630859.3085938.3681641.5224609.7539062.6425781,1.1572266.1201172.4038086.1396484.8574219.0566406,1.3613281l-1.6923828-.1220703c.0351562-.2905273.0117188-.5576172-.0712891-.8017578-.0820312-.2436523-.2265625-.4882812-.4316406-.7338867-.4277344-.5112305-.9423828-.793457-1.5429688-.847168-.6015625-.0532227-1.2392578.2026367-1.9140625.7670898Z"/>
    <path class="st2" d="M442.6509834,113.4912109c-.328125-.4204102-.5849609-.862793-.7705078-1.3271484s-.296875-.9316406-.3339844-1.4013672c-.0371094-.4702148-.0039062-.9316406.0986328-1.3842773l1.6289062.199707c-.1230469.5361328-.1269531,1.0458984-.0097656,1.5307617.1152344.484375.3466797.9472656.6914062,1.3881836.3447266.4414062.6875.7231445,1.0283203.8461914.3408203.1225586.6484375.0771484.921875-.1362305s.4101562-.4770508.4101562-.7905273-.0683594-.6611328-.2060547-1.0439453c-.1386719-.3828125-.2939453-.7817383-.4658203-1.1972656-.1728516-.4150391-.2988281-.8369141-.3789062-1.2646484-.0810547-.4277344-.0576172-.8476562.0683594-1.2597656.1269531-.4116211.4160156-.7939453.8681641-1.1469727.4511719-.3530273.9267578-.5512695,1.4257812-.5942383.5-.043457.9941406.0649414,1.4853516.324707.4902344.2592773.953125.6674805,1.3886719,1.2246094.4589844.5883789.765625,1.190918.9179688,1.8081055.1513672.6171875.1376953,1.2329102-.0419922,1.847168l-1.6279297-.199707c.1005859-.434082.1054688-.8608398.0146484-1.2807617-.0917969-.4194336-.2890625-.8237305-.5927734-1.2124023-.3193359-.409668-.6376953-.6650391-.953125-.7651367-.3154297-.1005859-.59375-.0561523-.8349609.1323242-.2529297.1972656-.3730469.4438477-.3613281.7392578.0107422.2958984.0898438.6357422.2373047,1.0195312s.3027344.7827148.4658203,1.1972656c.1630859.4140625.2792969.8393555.3496094,1.2753906.0693359.4360352.0390625.8618164-.0927734,1.277832s-.4287109.8046875-.8916016,1.1660156c-.703125.5498047-1.4550781.7353516-2.2548828.5566406-.7998047-.1791992-1.5283203-.6889648-2.1845703-1.5292969Z"/>
    <path class="st2" d="M450.8316475,124.5908203c-.5253906-.7558594-.8203125-1.5654297-.8847656-2.4296875-.0654297-.8642578.0859375-1.6918945.4541016-2.4833984.3671875-.7910156.9335938-1.453125,1.7001953-1.9858398.7558594-.5249023,1.5625-.8178711,2.421875-.8789062.8583984-.0610352,1.6816406.0888672,2.46875.4511719.7880859.3618164,1.4443359.9208984,1.96875,1.6762695.5332031.7661133.8359375,1.5825195.9101562,2.4482422.0742188.8662109-.0693359,1.6928711-.4316406,2.4804688-.3623047.7871094-.9208984,1.4433594-1.6757812,1.96875-.7666016.5327148-1.5849609.8330078-2.4541016.9018555-.8701172.0688477-1.7001953-.0810547-2.4912109-.4482422-.7919922-.3676758-1.4541016-.9345703-1.9863281-1.7006836ZM452.2603584,123.5976562c.3496094.503418.7734375.8666992,1.2695312,1.090332s1.0195312.3056641,1.5722656.2470703c.5517578-.059082,1.0849609-.2670898,1.5996094-.6245117.5029297-.3500977.8740234-.7744141,1.1123047-1.2729492s.3378906-1.0141602.2998047-1.5478516-.2314453-1.0527344-.5820312-1.5561523c-.3349609-.4819336-.7480469-.8364258-1.2382812-1.0634766-.4912109-.2275391-1.0087891-.3134766-1.5556641-.2583008-.5458984.0546875-1.0712891.2573242-1.5751953.6074219-.5146484.3579102-.8955078.784668-1.1425781,1.2817383-.2480469.496582-.3535156,1.0161133-.3164062,1.5595703.0361328.5429688.2216797,1.0551758.5566406,1.5371094Z"/>
    <path class="st2" d="M455.5709053,131.2875977l9.1992188-5.8833008c.5839844-.3730469,1.1835938-.574707,1.7978516-.6035156.6142578-.0292969,1.1982422.1040039,1.7509766.3994141s1.0234375.7460938,1.4111328,1.3530273c.2949219.4604492.4707031.9091797.5292969,1.3466797.0585938.4379883.0253906.894043-.0976562,1.3686523l-1.6132812-.3691406c.0634766-.246582.0771484-.4848633.0410156-.7148438s-.1367188-.4741211-.3017578-.7324219c-.3095703-.4833984-.6855469-.7685547-1.1298828-.8564453s-.9130859.0258789-1.4072266.3417969l-9.1992188,5.8837891-.9804688-1.5336914ZM460.941999,125.0986328l1.3818359-.8837891,3.8574219,6.0322266-1.3818359.8833008-3.8574219-6.0317383Z"/>
    <path class="st2" d="M462.9664131,143.8852539c-.4316406-.7666016-.6308594-1.5610352-.5976562-2.3837891.0332031-.8222656.2753906-1.5942383.7265625-2.3149414.4501953-.7211914,1.0820312-1.3110352,1.8955078-1.7695312.8125-.4580078,1.6445312-.6938477,2.4951172-.7060547.8496094-.0126953,1.6386719.1777344,2.3652344.5717773.7275391.3935547,1.3066406.9736328,1.7392578,1.7402344.3535156.6269531.5390625,1.2607422.5556641,1.9018555.0175781.6411133-.1181641,1.2416992-.4072266,1.8027344-.2880859.5605469-.7246094,1.0283203-1.3085938,1.4038086l-2.4912109,1.4047852c-.6123047.2993164-1.234375.4316406-1.8652344.3974609-.6318359-.0341797-1.2197266-.2275391-1.7617188-.5795898-.5429688-.3520508-.9912109-.8413086-1.3457031-1.46875ZM464.5953193,143.3115234c.4384766.7783203,1.0556641,1.2563477,1.8535156,1.4345703.796875.1782227,1.6074219.0351562,2.4316406-.4301758.5576172-.3144531.9892578-.703125,1.2949219-1.1660156.3046875-.4628906.4667969-.9560547.4853516-1.4794922s-.1191406-1.0463867-.4140625-1.5688477c-.2939453-.5224609-.6767578-.9155273-1.1464844-1.1787109s-.9804688-.3881836-1.5322266-.3759766c-.5517578.0126953-1.1005859.1728516-1.6464844.4804688-.5566406.3144531-.984375.7045898-1.2802734,1.1699219-.2958984.4658203-.4511719.9702148-.4658203,1.5141602-.015625.5439453.125,1.0776367.4199219,1.6000977ZM464.6929756,146.5395508l2.2304688-1.2573242,2.1875-.8432617,1.8369141-1.4257812,2.0205078-1.1396484.8935547,1.5854492-8.2744141,4.6660156-.8945312-1.5854492Z"/>
    <path class="st2" d="M468.3716865,153.9672852c-.3896484-.7744141-.5478516-1.5683594-.4726562-2.3823242.0742188-.8139648.3535156-1.5708008.8378906-2.2700195.4833984-.699707,1.1425781-1.2587891,1.9755859-1.6791992.8330078-.4199219,1.6748047-.6166992,2.5253906-.5893555.8496094.0268555,1.6269531.2509766,2.3320312.671875s1.2519531,1.0185547,1.6425781,1.7924805c.3242188.6430664.4814453,1.2880859.4707031,1.9350586-.0097656.6469727-.1699219,1.246582-.4814453,1.7993164s-.7675781,1.0029297-1.3681641,1.3505859l-2.5537109,1.2875977c-.625.2700195-1.2548828.3706055-1.8867188.3012695-.6318359-.0698242-1.2109375-.2929688-1.7373047-.6699219-.5253906-.3769531-.9541016-.8930664-1.2841797-1.5473633ZM470.0250068,153.4697266c.2705078.5356445.6318359.9428711,1.0859375,1.2216797s.9550781.421875,1.5039062.4291992c.5488281.0068359,1.1025391-.1303711,1.6630859-.4125977.5712891-.2880859,1.0166016-.6547852,1.3378906-1.1000977.3203125-.4453125.5039062-.9335938.5498047-1.4638672.0458984-.53125-.0664062-1.0644531-.3359375-1.6000977-.2705078-.5356445-.6298828-.9448242-1.078125-1.2265625s-.9472656-.4287109-1.4990234-.4418945-1.1132812.1240234-1.6845703.4121094-1.0195312.659668-1.3427734,1.1137695-.5039062.9482422-.5410156,1.4819336.0761719,1.0625.3408203,1.5864258ZM470.8101631,158.3598633l-.8193359-1.6254883,2.2861328-1.1523438,2.2246094-.7407227,1.9003906-1.3388672,6.3408203-3.1958008.8193359,1.6254883-12.7519531,6.4277344Z"/>
    <path class="st2" d="M473.3160225,164.3168945c-.3535156-.7915039-.4746094-1.5917969-.3613281-2.4013672.1123047-.8100586.4267578-1.5527344.9423828-2.2285156.515625-.6762695,1.1992188-1.2045898,2.0517578-1.5854492.8515625-.3808594,1.7021484-.5380859,2.5498047-.4711914.8476562.0664062,1.6132812.3261719,2.2978516.7797852.6845703.453125,1.2041016,1.0756836,1.5576172,1.8671875.2939453.6572266.4208984,1.3085938.3808594,1.9545898-.0400391.6455078-.2285156,1.237793-.5644531,1.7749023-.3369141.5375977-.8134766.9663086-1.4306641,1.2856445l-2.6103516,1.1669922c-.6376953.2407227-1.2705078.3120117-1.8984375.2128906-.6289062-.0986328-1.1962891-.3486328-1.7041016-.7495117-.5078125-.4013672-.9121094-.9365234-1.2109375-1.605957ZM474.9908272,163.8969727c.2441406.5478516.5869141.9716797,1.0273438,1.2714844.4414062.2993164.9345703.4658203,1.4824219.4980469.5478516.0327148,1.1074219-.0786133,1.6796875-.3344727.5849609-.2607422,1.046875-.6064453,1.3886719-1.0361328.3408203-.4301758.5458984-.9091797.6171875-1.4370117.0703125-.5283203-.0166016-1.0664062-.2617188-1.6142578-.2441406-.5473633-.5849609-.9726562-1.0185547-1.2749023-.4345703-.3022461-.9277344-.4731445-1.4775391-.5117188-.5507812-.0385742-1.1181641.0722656-1.7021484.3334961s-1.0488281.6113281-1.3925781,1.0498047c-.3447266.4384766-.5478516.9238281-.609375,1.4550781-.0625.5317383.0263672,1.0649414.2666016,1.6005859ZM475.5474678,168.8183594l-.7431641-1.6616211,2.3369141-1.0444336,2.2568359-.6362305,1.9609375-1.2490234,6.4824219-2.8969727.7421875,1.6611328-13.0361328,5.8271484Z"/>
    <path class="st2" d="M476.4742256,171.1342773l8.7939453-3.5947266.6884766,1.6845703-8.7929688,3.5952148-.6894531-1.6850586ZM487.3755928,167.6723633c-.1269531-.3085938-.1279297-.6035156-.0048828-.8842773.1220703-.2807617.3378906-.4838867.6464844-.6098633.296875-.1210938.5869141-.125.8710938-.0107422s.4892578.3256836.6162109.6342773c.1259766.3085938.1269531.6030273.0048828.8837891-.1230469.2807617-.3330078.4819336-.6289062.6030273-.3085938.1259766-.6054688.1318359-.8896484.0175781s-.4892578-.3256836-.6152344-.6337891Z"/>
    <path class="st2" d="M479.4761787,179.3271484c-.328125-.8740234-.4189453-1.7407227-.2724609-2.6005859.1474609-.8598633.4970703-1.6254883,1.0498047-2.2958984s1.2597656-1.1674805,2.1210938-1.4912109c.8730469-.328125,1.7363281-.4208984,2.5878906-.2783203.8505859.1430664,1.6113281.4912109,2.2822266,1.0439453s1.1708984,1.265625,1.4990234,2.1396484c.2578125.6860352.3691406,1.3710938.3339844,2.0537109-.0361328.6826172-.2167969,1.3276367-.5449219,1.9350586l-1.5449219-.7011719c.2207031-.3964844.3408203-.8261719.359375-1.2890625s-.0595703-.9248047-.2324219-1.3867188c-.2109375-.5615234-.5273438-1.0126953-.9462891-1.3535156-.4208984-.3408203-.9023438-.5512695-1.4453125-.6318359-.5429688-.0810547-1.1083984-.0112305-1.6943359.2094727-.5869141.2202148-1.0576172.5395508-1.4130859.9580078s-.5830078.8955078-.6806641,1.4306641c-.0976562.5356445-.0410156,1.0839844.1699219,1.6455078.1777344.4746094.4257812.8764648.7412109,1.206543.3164062.3295898.6904297.5771484,1.1230469.7421875l-.7080078,1.5268555c-.6289062-.2333984-1.1855469-.5981445-1.6708984-1.0922852-.484375-.4941406-.8564453-1.0849609-1.1142578-1.7709961Z"/>
    <path class="st2" d="M481.941999,185.6464844l12.7744141-4.3046875.5742188,1.7055664-12.7734375,4.3051758-.5751953-1.7060547ZM488.6431709,180.9189453l1.5537109-.5234375,2.0703125,6.140625-1.5546875.5234375-2.0693359-6.140625Z"/>
    <path class="st2" d="M483.7554756,191.1806641l9.0722656-2.8188477.5400391,1.737793-9.0722656,2.8188477-.5400391-1.737793ZM494.9146553,188.6762695c-.0986328-.3183594-.0742188-.6118164.0722656-.8808594s.3789062-.453125.6972656-.5517578c.3056641-.0952148.5957031-.0732422.8691406.0649414.2734375.1386719.4589844.3671875.5585938.6855469.0986328.3178711.0742188.6118164-.0722656.8808594-.1464844.2685547-.3730469.4511719-.6787109.5458984-.3183594.0991211-.6142578.0791016-.8876953-.0595703-.2734375-.1381836-.4589844-.3666992-.5585938-.6850586Z"/>
    <path class="st2" d="M486.02696,199.5791016c-.2441406-.8867188-.2548828-1.7490234-.0292969-2.5854492.2255859-.8374023.6425781-1.5678711,1.2519531-2.1923828.6083984-.625,1.3632812-1.0615234,2.2626953-1.3100586.8867188-.2451172,1.7451172-.2539062,2.5761719-.0268555.8300781.2270508,1.5566406.6416016,2.1796875,1.2446289.6230469.6020508,1.0566406,1.347168,1.3017578,2.2338867.2480469.8994141.2636719,1.7700195.046875,2.6118164-.2167969.8413086-.6269531,1.5737305-1.2294922,2.1967773-.6025391.6225586-1.3466797,1.0566406-2.2333984,1.3017578-.9003906.2485352-1.7714844.2607422-2.6142578.0375977-.84375-.2236328-1.578125-.6401367-2.2021484-1.2490234-.625-.6088867-1.0615234-1.3632812-1.3105469-2.2626953ZM487.7046943,199.1157227c.1630859.5908203.4423828,1.0742188.8359375,1.449707.3945312.375.8613281.6264648,1.4013672.7539062s1.1123047.1079102,1.7167969-.059082c.5908203-.1630859,1.0810547-.440918,1.4716797-.8320312.3896484-.3911133.6542969-.8447266.7958984-1.3608398.140625-.5161133.1298828-1.0703125-.0332031-1.6611328-.15625-.565918-.4287109-1.0371094-.8164062-1.4140625s-.8486328-.6298828-1.3818359-.7592773c-.5341797-.1293945-1.0966797-.1123047-1.6875.0512695-.6044922.1669922-1.1054688.4433594-1.5029297.8300781-.3984375.3867188-.6699219.8417969-.8154297,1.3666992-.1464844.5244141-.140625,1.0688477.015625,1.6347656Z"/>
    <path class="st2" d="M487.9781318,206.1123047l9.2607422-2.1186523.4023438,1.7548828-9.2607422,2.1186523-.4023438-1.7548828ZM489.473249,212.6435547l5.4003906-1.2353516c.7011719-.1606445,1.2294922-.5107422,1.5849609-1.050293s.453125-1.1601562.2929688-1.8618164c-.1074219-.4682617-.3066406-.8603516-.5976562-1.1767578-.2919922-.3164062-.6425781-.5366211-1.0546875-.6611328-.4111328-.125-.8505859-.1337891-1.3183594-.0268555l.2441406-.8149414c.7021484-.1606445,1.3613281-.1474609,1.9785156.0395508.6171875.1875,1.1484375.5239258,1.5957031,1.0097656.4462891.4858398.7490234,1.0800781.9101562,1.7817383.1601562.7021484.1269531,1.362793-.1005859,1.9824219s-.5878906,1.1503906-1.0820312,1.5917969c-.4941406.440918-1.0595703.7348633-1.6962891.8803711l-5.7519531,1.315918-.4052734-1.7744141Z"/>
  </g>
  <circle class="st1" cx="175.6222308" cy="319.1564801" r="144.0000035"/>
  <circle class="st1" cx="319.6222343" cy="319.1564801" r="144.0000035"/>
  <circle class="st1" cx="247.6222675" cy="175.1564766" r="144.0000035"/>
  <g class="st3">
    <path class="st2" d="M220.2574287,19.0571289l-2.0136719-13.8544922,2.2763672-.3305664,2.0136719,13.8544922-2.2763672.3305664ZM221.0621162,13.6049805l-.2880859-1.9794922,3.4638672-.503418c.4746094-.0688477.8798828-.2255859,1.2148438-.4697266.3349609-.2436523.5820312-.5561523.7431641-.9365234.1601562-.3803711.2060547-.8081055.1367188-1.2832031s-.2353516-.871582-.4970703-1.190918c-.2617188-.3188477-.5878906-.5473633-.9785156-.6860352s-.8232422-.1733398-1.2988281-.1044922l-3.4628906.503418-.2880859-1.9790039,3.5820312-.5209961c.8710938-.1264648,1.6787109-.0620117,2.4228516.1933594.7451172.2558594,1.3652344.6777344,1.8623047,1.265625.4960938.5883789.8076172,1.3173828.9345703,2.1884766.1259766.8706055.0351562,1.6586914-.2734375,2.3637695s-.7832031,1.2861328-1.4238281,1.7426758c-.640625.4570312-1.3964844.7490234-2.2675781.8754883l-3.5820312.5209961Z"/>
    <path class="st2" d="M231.707624,17.4921875l-1.0478516-14.3618164,2.1943359-.1601562,1.0478516,14.3618164-2.1943359.1601562ZM238.270124,17.0136719l-.4033203-5.5253906c-.0458984-.6381836-.2871094-1.1489258-.7226562-1.53125-.4365234-.3828125-.9726562-.5507812-1.6113281-.5043945-.4257812.03125-.7978516.1518555-1.1162109.3623047-.3193359.2104492-.5595703.4887695-.7216797.8344727-.1621094.3461914-.2275391.7319336-.1962891,1.1577148l-.8925781-.4165039c-.0537109-.730957.0585938-1.3911133.3369141-1.9794922s.6875-1.065918,1.2285156-1.4331055c.5419922-.3671875,1.1650391-.5766602,1.8701172-.6279297.7177734-.0522461,1.3671875.0605469,1.9492188.3388672.5820312.2788086,1.0527344.6889648,1.4130859,1.2304688.3603516.5424805.5683594,1.1855469.6220703,1.9301758l.4384766,6.0039062-2.1943359.1601562Z"/>
    <path class="st2" d="M245.613874,16.8754883l-4.2578125-9.6323242,2.4199219-.0390625,2.9160156,7.0732422-.7001953.0117188,2.84375-7.1674805,2.4394531-.0395508-4.3017578,9.7714844-1.359375.0219727ZM242.816999,20.8212891l2.8798828-6.1875,1.2763672,2.2197266-1.7158203,3.9282227-2.4404297.0395508Z"/>
    <path class="st2" d="M255.7798897,17.1650391c-.5332031-.0268555-1.0419922-.1230469-1.5283203-.2875977-.4853516-.1650391-.9277344-.3876953-1.3271484-.6679688-.4003906-.2807617-.7431641-.6152344-1.03125-1.003418l1.4697266-1.3276367c.3125.4033203.6806641.7124023,1.1044922.9272461.4228516.2148438.9072266.3364258,1.453125.3637695.4921875.0249023.8691406-.0292969,1.1298828-.1630859.2597656-.1333008.3974609-.340332.4121094-.6196289.0146484-.2929688-.09375-.5253906-.3251953-.6977539-.2314453-.171875-.5341797-.3237305-.9082031-.4560547s-.7675781-.2695312-1.1806641-.4106445c-.4140625-.1411133-.8046875-.3242188-1.1738281-.5498047s-.6640625-.5244141-.8857422-.8959961-.3173828-.84375-.2890625-1.4165039c.03125-.6123047.2011719-1.1313477.5097656-1.5561523s.7314453-.7441406,1.2695312-.9570312,1.1738281-.3012695,1.90625-.2641602c.7724609.0395508,1.4472656.2104492,2.0263672.5131836.5791016.3032227,1.0546875.737793,1.4257812,1.3041992l-1.46875,1.3271484c-.2617188-.3603516-.5683594-.6362305-.9189453-.8276367-.3515625-.190918-.7597656-.2988281-1.2255859-.3222656-.4394531-.0224609-.7822266.0273438-1.0292969.1479492-.2460938.1210938-.3759766.3085938-.3886719.5610352-.0136719.2666016.0957031.4790039.328125.6376953s.5361328.3007812.9101562.4262695c.3740234.1259766.7675781.2626953,1.1806641.4106445s.8037109.3408203,1.171875.5800781c.3681641.2387695.6630859.5473633.8847656.9257812.2207031.378418.3164062.8603516.2871094,1.4462891-.0478516.9321289-.4111328,1.6547852-1.0917969,2.1674805-.6796875.5131836-1.5791016.7412109-2.6972656.6845703Z"/>
    <path class="st2" d="M261.1080147,17.3222656l.8769531-9.5600586,2.1904297.2011719-.8759766,9.5595703-2.1914062-.2006836ZM263.2408272,6.1098633c-.3720703-.0336914-.6689453-.1879883-.8916016-.4628906s-.3164062-.5981445-.2822266-.9702148c.0341797-.371582.1855469-.6723633.4541016-.9023438.2685547-.2294922.5888672-.3276367.9609375-.293457.3847656.0356445.6855469.1904297.9013672.4643555.2158203.2744141.3066406.597168.2724609.96875-.0341797.3720703-.1816406.6733398-.4443359.9033203-.2617188.2304688-.5859375.328125-.9707031.2924805Z"/>
    <path class="st2" d="M269.9566475,18.5268555c-.9375-.128418-1.7568359-.4628906-2.4560547-1.0024414-.7001953-.5400391-1.2167969-1.2163086-1.5498047-2.0292969-.3330078-.8125-.4355469-1.6811523-.3085938-2.605957.1279297-.9375.4609375-1.75.9990234-2.4370117.5380859-.6860352,1.2167969-1.1958008,2.0361328-1.527832.8193359-.331543,1.6982422-.4335938,2.6357422-.3051758.7402344.1015625,1.4111328.3378906,2.0126953.7094727.6015625.3720703,1.0908203.8530273,1.4677734,1.4428711l-1.625,1.2509766c-.2314453-.3681641-.53125-.6616211-.8984375-.8798828-.3671875-.21875-.7822266-.3598633-1.2441406-.4228516-.5419922-.0742188-1.0371094-.0175781-1.4873047.1699219-.4492188.1875-.8183594.4765625-1.1074219.8676758s-.4726562.8706055-.5507812,1.4384766c-.0751953.5546875-.0273438,1.0629883.1445312,1.5239258.1728516.4609375.4501953.8422852.8330078,1.1435547s.8447266.4887695,1.3867188.5629883c.4619141.0634766.8994141.0395508,1.3115234-.0727539.4121094-.1113281.7802734-.3134766,1.1025391-.605957l1.2285156,1.6420898c-.5214844.4667969-1.1220703.7983398-1.8017578.9946289s-1.3886719.2436523-2.1289062.1425781Z"/>
    <path class="st2" d="M278.9166084,20.0649414c-.8486328-.1743164-1.5722656-.546875-2.1689453-1.1186523-.5976562-.5717773-1.0195312-1.2675781-1.2666016-2.0874023-.2470703-.8193359-.2763672-1.6865234-.0888672-2.6010742.1894531-.9272461.5595703-1.71875,1.109375-2.375s1.2128906-1.1328125,1.9882812-1.4296875,1.5878906-.3583984,2.4365234-.184082c.71875.1474609,1.3232422.4316406,1.8154297.8520508.4921875.4208984.8466797.9326172,1.0634766,1.5351562s.2558594,1.2436523.1162109,1.9223633l-.5546875,2.7041016c-.1396484.6791992-.4238281,1.253418-.8535156,1.7231445-.4306641.4702148-.9580078.8012695-1.5820312.9926758-.625.1914062-1.2958984.2138672-2.0146484.0664062ZM279.6871162,18.0996094c.796875.1635742,1.4951172.027832,2.0947266-.4072266s.9853516-1.0703125,1.1572266-1.90625c.1152344-.5615234.1054688-1.0810547-.0283203-1.5576172s-.375-.8759766-.7236328-1.199707c-.3486328-.3232422-.7910156-.5400391-1.3261719-.6499023-.5224609-.1074219-1.0078125-.0805664-1.4550781.0791016-.4482422.1601562-.8310547.4316406-1.1474609.815918-.3173828.3842773-.5332031.8574219-.6484375,1.4189453s-.1035156,1.0810547.0371094,1.559082c.1396484.4780273.3847656.878418.7333984,1.2021484.3486328.3232422.7841797.5385742,1.3066406.6455078ZM281.8365303,20.4599609l.5185547-2.5273438.8427734-2.2158203.09375-2.3491211.4746094-2.3120117,2.1552734.4423828-1.9296875,9.4038086-2.1552734-.4418945Z"/>
    <path class="st2" d="M286.1880928,21.5l3.6035156-13.9414062,2.1298828.5507812-3.6035156,13.9414062-2.1298828-.5507812Z"/>
  </g>
  <g class="st3">
    <path class="st2" d="M396.2896553,477.1787109l-6.6210938-12.3349609,1.4091797-.7568359,9.6591797,5.6875-.9160156.4921875.5966797-11.1933594,1.4091797-.7568359,6.6220703,12.3349609-2.0263672,1.0878906-4.7109375-8.7753906.5244141-.1230469-.4482422,8.2988281-1.4101562.7568359-7.1640625-4.2119141.3916016-.3691406,4.7109375,8.7753906-2.0263672,1.0878906Z"/>
    <path class="st2" d="M415.2154365,466.5371094c-.8056641.5214844-1.6474609.8095703-2.5263672.8623047-.8798828.0537109-1.7128906-.1171875-2.5009766-.5117188s-1.4394531-.9892578-1.9550781-1.7841797c-.5146484-.7939453-.7919922-1.6269531-.8330078-2.4990234-.0400391-.8710938.1357422-1.6962891.5292969-2.4755859.3925781-.7783203.9746094-1.4179688,1.7470703-1.9189453.75-.4853516,1.5253906-.7412109,2.3261719-.7685547.8007812-.0263672,1.5625.1552734,2.2841797.5458984s1.3320312.9716797,1.8330078,1.7431641c.0869141.1347656.1669922.2773438.2412109.4277344s.1484375.3212891.2236328.5107422l-6.6132812,4.2851562-.9785156-1.5107422,5.65625-3.6650391-.296875,1.0498047c-.3417969-.4775391-.7050781-.8300781-1.0898438-1.0566406-.3857422-.2275391-.7900391-.3300781-1.2138672-.3095703s-.859375.1748047-1.3066406.4648438c-.4707031.3046875-.8134766.6699219-1.0292969,1.0966797-.2167969.4257812-.3017578.8828125-.2568359,1.3691406.0449219.4873047.2314453.9824219.5576172,1.4863281.3261719.5029297.7138672.8798828,1.1611328,1.1298828.4482422.25.9238281.3583984,1.4277344.3261719.5029297-.0322266.9951172-.2041016,1.4765625-.515625.4140625-.2685547.75-.5898438,1.0078125-.9638672.2587891-.3740234.4199219-.7802734.4853516-1.2197266l1.9462891.4306641c-.09375.7128906-.3447266,1.3671875-.7519531,1.9648438s-.9238281,1.0996094-1.5507812,1.5058594Z"/>
    <path class="st2" d="M420.7320381,462.6142578l-5.7294922-7.7021484,1.7646484-1.3125,5.7304688,7.7021484-1.765625,1.3125ZM426.011335,458.6865234l-3.3066406-4.4443359c-.3818359-.5136719-.859375-.8144531-1.4326172-.9033203s-1.1162109.0576172-1.6298828.4394531c-.3417969.2548828-.5908203.5566406-.7470703.9052734s-.2089844.7128906-.1601562,1.0908203c.0488281.3798828.2011719.7402344.4560547,1.0820312l-.9765625.1279297c-.4375-.5878906-.6972656-1.2050781-.7792969-1.8505859-.0810547-.6455078.0078125-1.2685547.2675781-1.8691406.2597656-.5996094.6728516-1.1113281,1.2402344-1.5332031.5771484-.4296875,1.2001953-.6640625,1.8681641-.7050781.6679688-.0390625,1.3037109.0771484,1.9072266.3515625.6025391.2744141,1.0908203.6630859,1.4648438,1.1660156l3.59375,4.8300781-1.765625,1.3125Z"/>
    <path class="st2" d="M431.0054756,454.7109375l-8.7080078-10.4462891,1.6894531-1.4091797,8.7080078,10.4462891-1.6894531,1.4091797ZM424.3726631,450.3457031l-1.28125-1.5361328,5.2236328-4.3544922,1.2802734,1.5361328-5.2226562,4.3544922Z"/>
    <path class="st2" d="M439.1187568,447.8769531c-.6337891.5917969-1.3564453.9667969-2.1679688,1.1230469s-1.6230469.0986328-2.4345703-.1738281-1.5361328-.75-2.1738281-1.4316406c-.6464844-.6914062-1.078125-1.4511719-1.2958984-2.2792969-.2167969-.828125-.2226562-1.6445312-.0166016-2.4482422.2060547-.8046875.6259766-1.5029297,1.2587891-2.0947266.5361328-.5009766,1.1181641-.8300781,1.7460938-.9882812s1.25-.1513672,1.8671875.0205078c.6162109.171875,1.1621094.5107422,1.6347656,1.0166016l1.8857422,2.0166016c.4726562.5068359.7773438,1.0712891.9121094,1.6933594.1347656.6230469.0996094,1.2441406-.1054688,1.8642578s-.5751953,1.1816406-1.1103516,1.6816406ZM437.9605537,446.1123047c.59375-.5556641.8876953-1.2041016.8789062-1.9443359-.0078125-.7412109-.3027344-1.4228516-.8857422-2.046875-.3916016-.4179688-.8203125-.7109375-1.2861328-.8779297-.4667969-.1660156-.9326172-.2011719-1.3974609-.1035156-.4658203.0976562-.8984375.3330078-1.2978516.7060547-.3896484.3642578-.6484375.7753906-.7773438,1.2333984-.1279297.4580078-.1279297.9277344.0029297,1.4082031.1298828.4804688.390625.9306641.7822266,1.3486328.3916016.4189453.8222656.7099609,1.2929688.8720703s.9394531.1943359,1.4052734.0966797.8925781-.328125,1.2822266-.6923828ZM441.129499,445.7236328l-1.7617188-1.8847656-1.3203125-1.96875-1.8623047-1.4355469-1.6113281-1.7236328,1.6064453-1.5029297,6.5566406,7.0126953-1.6074219,1.5029297Z"/>
    <path class="st2" d="M444.7320381,442.1445312l-10.3300781-10.0322266,1.5322266-1.578125,10.3310547,10.0322266-1.5332031,1.578125Z"/>
  </g>
  <g class="st3">
    <path class="st2" d="M42.848249,433.9648438l10.2890625-9.4941406,1.5595703,1.6904297-10.2890625,9.4941406-1.5595703-1.6904297ZM48.4761787,430.9208984l1.5429688-1.4238281,5.3037109,5.7470703-1.5439453,1.4248047-5.3027344-5.7480469ZM48.8834053,440.5058594l10.2890625-9.4941406,1.5595703,1.6904297-10.2890625,9.4941406-1.5595703-1.6904297Z"/>
    <path class="st2" d="M55.6939522,447.4736328c-.6347656-.5908203-1.0585938-1.2841797-1.2714844-2.0830078-.2138672-.7988281-.2128906-1.6132812.0019531-2.4414062.2148438-.8291016.640625-1.5849609,1.2753906-2.2685547.6445312-.6933594,1.3720703-1.1777344,2.1835938-1.453125.8095703-.2744141,1.6240234-.3378906,2.4404297-.1884766.8173828.1494141,1.5429688.5185547,2.1777344,1.109375.5371094.4990234.90625,1.0566406,1.1083984,1.671875s.2392578,1.2363281.1113281,1.8632812c-.1289062.6279297-.4287109,1.1953125-.9003906,1.703125l-1.8789062,2.0214844c-.4716797.5078125-1.0136719.8515625-1.625,1.0292969s-1.234375.1865234-1.8671875.0253906c-.6328125-.1601562-1.21875-.4902344-1.7558594-.9892578ZM57.3736397,446.1943359c.5957031.5537109,1.2626953.8007812,2.0019531.7412109.7382812-.0605469,1.3974609-.4033203,1.9785156-1.0283203.390625-.4199219.6523438-.8681641.7861328-1.3447266.1328125-.4765625.1347656-.9433594.0048828-1.4013672-.1298828-.4570312-.3955078-.8720703-.7958984-1.2441406-.390625-.3632812-.8183594-.5927734-1.2841797-.6884766-.4667969-.0966797-.9345703-.0634766-1.4042969.1005859-.4707031.1630859-.9013672.4550781-1.2910156.875-.390625.4199219-.6503906.8701172-.7783203,1.3515625-.1289062.4814453-.1289062.9501953.0019531,1.4082031.1289062.4580078.3896484.8681641.7802734,1.2304688ZM57.9839912,449.328125l1.7568359-1.8896484,1.8710938-1.4550781,1.3007812-1.9589844,1.6064453-1.7285156,1.6113281,1.4980469-6.5351562,7.0322266-1.6113281-1.4980469Z"/>
    <path class="st2" d="M61.8834053,452.8105469l9.0537109-11.1972656,1.7109375,1.3828125-4.5019531,5.5683594-1.7539062,1.5654297-1.1757812,2.0576172-1.6220703,2.0068359-1.7109375-1.3837891ZM65.754499,456.1982422c-.5703125-.4609375-.9794922-.9941406-1.2285156-1.5976562-.2490234-.6044922-.328125-1.2216797-.2382812-1.8525391.0888672-.6298828.3525391-1.2148438.7880859-1.7539062l1.7353516-2.1464844c.4355469-.5390625.9550781-.9160156,1.5585938-1.1318359.6025391-.2158203,1.2255859-.2646484,1.8681641-.1484375.6425781.1171875,1.2441406.4023438,1.8046875.8544922.6738281.5449219,1.1425781,1.2109375,1.4052734,1.9990234.2636719.7871094.3164062,1.6015625.1591797,2.4433594-.1572266.8408203-.5332031,1.6298828-1.1289062,2.3662109-.5869141.7255859-1.2753906,1.2539062-2.0644531,1.5839844-.7900391.3300781-1.5957031.4462891-2.4160156.3476562-.8212891-.0976562-1.5693359-.4189453-2.2431641-.9638672ZM66.7828193,454.3544922c.4140625.3349609.8574219.5351562,1.3291016.5986328.4707031.0644531.9355469-.0019531,1.3935547-.1972656s.8681641-.515625,1.2285156-.9619141c.3603516-.4453125.5878906-.9130859.6835938-1.4023438.0947266-.4882812.0615234-.9570312-.0996094-1.4042969s-.4492188-.8388672-.8632812-1.1738281c-.4150391-.3359375-.8603516-.5371094-1.3369141-.6054688s-.9414062-.0019531-1.3945312.1972656-.859375.5224609-1.2197266.96875c-.3603516.4453125-.5908203.9101562-.6914062,1.3955078-.1005859.484375-.0673828.953125.0986328,1.4042969.1660156.4521484.4570312.8447266.8720703,1.1806641Z"/>
    <path class="st2" d="M71.3511787,460.265625l5.6669922-7.75,1.7753906,1.2988281-5.6660156,7.7490234-1.7763672-1.2978516ZM78.9449287,451.7451172c-.3017578-.2207031-.4765625-.5058594-.5263672-.8564453-.0498047-.3496094.0361328-.6757812.2558594-.9765625.2207031-.3017578.5048828-.4814453.8535156-.5410156.3486328-.0585938.6738281.0224609.9755859.2421875.3115234.2285156.4902344.515625.5341797.8623047.0439453.3457031-.0439453.6699219-.2646484.9707031-.2197266.3017578-.5019531.484375-.8447266.546875-.34375.0625-.6708984-.0205078-.9833984-.2480469Z"/>
    <path class="st2" d="M76.5640693,463.984375l7.6240234-11.2617188,1.8222656,1.2333984-7.6240234,11.2617188-1.8222656-1.2333984ZM78.9205147,456.4023438l1.1210938-1.65625,5.6308594,3.8115234-1.1210938,1.65625-5.6308594-3.8115234Z"/>
    <path class="st2" d="M85.3043037,469.8378906c-.6972656-.4189453-1.2246094-.9462891-1.5810547-1.5810547-.3574219-.6347656-.5244141-1.3144531-.5-2.0400391.0234375-.7246094.2480469-1.4414062.6748047-2.1494141l2.8759766-4.78125,1.8857422,1.1337891-2.8251953,4.6953125c-.2412109.4003906-.3798828.7792969-.4160156,1.1386719-.0380859.359375.0273438.6904297.1953125.9931641.1679688.3037109.4287109.5615234.7832031.7744141.5488281.3300781,1.0664062.4199219,1.5537109.2695312s.9121094-.5283203,1.2773438-1.1337891l2.8242188-4.6962891,1.8857422,1.1347656-2.8769531,4.78125c-.4326172.7197266-.9638672,1.2597656-1.5927734,1.6201172-.6298828.3603516-1.3037109.53125-2.0224609.5107422-.7197266-.0205078-1.4335938-.2431641-2.1416016-.6699219Z"/>
    <path class="st2" d="M94.90196,475.2128906c-.7705078-.3974609-1.3662109-.9511719-1.7861328-1.6630859-.4208984-.7119141-.6396484-1.4960938-.65625-2.3515625-.0166016-.8564453.1894531-1.6992188.6171875-2.5283203.4335938-.8417969,1.0029297-1.5039062,1.7099609-1.9873047.7060547-.4833984,1.4736328-.7636719,2.2998047-.8398438.8271484-.0761719,1.6259766.0839844,2.3964844.4804688.6513672.3359375,1.1572266.7734375,1.5175781,1.3115234s.5634766,1.1259766.609375,1.7646484-.0898438,1.2666016-.4072266,1.8828125l-1.2646484,2.453125c-.3173828.6162109-.7470703,1.0927734-1.2871094,1.4287109-.5410156.3369141-1.1386719.5126953-1.7910156.5283203-.6533203.0166016-1.3066406-.1435547-1.9580078-.4794922ZM96.1744209,473.5283203c.7236328.3730469,1.4326172.4306641,2.1269531.1738281.6953125-.2568359,1.2382812-.7646484,1.6289062-1.5234375.2626953-.5087891.3935547-1.0117188.3945312-1.5068359-.0009766-.4951172-.125-.9443359-.3730469-1.3505859-.2490234-.4052734-.6162109-.7333984-1.1015625-.9833984-.4746094-.2451172-.9482422-.3505859-1.4228516-.3173828s-.9169922.1914062-1.3251953.4755859c-.4091797.2841797-.7451172.6816406-1.0078125,1.1914062s-.390625,1.0126953-.3847656,1.5107422.1328125.9501953.3818359,1.3554688c.2480469.40625.609375.7304688,1.0830078.9746094ZM97.6070381,476.3818359l1.1816406-2.2939453,1.4101562-1.9052734.7246094-2.2363281,1.0810547-2.0986328,1.9560547,1.0078125-4.3974609,8.5341797-1.9560547-1.0078125Z"/>
    <path class="st2" d="M102.1685615,478.5566406l5.9638672-13.1064453,2.0019531.9111328-5.9638672,13.1064453-2.0019531-.9111328Z"/>
  </g>
  <g>
    <path class="st4" d="M334.7921842,204.287869h-5.5559252l-4.2692899,20.6284047h5.3219915l2.1054032-8.8573941h6.49166l-1.7545027,8.8573941h5.6144086l4.2108065-20.6284047h-5.4974418l-1.7545027,7.8084922h-6.4331765l1.520569-7.8084922Z"/>
    <polygon class="st4" points="303.2111358 224.6831844 307.6674488 204.299738 314.7342728 204.4025179 318.7316354 218.250916 319.0589839 218.624015 321.9258311 204.287869 327.1893392 204.287869 322.7395272 224.9108976 315.7821037 224.8026864 311.4560564 210.580577 308.4630707 224.9044047 303.2111358 224.9162737 303.2111358 224.6831844"/>
    <path class="st4" d="M357.1328518,203.5886011c.0154045.0001947.1319633.1170117.2830166.1213636,1.8841422.0542828,3.8318977.072799,5.5748368.8844652l-1.1802381,4.2388749c-1.7886623-.8751064-6.8107607-1.5853455-8.2335992-.1052743-.6509251.6771081-.5812887,1.8020292.1063012,2.4351371,1.284151,1.1823998,4.1358415,1.5855286,5.7904587,2.9712913,2.7802312,2.3284787,2.218319,7.0181161-.5477898,9.1302619-3.6020603,2.7504616-10.087004,2.2858428-14.1806038.9407262l1.1600452-4.3004559c2.2448457,1.0209931,5.7624181,1.5760235,8.0998428.6711235,1.9511372-.7553544,2.1399306-2.6900074.3582709-3.797304-2.3839603-1.4816248-6.4992019-1.6931267-6.9262089-5.3359727-.6477447-5.5259853,4.0087713-7.7357765,8.7599328-7.8542368.309604-.0077193.6259518-.0039151.9357348,0Z"/>
    <polygon class="st4" points="334.7921842 204.287869 333.2716152 212.0963612 339.7047917 212.0963612 341.4592944 204.287869 346.9567362 204.287869 342.7459297 224.9162737 337.1315211 224.9162737 338.8860238 216.0588796 332.3943639 216.0588796 330.2889606 224.9162737 324.9669691 224.9162737 329.236259 204.287869 334.7921842 204.287869"/>
  </g>
  <g>
    <path class="st4" d="M277.8142584,65.0460272v3.8877375h4.5638658c-.1710107-2.6423145.3222828-4.3969038,3.3806413-3.8877375v3.8877375h3.7187054c.1673976.4082196-.1538522,1.6903207-.5916122,1.6903207h-3.1270932v11.2406324c0,1.1370835,2.5094066.692278,3.1938609.4368421l.3258598,1.3080973c-1.6365174,1.2035502-5.5449361,1.5187735-6.5222998-.6018445-.0640143-.138894-.3780623-1.0828953-.3780623-1.1430949v-11.2406324h-4.5638658v11.2406324c0,.9345678,2.2373453.8848875,2.8716775.5904517l.254218,1.1940725c-1.2178577,1.2025473-4.7625563,1.2274631-5.8058339-.1187783-.1056684-.1363541-.700703-1.4140831-.700703-1.4967139v-11.4096644h-2.3664489v-1.6903207h2.3664489c-.2245012-2.7550748.2423991-4.3605339,3.3806413-3.8877375Z"/>
    <path class="st4" d="M212.9059452,83.9776186v-12.2548248c0-.7712911-1.4345022-1.138746-2.0904555-1.084181-5.1775713.4306924-2.6171006,9.708228-3.4752507,12.9287776-.0553915.0767799-.5627801.4102282-.6039642.4102282h-2.450965v-13.9451454c0-.0519492.481404-.790916.5652604-.8717618.6873609-.6626835,1.7696585-.3200025,2.6463489-.3959787v2.3664489l1.4413661-1.854759c2.8137692-1.865933,6.9433235-1.6139864,7.3466954,2.447977.2638169,2.6566413.2562883,8.3252145.0093616,10.9932342-.039035.4217696-.2477861,1.2599847-.7684001,1.2599847h-2.619997Z"/>
    <path class="st4" d="M241.26251,68.301356c9.3928512-1.2725518,10.2230073,16.1970119.9416915,16.2875517-8.6175561.0840647-8.8278196-15.2191321-.9416915-16.2875517ZM241.5951247,70.1563632c-.3419611.0702397-.8100563.3784741-1.0584144.6307773-1.794743,1.823252-1.6987752,8.1953985-.5557004,10.3715148,1.1241098,2.1400117,3.4745201,1.9174286,4.4487776-.2242518,1.0181212-2.2381046,1.0194118-7.5612865-.3134199-9.658196-.5787834-.9105848-1.411335-1.3478221-2.5212429-1.1198443Z"/>
    <path class="st4" d="M262.7704046,76.5402077c.1946466,1.6036072.3031166,3.0031247,1.3563463,4.3062279,1.7882203,2.2124666,4.8767899,2.0384773,7.0111116.4297113,1.213925,1.2268755.2227388,1.9729566-.9844068,2.5625957-2.2476601,1.097886-5.7898041.9246598-7.8792575-.463626-4.7372798-3.1475687-3.9535936-13.2618342,1.8452658-14.8671283,3.4829924-.9641943,6.5587235.6941741,7.4879347,4.1816724.1967369.7383893.7560003,3.8505471-.4699068,3.8505471h-8.3670872ZM268.5174948,74.680855c.2948343-6.5466408-5.5870926-6.165824-5.4090261,0h5.4090261Z"/>
    <path class="st4" d="M293.0271443,76.5402077c-.0958726,4.0465018,2.4988792,6.9660627,6.727227,5.6285279.611578-.1934578,1.0192876-.6003173,1.6171239-.7175553l.5867226,1.0652831c-2.2292454,2.6716631-7.366767,2.6012333-9.931148.517361-2.6935619-2.1888477-3.0273051-6.0489029-2.3303432-9.2324221,1.695688-7.7454091,12.2294297-7.3647749,12.4629364.972324.0121332.433204-.3009124,1.7664815-.7654314,1.7664815h-8.3670872ZM298.6052025,74.680855c.0856777-1.7009819-.1872893-4.7513735-2.4513523-4.7467826-2.390806.004848-2.8253635,2.908143-2.9576738,4.7467826h5.4090261Z"/>
    <path class="st4" d="M234.8553405,81.802344l.5174151,1.2189919c-3.2057885,2.614909-8.6047229,1.8837108-10.6023088-1.8650035-3.3497253-6.2861696,1.3604561-15.5718073,9.0931161-12.3047245,1.5015068.6343932,1.97357,1.0638557.7660895,2.4327948-3.5211187-2.3190662-6.8477978-.1682464-7.1930404,3.8129435-.3202583,3.6930822.6886825,7.9419057,5.2869019,7.315286.454214-.0618977,1.9478069-.7184322,2.1318265-.6102882Z"/>
    <path class="st4" d="M258.8826671,68.4266685v2.8735451c-7.1374689-.9049275-4.2545019,7.6252032-4.9125778,11.7370807-.0534122.3337372-.418938.9403242-.7499964.9403242h-2.619997v-13.6070813c0-.058941.3477905-.8097433.4289593-.9232972.7297457-1.0209042,1.8689431-.6126829,2.9516821-.6825074v2.7045131l.8745688-1.5763935c.9303942-1.2668079,2.5223541-1.6125836,4.0273611-1.4661836Z"/>
    <path class="st4" d="M221.8646447,68.7647327v14.2832095c0,.1588909-.499719.9296764-.7606443.9296764h-2.619997v-13.7761133c0-.0493206.4151655-.7440795.5047931-.8474634.7923709-.9139866,1.7982147-.5162271,2.8758482-.5893092Z"/>
    <path class="st4" d="M219.7878726,63.5599451c2.7951315-.6278358,2.4480973,3.9713312-.2462086,2.878198-1.2523152-.5080891-1.0772759-2.58092.2462086-2.878198Z"/>
  </g>
  <g>
    <path class="st4" d="M416.8337793,298.3749963l1.2989281.8886648c3.3953758,2.7617296,2.7512117,7.1655931-1.0796041,9.144494-.5044503.2605861-2.9571443.8085743-2.4907545,1.4814917,2.5923881.1319303,8.187267,2.6262795,4.7057913,5.6003603-2.6687637,2.2798145-9.7539734,2.339306-12.1679145-.3270399-2.1189263-2.340484,1.2343553-4.8400654,3.4908022-4.8001593,1.5922404.0281594.8096559,1.1598139.7393718,1.8939736-.0833018.8701377-.0883333,1.9054012.4002692,2.6558773,1.6871943,2.5914704,4.7834441-.1662583,3.4532519-2.966489-.9057076-1.9066343-4.0603756-2.4665624-5.7596928-3.4873374-5.7553459-3.4572198-3.1286828-10.2608292,2.941714-10.7402988,1.8297425-.144522,3.9011739.7185741,5.4263624-.4137712.6018324-.4468183,1.0103459-1.4870739,1.8695656-1.3718374.9431174.2905107,1.7893121,2.200942.8315319,2.7744477-.9251694.5539788-2.6098821-.4611089-3.6596225-.3323763ZM412.8944855,299.0552438c-1.0855379.2422932-1.6553642,2.6608242-1.7369288,3.6197291-.1173852,1.3800246.1364432,4.4216548,1.3750432,5.2698186,2.1202553,1.4519004,2.8874152-3.2852183,2.8469716-4.6301818-.0387446-1.2884634-.6423486-4.6706667-2.4850859-4.2593658Z"/>
    <path class="st4" d="M357.6200803,311.1892569l.492893-1.3727184c-.3942245-5.2012517.5026106-11.122941.0019929-16.2371364-.0553446-.5653875-.2161221-.8884643-.4948859-1.3707257h8.3546999c1.5291712,0,3.8809905,1.8344242,4.6548905,3.1320143,3.9582275,6.6367195-4.0304166,13.6351977-9.8449072,8.7093159-.3358422-.2845166-.5250674-1.1781901-1.1427885-.6507258-.303275,2.8393086,4.6433099,3.7051663,4.477239,6.0841381-.0349317.5003978-.7359235,1.7058379-1.2267502,1.7058379h-5.2723835ZM366.0026684,293.721514c-2.1511321.0443504-3.6866004,4.4368289-3.8377235,6.1955899-.0889333,1.0350003-.0833067,3.6476195,1.2509447,3.9398208,2.1406771.4688086,3.7265387-3.6795937,4.0280197-5.312289.2246312-1.2165089.452409-4.8621635-1.4412409-4.8231216Z"/>
    <path class="st4" d="M405.4770994,311.1892569h-4.7857019l-1.1340114-1.4744455c-.6324968.028577-1.0793504.7207281-1.591604,1.0200101-3.4818332,2.0342457-6.5463455.0902297-5.9146272-3.9678653.2612482-1.6782319,2.0790232-3.3455185,3.5271823-4.0975305.9841739-.5110699,3.4440007-.9999284,3.9618316-1.3907862.7024425-.5302023.2894704-1.7925799-.4030129-2.1614666-.9086604-.4840445-1.9822288-.117784-2.7483648.469257-.8327491.6380824-1.934761,2.518125-2.5015385,2.850668-.2323831.1363452-.3654578.2005776-.6490736.1600701-1.3306383-.558037-.7340257-2.8272226.179739-3.5482062,2.2298648-1.7594203,6.5374342-1.8639639,8.9272443-.3826908,4.0770343,2.5270632,2.1108514,7.6093065,2.6598152,11.4539534.0629621.4409524.239115.7139898.472122,1.0690326ZM398.6210054,302.9511152c-2.2539056.4515789-3.1518355,5.3405878-.6720963,5.6381498,1.3907047.1668808,1.9063123-1.2109076,2.0097561-2.3506313.1077133-1.1867647.3944113-3.6345458-1.3376598-3.2875185Z"/>
    <path class="st4" d="M427.1763693,297.7663589c9.9899383-1.3544634,10.9105481,13.1555534,1.5777149,13.7447078-8.6693259.5472691-9.7705091-12.6339062-1.5777149-13.7447078ZM426.8467855,299.2164608c-1.8344994.400088-1.2552411,4.7225612-.9170208,6.0394636.349899,1.3623749,2.0095698,5.0432036,3.7657506,4.7696442,1.9657439-.306203,1.4890514-4.4745658,1.171685-5.8136267-.3640553-1.5360547-2.0335905-5.4287899-4.0204148-4.9954811Z"/>
    <path class="st4" d="M376.1147878,305.0254651c.1532345,2.091889,3.6237149,3.2586292,5.416455,3.0626781,1.0135243-.1107808,1.6063183-.7406029,2.5310465-.9537526-.1726214,4.1607649-4.6075269,5.1551911-7.9906615,3.8538769-6.9745266-2.6827342-4.9622334-13.5948076,2.5475364-13.4313508,2.6285885.0572136,5.2245141,2.1619563,5.3693169,4.8643586.208607,3.8931574-5.4866086,2.8449222-7.8736933,2.6041897ZM376.23892,299.7026875c-1.9736688.2669197-2.1734982,3.0817943-.6124294,3.7815854.9441736.4232512,4.3403896.6051085,4.3645986-.9701412.0241492-1.5713589-2.3436154-3.0019376-3.7521692-2.8114442Z"/>
    <path class="st4" d="M391.0388801,311.1892569h-4.7857019c-.3449266,0-.6911355-1.0405486-.7298613-1.379092-.4475427-3.9124395.3216124-8.6394832-.00262-12.6511003-.0269515-.3334614-.1580893-1.2468929-.2787704-1.505728-.2383829-.5112801-1.1904964-.4819359-1.0052448-1.0758992.1412136-.4527663,3.6499165-2.1749327,4.2811242-2.3754348.7148146-.2270598,1.9506979-.7415949,2.0418671.404711.3546256,5.4945927-.4972515,11.6300242-.0140398,17.0479508.0524736.5883514.2033993,1.0307932.4932469,1.5345925Z"/>
  </g>
  <g id="Ku45NW.tif">
    <g>
      <path class="st4" d="M150.4070278,231.41009c1.6878836.1138084,3.4886791.9089966,3.9648787,2.6642649.2139814.7887341.2300721,2.8257554.1446648,3.6688307-.0589773.5821786-.5048043.7144485-1.0351994.6332424-.2758628-.042236-.4435924-.2812533-.4691145-.5428793-.1018161-1.0437133.2465792-2.8502395-.255584-3.7351458-.5281033-.9306176-1.871079-1.1533674-2.856056-1.1998615-2.2532541-.1063607-4.590732.0841055-6.8529078.0008063-.1387422.0083964-.2900256.0843854-.288441.2399012.1101203,1.6306863-.1391023,3.4344183.0005941,5.0443279.1141498,1.3155024,1.6379879,1.7986101,2.7615936,1.8633525,2.6473088.1525385,5.4316397-.1632595,8.0794463.0518305.1615364.0532259.323945.1874503.453286.2955655.3012842.2518413,1.7632586,1.6817849,1.8846973,1.944037.168335.3635266-.0232949.7393006-.3461684.9429061-.3021308.1905251-.5449339.1683323-.8323756-.0369801-.5334862-.3810557-1.0871612-1.2431561-1.6107745-1.6021222-.0783306-.0537-.1285076-.0699764-.2210132-.0876196-2.5157362-.1549282-5.1696722.1401833-7.6697105-.0198903-2.0408608-.1306732-3.8495541-1.2806951-3.999526-3.4407776-.1362049-1.9617934.1009858-4.0710092-.0005934-6.048371.0405999-.3568758.2099734-.5124766.5304631-.6354177,2.8168783.1410831,5.8227026-.1884669,8.6178406,0Z"/>
      <path class="st4" d="M181.2544779,231.41009c.7289621.0666969,1.4354924.4015232,2.009621.8339896.5469668.4120066,1.1910353.9139201.4827292,1.5721456-.6428289.5973779-1.2246052-.3610704-1.7708267-.6452755-.320153-.1665792-.7362912-.249779-1.0953242-.2724355-1.3720179-.0865802-3.2633128-.0684958-4.6440441.0000288-.7846438.0389412-2.2172826.1838809-2.3178596,1.1638477-.0865218.8430217.1531841,1.2488558.9621874,1.4992336,2.6447264.8185145,9.9474625-1.4057955,9.601387,3.3671958-.1561865,2.1540873-2.3143585,2.5452015-4.0875482,2.6083444-1.4753905.0525383-3.2651627.0741119-4.7326894-.0002837-1.0018275-.0507872-1.8462236-.3072616-2.6068098-.9649185-.4960114-.4288867-.9288356-.9463107-.2817078-1.5090062.5959549-.5181993,1.0091515.2488282,1.4318269.543657.2476135.1727178.5287927.2814572.8156028.3745353,1.8308297.0410099,3.8080395.1612099,5.6386568.0654761.7914011-.0413871,2.1538732-.1921481,2.2694523-1.1680465.1038498-.8768613-.2414562-1.2945981-1.0655545-1.519834-2.7636438-.755337-9.9311607,1.4383002-9.4914033-3.4715012.1867902-2.0854748,2.4916216-2.4189766,4.1535403-2.4771526,1.3797674-.0482992,3.388459-.1226321,4.7287638,0Z"/>
      <path class="st4" d="M137.0162293,241.0529338v-9.1168705c.1314565-.6341385,1.2845325-.6721136,1.4376298-.0889744l.0182435,9.2252506c-.2336664.6453191-1.2193878.6308663-1.4558733-.0194058Z"/>
      <path class="st4" d="M160.8279467,231.4670316c1.7767489.0574429,3.6596858-.1211282,5.4247861-.0152294,1.7756965.1065346,3.7532078,1.1696905,3.9478587,3.0975406.0972336.9630152.0840702,2.8335897.0069501,3.8095421-.1771444,2.2417562-2.428363,3.1260538-4.397066,3.2218269-1.342469.0653082-3.0351111.0621308-4.3788523.0000014-2.3198391-.1072603-4.2982852-1.0869598-4.4415109-3.6160581-.0500101-.883086-.053057-2.1025707-.0000148-2.9841591.1301598-2.1633213,1.7813101-3.3157057,3.8378491-3.5134645ZM161.446443,232.9132396c-1.1683313.0670398-2.8219026.4345167-2.9537562,1.8480925-.0769969.8254681-.080409,2.5989545.0022835,3.4202371.1315325,1.306349,1.5852675,1.7905021,2.7179269,1.8628295,1.3804065.0881476,3.3927615.0869413,4.7743864.002256,1.1411304-.0699445,2.6264643-.54017,2.7598463-1.8650855.0820577-.8150985.0739988-2.5093468.0020228-3.3323163-.1332339-1.5233877-1.8053918-1.8909306-3.0712578-1.9507114-1.2969501-.0612487-2.9365096-.0596068-4.2314518.0146981Z"/>
    </g>
  </g>
  <g id="KvtxZj.tif">
    <g>
      <path class="st4" d="M203.6181972,117.0222817l7.1062,10.0738651c.3726916.0625097.2222486-.1629766.2432841-.4046126.2690521-3.0906177-.2003518-6.5405082-.0000596-9.6692525h5.0629369v20.795489h-4.9812766l-9.3909313-12.9971806v12.9971806h-5.0629369v-16.3277081l2.2864876-4.4677808h4.7362958Z"/>
      <polygon class="st4" points="173.5672172 117.0222817 175.9425829 121.5739168 165.2378694 132.7813632 176.0170253 132.7813632 176.0170253 137.8177707 156.5818806 137.8177707 156.5818806 132.8625956 166.8710749 122.0586892 157.2351628 122.0586892 157.2351628 117.0222817 173.5672172 117.0222817"/>
      <polygon class="st4" points="181.8965649 117.0222817 186.1448736 126.1199151 190.7158743 117.0222817 197.4120165 117.0222817 189.735951 131.5628775 189.735951 137.8177707 182.8764882 137.8177707 182.8764882 131.7253423 175.2004226 117.0222817 181.8965649 117.0222817"/>
    </g>
  </g>
  <g id="zTDksI">
    <g>
      <path class="st4" d="M154.1091867,192.2277966h-2.2423359c-.0205536.0565869.0773219.0923319.0773219.1158491v14.0563515c0,.8591482-.4513589,1.9115954-1.0368246,2.5575068-.6547633.7223636-1.7034664,1.1885867-2.674628,1.1882792v2.316981c.3973261-.1210737.7812912-.0666309,1.2032909-.1496699,1.7104286-.3365694,3.3574032-1.6718483,4.11743-3.2244281.1584974-.3237778.5557457-1.3662834.5557457-1.6846439v-15.1762257ZM159.212434,192.2277966h-2.3196579c-.0205536.0565869.0773219.0923319.0773219.1158491v15.0603766c0,.1314003.2808858,1.0142224.3496147,1.1954428,1.6998925,4.482183,7.7866169,5.1728674,10.5070606,1.2303396.512231-.7423367,1.0509018-2.078915,1.0509018-2.9664113v-14.6355968h-2.3196579c-.0205536.0565869.0773219.0923319.0773219.1158491v14.1335842c0,3.276335-4.2471601,4.945391-6.4645811,2.48041-.209923-.2333595-.958324-1.4715113-.958324-1.708083v-15.0217603ZM173.9036005,192.2277966h-2.3196579l.001277,14.3253904c.2614764,6.2675688,8.6843701,8.1943279,11.3710293,2.4166654.1678317-.3609222.6125926-1.3148653.6125926-1.7202956v-15.0217603h-2.3196579v15.0217603c0,.1675214-.462422,1.0721022-.5882226,1.2667592-1.2618122,1.9524582-4.1075447,2.1741031-5.7194347.5152203-.4475663-.4606146-1.037926-1.5296831-1.037926-2.168143v-14.6355968ZM188.594767,192.2277966h-2.2423359v15.098993c0,.1183119.3803756,1.3586634.4603074,1.5482742.5900418,1.3996709,2.0654983,2.7347794,3.4969032,3.2263769.6754775.231984,1.2982736.2643871,1.9965779.3613235v-2.316981c-1.3017899.0378581-2.725115-.8095562-3.3043413-1.990256-.2098155-.4276897-.4071113-1.1315783-.4071113-1.6010646v-14.326666Z"/>
      <path class="st4" d="M173.9036005,192.2277966v14.6355968c0,.6384599.5903597,1.7075284,1.037926,2.168143,1.61189,1.6588828,4.4576225,1.4372379,5.7194347-.5152203.1258006-.1946569.5882226-1.0992377.5882226-1.2667592v-15.0217603h2.3196579v15.0217603c0,.4054303-.4447609,1.3593734-.6125926,1.7202956-2.6866593,5.7776625-11.1095529,3.8509034-11.3710293-2.4166654l-.001277-14.3253904h2.3196579Z"/>
      <path class="st4" d="M159.212434,192.2277966v15.0217603c0,.2365717.748401,1.4747235.958324,1.708083,2.217421,2.464981,6.4645811.795925,6.4645811-2.48041v-14.1335842c0-.0235171-.0978756-.0592622-.0773219-.1158491h2.3196579v14.6355968c0,.8874963-.5386708,2.2240746-1.0509018,2.9664113-2.7204437,3.9425278-8.807168,3.2518434-10.5070606-1.2303396-.0687288-.1812204-.3496147-1.0640425-.3496147-1.1954428v-15.0603766c0-.0235171-.0978756-.0592622-.0773219-.1158491h2.3196579Z"/>
      <path class="st4" d="M188.594767,192.2277966v14.326666c0,.4694863.1972958,1.173375.4071113,1.6010646.5792263,1.1806997,2.0025514,2.028114,3.3043413,1.990256v2.316981c-.6983043-.0969363-1.3211004-.1293395-1.9965779-.3613235-1.4314049-.4915975-2.9068614-1.826706-3.4969032-3.2263769-.0799318-.1896108-.4603074-1.4299622-.4603074-1.5482742v-15.098993h2.2423359Z"/>
      <path class="st4" d="M154.1091867,192.2277966v15.1762257c0,.3183606-.3972483,1.3608661-.5557457,1.6846439-.7600268,1.5525798-2.4070014,2.8878587-4.11743,3.2244281-.4219997.0830389-.8059648.0285961-1.2032909.1496699v-2.316981c.9711616.0003075,2.0198647-.4659155,2.674628-1.1882792.5854657-.6459114,1.0368246-1.6983586,1.0368246-2.5575068v-14.0563515c0-.0235171-.0978755-.0592621-.0773219-.1158491h2.2423359Z"/>
    </g>
  </g>
  <g id="_x32_F39yO">
    <g>
      <path class="st4" d="M264.6425842,347.6397574c-4.0598035.4435298-3.576389,6.6054857.539122,6.4383103,4.2227373-.1715311,3.8583509-6.9187302-.539122-6.4383103ZM222.1900834,348.7813559h-6.0272095v23.3738125h6.0272095v-10.2903577l6.6887325,10.2903577h6.6887325l-7.6393442-11.9798488,7.345334-11.3939637h-6.6887325l-6.3947223,9.7023373v-9.7023373ZM277.9050201,350.8394275l-5.4429224,1.5398203c-.2641957.1959866-.1976283,2.558727.0037333,3.0173381h-2.646092v5.4391891h2.4990869v5.8067018c0,.3317646.2404995,1.4721741.3378872,1.8671894,1.0085302,4.090707,4.9005346,4.0888125,8.4093248,3.7929152l.3671048-.2209155v-4.9246712h-2.4255843c-.3654445,0-1.1025383-.8010922-1.1025383-1.1025383v-5.2186814h3.5281226v-5.4391891h-3.5281226v-4.5571584ZM240.1247069,355.3965859h-5.8802044l5.1390655,16.6911933,5.4258627.0483428,2.5169459-8.2130848,2.2127453,8.2257151,5.3651612.0161447,5.2131187-16.7683112h-5.8802044l-2.1315669,8.9688032-2.4955515-8.8253405-4.6913997-.1524184-2.5146596,8.9755376-2.2793128-8.9665818ZM267.7616676,355.3965859h-5.5861942v16.7585825h5.5861942v-16.7585825Z"/>
      <polygon class="st4" points="222.1900834 348.7813559 222.1900834 358.4836932 228.5848057 348.7813559 235.2735382 348.7813559 227.9282043 360.1753197 235.5675485 372.1551684 228.878816 372.1551684 222.1900834 361.8648107 222.1900834 372.1551684 216.1628739 372.1551684 216.1628739 348.7813559 222.1900834 348.7813559"/>
      <polygon class="st4" points="240.1247069 355.3965859 242.4040197 364.3631677 244.9186793 355.3876301 249.610079 355.5400485 252.1056305 364.365389 254.2371974 355.3965859 260.1174018 355.3965859 254.9042832 372.1648971 249.539122 372.1487524 247.3263766 363.9230373 244.8094307 372.136122 239.383568 372.0877792 234.2445025 355.3965859 240.1247069 355.3965859"/>
      <path class="st4" d="M277.9050201,350.8394275v4.5571584h3.5281226v5.4391891h-3.5281226v5.2186814c0,.3014462.7370938,1.1025383,1.1025383,1.1025383h2.4255843v4.9246712l-.3671048.2209155c-3.5087902.2958973-7.4007946.2977918-8.4093248-3.7929152-.0973878-.3950153-.3378872-1.5354248-.3378872-1.8671894v-5.8067018h-2.4990869v-5.4391891h2.646092c-.2013616-.4586111-.267929-2.8213514-.0037333-3.0173381l5.4429224-1.5398203Z"/>
      <rect class="st4" x="262.1754734" y="355.3965859" width="5.5861942" height="16.7585825"/>
      <path class="st4" d="M264.6425842,347.6397574c4.397473-.4804199,4.7618593,6.2667792.539122,6.4383103-4.1155111.1671755-4.5989256-5.9947804-.539122-6.4383103Z"/>
    </g>
  </g>
  <g id="CbSNaa">
    <g>
      <path class="st4" d="M90.2065104,295.8177211c-3.6715571.5470076-2.0523448,6.754197,1.7397728,5.0197892,2.67616-1.2240003,1.6709671-5.5279389-1.7397728-5.0197892ZM96.9825938,295.8152902c-2.9457781.5041044-2.4171273,5.5687768.8174266,5.308955,3.6112623-.2900816,3.2422239-6.0036739-.8174266-5.308955ZM82.8526438,304.5355964h-14.5410103c-.6363106,0,.6549596,1.9312789.4964032,2.2368695v20.3443764c.0102227.7869358-.7359784,1.3441174-.6603995,2.1275386h6.1771961c.4351221,0-.3722273-1.4366616-.43221-1.645077-.3429717-1.1916862-.2991358-6.0797998-.1742472-7.4891908.0346449-.3909742.0356704-.6595933.4909221-.7117178.844381-.0966783,2.9809526-.0867425,3.8330957.0058945.719723.0782415,1.2988704.6581187,2.0223119.6562952v-6.3411925c-.7264822.0207448-1.3092207.6568049-2.032188.7557501-.4493924.0615038-3.7177931.0675118-3.9785016-.0476093-.2124316-.0938035-.3082834-.3259267-.3361734-.5384738-.075449-.5749906-.0771739-3.6388169.0536545-4.1152017.0765226-.2786415.2898635-.2904422.5514859-.318387,1.4035725-.1499206,5.9970258-.1526136,7.2483991.1879695.302382.0822985,1.3272116.6070694,1.5441731.4585346.0802899-.1879531.109845-.3822568.1248279-.5869433.0837563-1.1442173.0877222-3.0220377-.0009746-4.1631587-.0220686-.2839219-.0414199-.7579099-.3867648-.8162763ZM92.2004362,304.5355964h-6.1771961c-.4528274,0,.3036789,1.2464267.3564955,1.3927996.1111481.3080294.2403389.6176667.2494332.9532061l.0780131,20.1482043c.7058447.6390094,1.9279423,2.3629728,2.8408956,2.5163187,3.0117421-.1225356,6.2899566.2527959,9.2715045.0308747.4421918-.032913.7143445-.0689219,1.0895258-.331776.2892491-.2026495,1.8223231-1.7354254,2.0218778-2.0233657.0973808-.1405121.2038347-.2593545.2123057-.4436797l.0016488-19.8965759c.0246779-.8398749.7136264-1.4995385.6605938-2.3460061h-6.1771961c-.4763759,0,.3863424,1.3858362.4343347,1.5336211.0856467.2637355.1588889.5330682.1708607.8131179l-.0308728,17.0324992c-.0582222.2169954-.0810773.5001952-.354226.5204212-.7953033-.1337028-4.752456.2135041-5.150557-.1001959-.1203276-.0948171-.1560137-.2413816-.1584585-.388196l-.0007527-17.1757685c-.097288-.4195183,1.0031605-2.0157649.66177-2.235499ZM111.1693482,304.5355964h-5.2478834l-.1544038.1793953c.2031387.8796304.6862328,1.3957627.7604449,2.3851599.4787031,6.3820786-.3719612,13.3541844-.0001123,19.7982236-.0188087.3582542-.1499246.7042686-.2800816,1.0318868-.0572125.1440097-.8156734,1.3141189-.3258472,1.3141189h6.1771961c.1972757-.4999359-.6559854-1.4904563-.6559854-1.8039599v-10.9877559l5.7398953,12.7895259,5.7398497-12.8988568v10.878425c0,.4464512-.6885434,1.2737659-.7478642,1.6653325-.0209401.138222.0338412.3572892.1465442.3572892h6.1771961c.18357-.8261855-.767089-1.4548666-.6606378-2.3459621l.0002383-20.2352838c-.0102659-.7868076.7360092-1.3442192.6603995-2.1275386h-5.4118798l-5.9058204,13.1228854-6.0112482-13.1228854Z"/>
      <path class="st4" d="M111.1693482,304.5355964l6.0112482,13.1228854,5.9058204-13.1228854h5.4118798c.0756097.7833194-.6706654,1.340731-.6603995,2.1275386l-.0002383,20.2352838c-.1064512.8910955.8442078,1.5197766.6606378,2.3459621h-6.1771961c-.112703,0-.1674843-.2190672-.1465442-.3572892.0593208-.3915666.7478642-1.2188813.7478642-1.6653325v-10.878425l-5.7398497,12.8988568-5.7398953-12.7895259v10.9877559c0,.3135036.8532611,1.304024.6559854,1.8039599h-6.1771961c-.4898262,0,.2686347-1.1701092.3258472-1.3141189.1301569-.3276181.2612729-.6736326.2800816-1.0318868-.3718489-6.4440392.4788154-13.416145.0001123-19.7982236-.0742121-.9893972-.5573061-1.5055295-.7604449-2.3851599l.1544038-.1793953h5.2478834Z"/>
      <path class="st4" d="M92.2004362,304.5355964c.3413905.219734-.759058,1.8159807-.66177,2.235499l.0007527,17.1757685c.0024448.1468144.038131.293379.1584585.388196.3981009.3137001,4.3552536-.0335069,5.150557.1001959.2731487-.0202261.2960038-.3034258.354226-.5204212l.0308728-17.0324992c-.0119718-.2800496-.085214-.5493824-.1708607-.8131179-.0479924-.1477849-.9107106-1.5336211-.4343347-1.5336211h6.1771961c.0530326.8464676-.6359159,1.5061312-.6605938,2.3460061l-.0016488,19.8965759c-.008471.1843252-.1149249.3031676-.2123057.4436797-.1995547.2879403-1.7326287,1.8207162-2.0218778,2.0233657-.3751813.262854-.647334.2988629-1.0895258.331776-2.981548.2219212-6.2597624-.1534102-9.2715045-.0308747-.9129533-.1533459-2.1350509-1.8773093-2.8408956-2.5163187l-.0780131-20.1482043c-.0090942-.3355394-.138285-.6451767-.2494332-.9532061-.0528166-.1463729-.809323-1.3927996-.3564955-1.3927996h6.1771961Z"/>
      <path class="st4" d="M82.8526438,304.5355964c.345345.0583664.3646962.5323544.3867648.8162763.0886968,1.141121.0847309,3.0189414.0009746,4.1631587-.014983.2046865-.044538.3989903-.1248279.5869433-.2169615.1485347-1.2417911-.3762361-1.5441731-.4585346-1.2513733-.3405831-5.8448266-.3378901-7.2483991-.1879695-.2616224.0279448-.4749633.0397455-.5514859.318387-.1308284.4763847-.1291035,3.5402111-.0536545,4.1152017.02789.2125472.1237418.4446704.3361734.5384738.2607085.1151211,3.5291092.1091131,3.9785016.0476093.7229673-.0989452,1.3057058-.7350053,2.032188-.7557501v6.3411925c-.7234415.0018235-1.302589-.5780537-2.0223119-.6562952-.8521431-.0926369-2.9887147-.1025728-3.8330957-.0058945-.4552517.0521246-.4562772.3207437-.4909221.7117178-.1248885,1.4093911-.1687244,6.2975047.1742472,7.4891908.0599827.2084154.8673321,1.645077.43221,1.645077h-6.1771961c-.0755789-.7834212.6706222-1.3406028.6603995-2.1275386v-20.3443764c.1585565-.3055906-1.1327138-2.2368695-.4964031-2.2368695h14.5410103Z"/>
      <path class="st4" d="M90.2065104,295.8177211c3.4107398-.5081497,4.4159328,3.7957889,1.7397728,5.0197892-3.7921176,1.7344079-5.4113298-4.4727816-1.7397728-5.0197892Z"/>
      <path class="st4" d="M96.9825938,295.8152902c4.0596505-.6947189,4.4286888,5.0188734.8174266,5.308955-3.2345539.2598218-3.7632047-4.8048506-.8174266-5.308955Z"/>
    </g>
  </g>
  <g id="_x34_Oeb3J.tif">
    <g>
      <path class="st4" d="M159.0641336,370.197489c-.9705241.7238364-2.1047448.309209-3.1745763.475523-1.2647769.1966198-3.4242156,1.6107867-4.2984691,2.5516557-.8726367.939129-1.3516458,2.1368156-2.1336524,3.1400858-.2443816-.000587-.7424351-1.4578715-.8443867-1.7349533-.7440342-2.0221201-1.2509383-4.5909225-2.154718-6.4862668-.0718496-.150678-.1350209-.261377-.2582281-.0760587-1.2987542,2.3378413-3.0873517,4.1030686-2.1657114,6.9824515.616369,1.9256563,1.9123011,3.8776785,2.618304,5.8006237.0654134.1577219.0805435.3165977.0317844.4822265-.0670431.2277375-1.0333374,1.4132723-1.2629814,1.7737795-3.9196546,6.1532809-6.4389203,12.9985168-9.1667141,19.7325401,5.512312-4.3354046,8.1653099-11.0487454,12.1918644-16.6006973l7.6958352,11.6651839c-.3613769-.9427178-.3807199-1.8582378-.3348831-2.8591852.0274204-.5987854.2807023-1.536516.1998963-2.1032303-.0832557-.5838942-1.0477455-2.2354433-1.3448571-2.9255032-.5414131-1.2574652-1.1110038-2.5365592-1.5552634-3.8317199-.9600421-2.7988343-1.4630393-4.0907932.4037093-6.6680678,1.4593768-2.0148481,3.5941343-3.658857,5.0179346-5.7594549.1730397-.2552934.6894786-1.0262252.7592628-1.2617444.0451799-.1524806-.0047746-.2027492-.1588219-.1592208l-1.1873889.3291506,1.122061-2.4671179ZM144.9063064,369.0762748l-.1043246-.8492693c-1.1586632-.269975-.8895238,1.0032785.1043246.8492693ZM100.1552391,368.4319697c-.8681307.1260289-1.9580756.9243118-2.1009454,1.8287764-.5826979,3.6888801,4.7565436,3.610017,5.1520023.7683362.2739709-1.9686959-1.2510624-2.8584227-3.0510569-2.5971125ZM137.8670105,372.4008456c1.3481269,1.3456829,4.249293.6978566,4.6279604-1.3006372.6585575-3.47567-4.9258535-3.5710849-5.2186109-.4966255-.0621254.6524242.1275927,1.3350443.5906505,1.7972627ZM157.4639448,369.1035809c-.7155453-.7055361-1.2007308,1.4066927-.0258917.7595638.1685606-.1991834.2177417-.5703974.0258917-.7595638ZM74.8983894,389.3786582h4.2139624l2.4721921-11.5547132,6.8213572,11.5309645,3.6844659.0228029,3.7092757-18.619386h-4.3825209l-2.303629,11.5547176-6.821362-11.5309686-3.670388-.0090989-3.7233534,18.6056817ZM113.338091,380.1735793l3.5791241-1.7426866c-1.7961048-4.1382012-7.6702684-4.4723112-11.1918923-2.419781-3.0634867,1.7855112-4.6188592,5.4058777-3.8024502,8.8817796,1.3943236,5.9364022,11.0976403,6.1406447,13.9786302,1.2881892l-3.0636306-1.954175c-2.536703,3.3838888-7.8999723,2.1629821-6.6667705-2.7231344.8450698-3.3482835,5.5342186-4.6453758,7.1669893-1.3301917ZM101.8677484,375.020812h-4.2701485l-2.8093082,14.3578462h4.10159l2.9778667-14.3578462ZM141.0856914,375.020812h-4.1577762l-2.8093082,14.3578462h4.1577762l2.8093082-14.3578462Z"/>
      <path class="st4" d="M159.0641336,370.197489l-1.122061,2.4671179,1.1873889-.3291506c.1540473-.0435284.2040018.0067401.1588219.1592208-.0697842.2355191-.5862231,1.006451-.7592628,1.2617444-1.4238003,2.100598-3.5585578,3.7446068-5.0179346,5.7594549-1.8667485,2.5772746-1.3637514,3.8692335-.4037093,6.6680678.4442596,1.2951608,1.0138502,2.5742547,1.5552634,3.8317199.2971116.6900599,1.2616015,2.341609,1.3448571,2.9255032.080806.5667143-.1724758,1.5044449-.1998963,2.1032303-.0458368,1.0009474-.0264938,1.9164674.3348831,2.8591852l-7.6958352-11.6651839c-4.0265545,5.5519519-6.6795524,12.2652927-12.1918644,16.6006973,2.7277938-6.7340232,5.2470595-13.5792592,9.1667141-19.7325401.229644-.3605073,1.1959383-1.546042,1.2629814-1.7737795.0487591-.1656288.033629-.3245046-.0317844-.4822265-.7060029-1.9229452-2.001935-3.8749674-2.618304-5.8006237-.9216403-2.8793829.8669572-4.6446102,2.1657114-6.9824515.1232072-.1853183.1863785-.0746193.2582281.0760587.9037798,1.8953443,1.4106838,4.4641467,2.154718,6.4862668.1019516.2770818.6000051,1.7343663.8443867,1.7349533.7820066-1.0032702,1.2610156-2.2009568,2.1336524-3.1400858.8742535-.940869,3.0336922-2.3550359,4.2984691-2.5516557,1.0698315-.166314,2.2040523.2483134,3.1745763-.475523Z"/>
      <polygon class="st4" points="74.8983894 389.3786582 78.6217428 370.7729765 82.2921308 370.7820755 89.1134928 382.313044 91.4171218 370.7583264 95.7996426 370.7583264 92.0903669 389.3777125 88.405901 389.3549096 81.5845438 377.8239451 79.1123517 389.3786582 74.8983894 389.3786582"/>
      <path class="st4" d="M134.7994809,375.9660038c-.2380349-3.333441-3.0131713-5.0165733-6.1249641-5.2136161-2.8736577-.1806059-5.9361398.1477821-8.8262345.0082185l-3.5960812,18.6212962h4.3842524l1.0017512-5.1150947c2.3974877-.1888744,4.827749.2134797,7.1759259-.344875,3.8999641-.9277849,6.2645779-3.8753087,5.9853504-7.9559287ZM127.0981744,380.6295839h-4.7785384l1.3383075-6.3467125c2.3892692-.0328238,6.9543279-.7225237,6.7490666,2.9229184-.0904032,1.6585271-1.5846611,3.423794-3.3088357,3.423794Z"/>
      <path class="st4" d="M113.338091,380.1735793c-1.6327708-3.315184-6.3219196-2.0180918-7.1669893,1.3301917-1.2332018,4.8861166,4.1300675,6.1070232,6.6667705,2.7231344l3.0636306,1.954175c-2.8809899,4.8524555-12.5843066,4.648213-13.9786302-1.2881892-.816409-3.475902.7389635-7.0962685,3.8024502-8.8817796,3.5216239-2.0525302,9.3957875-1.7184202,11.1918923,2.419781l-3.5791241,1.7426866Z"/>
      <polygon class="st4" points="141.0856914 375.020812 138.2763832 389.3786582 134.118607 389.3786582 136.9279152 375.020812 141.0856914 375.020812"/>
      <polygon class="st4" points="101.8677484 375.020812 98.8898817 389.3786582 94.7882917 389.3786582 97.5975999 375.020812 101.8677484 375.020812"/>
      <path class="st4" d="M137.8670105,372.4008456c-.4630578-.4622183-.6527759-1.1448385-.5906505-1.7972627.2927574-3.0744595,5.8771684-2.9790446,5.2186109.4966255-.3786674,1.9984938-3.2798335,2.6463201-4.6279604,1.3006372Z"/>
      <path class="st4" d="M100.1552391,368.4319697c1.7999945-.2613102,3.3250279.6284167,3.0510569,2.5971125-.3954587,2.8416808-5.7347003,2.9205439-5.1520023-.7683362.1428698-.9044646,1.2328147-1.7027474,2.1009454-1.8287764Z"/>
      <path class="st4" d="M157.4639448,369.1035809c.19185.1891664.1426689.5603804-.0258917.7595638-1.1748392.647129-.6896537-1.4650999.0258917-.7595638Z"/>
      <path class="st4" d="M144.9063064,369.0762748c-.9938483.1540092-1.2629878-1.1192442-.1043246-.8492693l.1043246.8492693Z"/>
    </g>
  </g>
  <g>
    <path class="st4" d="M368.4472263,361.8111689c.0429763.0355536.0674807.143565.016301.1855493-.056015.0696125-.2558588.1070864-.3480721.1283731-.7795854.1799611-1.6649511.230154-2.4654616.3783479-.4317252.0799228-1.5167038.2604521-1.8419651.4847882-.4679649.3227602-.2279095.8750164.3213957.7962412,1.3860418-.1664517,2.9810651-.6642781,4.3579166-.7309953.1189822-.0057654.203812.0257212.3161048.0400582.0214356.1570789-.0854691.2001526-.2132589.2387858-1.0610449.3207733-2.3617008.3746725-3.4416477.6517179-.2982515.0765123-.5785752.1668416-.5229266.549251.0515929.3545389.5238192.3029487.7970177.285014,1.2347312-.0810566,2.5883961-.5772568,3.7951597-.685626.1641092-.0147372.4063965-.0480907.3993537.179691-.0465897.0886492-.1239361.1380722-.2101138.181488-.6730995.3391034-1.7507414.5138024-2.4797514.7949526-.1675654.0646233-.3749778.1267601-.4053584.3281985-.0476303.3158116.2146415.416491.4910263.4071657.6831946-.0230514,1.902276-.5151047,2.65181-.6693458,1.7348004-.3569918,2.945007-.4623723,4.4520274-1.5372126,1.3593739-.9695355,2.0298721-2.3434623,3.2174485-3.4612004.8898521-.8375223,2.019485-1.6541531,3.1305648-2.1692662,4.4329397-2.0551768,9.7974427-.3322587,13.7639008,2.0014935-1.8696349,4.4611374-5.4017035,9.2095604-10.5444898,9.8786171-2.5899024.3369363-5.1981925-.2582762-7.6021916-1.179976-2.0605127.9308452-3.3326636,3.1950667-3.0133349,5.4518013-.1136728-.0948263-.193031-.3187671-.2480183-.4624924-1.1811514-3.0872829.9304446-6.5597322,4.1964907-6.9431652.1368623-.0160676.5186702-.057101.6353756-.0467867.21004.0185631.9430032.5475107,1.2652381.6774073.7554396.3045264,1.5871984.3570994,2.3061993.6237887.286819.1063859.5419604.3033915.8215234.4280303.4874063.2173024,1.0430923.3581527,1.5360243.5783351.4959394-.0464349.3650713-.5568091.1816934-.8739465-.5341541-.9237768-2.1872294-.7563203-2.6301997-1.5064414-.1327643-.2248217-.1100405-.3817446.0567397-.5767152.3801684-.4444271,1.7796351-.9663782,2.3596205-1.1736294.7505737-.2682089,3.0304081-.8217578,3.5006846-1.2389997.3804984-.3375884.1899832-.7443974-.3440135-.6883085-.4180537.0439107-1.1758618.3948315-1.6254302.5285612-.4246477.1263168-.8502164.2541843-1.2819872.355359-.2235827.052391-.8922817.2527661-1.0526311.1460746-.1890968-.1258191.0869887-.2644556.1913-.3180592,1.1766719-.6046696,2.7138641-.8833493,3.863731-1.6083899.6017076-.3794025.531599-1.0333883-.2111706-.9004311l-4.0609324,1.6265485-.4111291.0408932c-.0206864-.145861.102316-.2201657.2129078-.2822083.9148187-.5132183,2.1294502-.8540953,3.0908565-1.3041254.304836-.1426924.763238-.4133092.4249623-.785062-.2272838-.2497767-.582681-.0735745-.8526923.012627-1.1585676.3698746-2.3908036,1.1297546-3.4987409,1.456369-.4705749.1387231-.5484263-.1125425-.1934259-.3657449.6642624-.4737822,1.6617703-.84567,2.2947366-1.3246735.3185792-.241088.3254067-.6474255-.0841506-.6676138-.4269019-.0210434-2.0572442.9657725-2.5719496,1.2000272-.9284872.4225766-1.7331958.6402409-2.6106195,1.2242176-1.3714018.9127479-2.2911713,2.2275104-3.5596398,3.2482733-4.4961414,3.6181379-8.9706943,3.8721583-14.0099859,1.0856893-1.435794-.7939203-3.05582-1.9502506-4.2370642-3.0876323-.0425891-.0410077-.1291272-.099535-.1228882-.1655218.0098885-.1045857.8887626-1.2144345,1.0291146-1.3851805,2.5982968-3.1609729,6.8283929-6.4695322,11.1741325-5.9195077,1.8021975.2280976,3.9069298,1.0265268,5.5722272,1.7527425.5574468.2430957,1.7014862.7045722,2.1560227,1.0324971.338932.2445221.0025185.7906756-.2022429,1.022876-.6067316.6880368-1.6609919.6766313-2.4279702.2716037-.3733884-.1971798-.6486974-.5830097-1.023696-.8290905-.558277-.3663513-1.2243304-.5606535-1.7760015-.895458-.6706349-.4070026-1.3326865-1.0818-2.0576821-1.4751693-.47875-.2597609-.6056231.1717714-.5462807.5892883.1585698,1.1156541,2.1841952,1.4024002,2.312787,2.2546294.0700761.4644225-.3485704.5838643-.7075549.7087991-1.2486593.4345621-2.9368165.5058744-4.2669661.6450725-.4473894.0468186-1.3769383-.0145194-1.6584484.409469-.2155155.3245925.0712568.566265.4080853.5842538.831223.0443927,1.96893-.3055466,2.8432848-.2625622.2357626.0398088,1.0678432-.0689151,1.218319.055571Z"/>
    <path class="st4" d="M419.431866,390.6694616v4.6535102c-.2926203-.2183785-.655441-.3014265-1.0132426-.3440312-.429395-.0511296-1.0966702.0501252-1.4399966-.1973496-.4105181-.2959076-.5218682-.9009276-.5649688-1.3739938l.0243831-12.1305371c.5896711-.8195414,1.4633876-1.1460546,2.4257042-1.3229568,1.8701161-.3437826,5.0400414-.377369,6.577625.8925609,1.9111371,1.5784574,2.0285672,5.8404768.8331168,7.8539107-1.3145643,2.2140511-4.5523749,2.6062289-6.8426211,1.9688867ZM419.437479,388.1215422c1.2090791.3456689,2.6033316.4720141,3.634402-.3829944.8645009-.7168818,1.0205734-2.4916909.6996575-3.4985294-.6141759-1.926909-2.6833339-1.8591778-4.3375187-1.5398449l.0034592,5.4213687Z"/>
    <path class="st4" d="M326.6201903,375.5024654v4.2872617l-1.0771851,1.2706745c.5410933-.1711607.8768551-.7057865,1.3796121-.9251594,1.1101318-.4843945,3.1033816-.3032357,4.2211324.1291401,2.4576298.9506766,3.1803909,3.1692883,3.0617129,5.6456232-.1883994,3.9311398-2.2138079,5.1784468-5.971227,5.1490471-1.285753-.0100603-3.8787338-.2324503-4.58908-1.4863777-.0969203-4.111154-.0114519-8.2489023-.0430678-12.3701698.0467123-.4418422.155067-1.0060003.5952377-1.2144607.4938292-.2338726,1.2507849-.1165202,1.8213424-.2468844.2287233-.05226.3904375-.1598554.6015225-.2386946ZM326.6257689,388.0784818c.9745881.2590366,2.0214398.3140153,2.9779405-.0484927,1.3346096-.5058089,1.6363005-1.9886312,1.4428442-3.2734287-.3555107-2.3610455-2.4329111-2.6342679-4.4221071-2.0973323l.0013224,5.4192536Z"/>
    <path class="st4" d="M389.0978736,380.1559756c.4400987-.1425531.9006768-.2457845,1.3625787-.2963116,2.0406874-.2232292,4.5362355-.2546736,5.4230563,1.9774799.0892131.2245519.3238945.9757455.3238945,1.1841875v7.8635705c-1.4425408.2424711-2.9283221.0321746-3.058705-1.7025253-.1011699-1.3460311.0614161-2.8172711.0012298-4.1807714-.0188133-.4262099-.0964925-1.5099189-.3103604-1.8440424-.4944303-.7724432-2.3293123-.6315176-3.1042697-.4467444-.1149418.0274056-.6048193.1510424-.6315589.2302022l-.0043144,6.4588942c-.0667081,1.5266772-1.8713314,1.5795477-3.0177149,1.4849871v-15.5547887c.1579921.0609125.3008922.1520293.4646661.2031988.5266319.1645408,1.0590943.0848304,1.5821302.1413921.4157461.0449592.7374072.4501806.8530435.8273908.0262282.0855575.1163243.4667209.1163243.5299966v3.1238842Z"/>
    <path class="st4" d="M408.3582352,388.7951311c-.2082836,2.2531009-2.2446219,2.2892418-4.0270685,2.2600595-3.4476836-.0564456-5.594446-1.0554139-5.925839-4.7596006-.1560199-1.7439324.033917-4.1809233,1.4870457-5.3630879,1.7918162-1.4576972,6.4875283-1.6429736,8.0570371.213987,1.0226502,1.2099462,1.5193604,4.546303-.3435428,5.2158402-1.8149778.6523125-4.0765114-.0425519-5.9248062.6894074.032523.8669456.9935656,1.1108803,1.7011944,1.2041023,1.6754072.0877572,3.3229615-.1848226,4.9759794-.3871013-.0200488.2998911.0273485.6305519,0,.9263932ZM401.5503222,383.9261806c-.0372209.2754231.0272811.6203063,0,.9048492l.0876678.0460236c1.0875181-.5570165,2.6348989-.0441221,3.6616798-.6485699.5728835-.3372464.6576208-.9799935.0996267-1.3936415-1.1760735-.8718379-3.6193033-.6081563-3.8489742,1.0913386Z"/>
    <path class="st4" d="M345.8374639,388.708955c-.1528048,1.7357322-1.2384952,2.2246214-2.822712,2.3478549-2.0073268.1561465-5.0231875-.0999939-6.2606609-1.9251815-1.2568221-1.8537256-1.3127324-6.316433.3367373-7.9628434,1.7051729-1.7020103,6.6675687-1.9324479,8.2947225-.0653836,1.082731,1.2423709,1.5843597,4.6464309-.400463,5.2881836-1.8327222.592574-3.9789002-.0574629-5.8227967.6617119.0095498.8655811.9583687,1.0964206,1.6560915,1.2025562,1.6898878.0884666,3.3519121-.1809203,5.0190813-.3871152-.017347.2728482.0237308.570656,0,.8402171ZM339.0297857,384.8954529c.2903072-.1095223.580165-.2031607.8888926-.2524971.821263-.1312424,1.8104685.0077756,2.5697332-.2740786.7969119-.2958296,1.0835113-1.0934408.2862854-1.6025591-1.0307308-.6582374-2.9600141-.6023242-3.5605571.6119545-.2439505.49326-.2062189.9858335-.184354,1.5171804Z"/>
    <path class="st4" d="M373.9739654,387.8687378v1.0125693c0,.1211431-.1419585.6174356-.1944234.7535138-.5194204,1.3472216-2.0826323,1.3936919-3.3189535,1.4204678-3.5718708.0773585-6.215014-.8900575-6.4417623-4.8867313-.2237761-3.9442853.9609096-6.1918962,5.1512617-6.3568455,2.7803617-.1094463,5.099115.6800578,5.2799215,3.8107769.2314543,4.0077009-3.1416007,2.7497661-5.8343656,3.1321009-.1868497.02653-1.2847709.2225075-1.3063712.3575046.0827103.8295148.9998247,1.0402383,1.6886982,1.14376,1.6750353.085048,3.3239803-.1754407,4.9759947-.3871166ZM367.2095285,384.8957094c.9823742-.5901669,3.1283011-.0282715,3.92214-.7956617.6739049-.6514521.0337338-1.2794923-.6185295-1.5389032-1.7557774-.6982882-3.7429682.2504421-3.3036105,2.3345649Z"/>
    <path class="st4" d="M351.2234711,377.0536354v2.8868998h3.4039565c.0507447,1.0246274-.3972087,2.1089364-1.3925785,2.5068907-.1636641.0654338-.6284049.207657-.7833684.207657h-1.2280096v4.7612303c0,.0336212.0658726.2922636.0837476.3471549.3571622,1.0967895,2.1697841.5227452,3.0133883.4983347.2283851.6438931.2451971,1.340152-.0172063,1.9759117-.2372721.574871-.5460839.7014641-1.1321272.8068353-2.1874235.3933011-4.6415787-.6289254-4.9587268-3.0302435l-.0006067-9.5987643c.0991919-.52241.3472208-.9249214.8458327-1.1362179.1373271-.0581951.6876968-.2256888.8084246-.2256888h1.3572738Z"/>
    <path class="st4" d="M359.367114,377.0536354v2.8868998h3.4039565c.0507444,1.0246318-.397211,2.1089372-1.3925785,2.5068907-.1636637.0654337-.6284048.207657-.7833684.207657h-1.2280096v4.8043184c0,.0774897.0882872.3458714.1280023.4321424.424189.921442,2.191713.3914661,2.9691334.3702592.3207645.7070853.2136445,2.3154075-.5983175,2.644354-2.0530423.8317396-5.3386569-.4225233-5.5094376-2.8921555l-.0008921-9.5984396c.0923332-.5312836.3416669-.9225282.8458131-1.1362375.1372712-.0581898.6877406-.2256888.8084246-.2256888h1.3572738Z"/>
    <path class="st4" d="M411.0727829,390.8849019v-15.5547887c.1579775.060905.3008875.152027.4646661.2031988.5266024.1645341,1.0590624.0848346,1.5821301.1413922.5235464.0566093.8236155.5990824.9145135,1.0675371.0903005,4.3177888.0930039,8.6718194-.0010653,12.9879956-.2834927,1.2274418-1.9512549,1.2332597-2.9602445,1.154665Z"/>
    <path class="st4" d="M383.9273067,379.8112711v1.2710977c0,.1567804-.1706678.7159724-.2507489.8695406-.6524295,1.2511374-2.7991303.1305471-3.712182,1.2429446-.1871178.2279711-.3458749.7868151-.3458749,1.076031v6.9587213c-1.0208156-.7685159-2.8723483-.2268637-3.0177179-1.9158647.1051675-2.0161947-.1345069-4.1643967-.0002119-6.1649118.0806753-1.2017736.7307806-2.4111306,1.8391715-2.9436028.2966513-.1425116,1.0609549-.3939559,1.3726545-.3939559h4.1149095Z"/>
  </g>
  <path class="st0" d="M269.2606652,247.1146701h-6.7979921v16.3788029c0,2.0807923-.4679993,3.6335999-1.4640015,4.7171998-.9671997,1.0847901-2.4036072,1.6415955-4.2492005,1.6415955s-2.1684083-.235199-2.9880067-.6743958l-.1175903-.0587952c-.8796021-.4980103-1.5240052-1.230011-1.963202-2.1384156-.4391968-.9959839-.6743958-2.1095948-.6743958-3.4571961v-16.4087956h-6.7968019v16.3788029c0,2.0807923-.4692078,3.6335999-1.46521,4.7171998-.9671997,1.0847901-2.4035889,1.6415955-4.2492005,1.6415955-1.8455933,0-2.1683899-.235199-2.9879884-.6743958l-.1176086-.0587952c-.8796021-.4980103-1.5240052-1.230011-1.963202-2.1384156-.4391968-.9959839-.6743958-2.1095948-.6743958-3.4571961v-16.4087956h-6.7679994v16.6716069c0,2.4611939.5280029,4.6595948,1.5828003,6.5640016,1.0547974,1.875586,2.5487916,3.3695985,4.4243959,4.4531984,1.8743958,1.0847901,4.0727967,1.6116028,6.503998,1.6116028,2.4324097,0,4.6296022-.5268128,6.5340089-1.5816101.9671997-.5280029,1.8455933-1.2011902,2.6375977-2.0219971.7907959.7907959,1.670398,1.4651917,2.5775941,1.9920044,1.8756043,1.0847901,4.0727967,1.6116028,6.5052065,1.6116028,2.4323914,0,4.6296022-.5268128,6.5339906-1.5816101,1.8756043-1.0259949,3.3408143-2.5200074,4.3956117-4.4243959,1.0547974-1.9044068,1.5815918-4.1316102,1.5815918-6.6227968v-16.6716069Z"/>
  <g>
    <g>
      <path class="st4" d="M339.8305615,126.3543189l2.0322145,3.9401384,4.3068063-3.9401384h4.8619674l-7.2445597,6.858824c-.0906482.3297968.2921289.9052433.4534633,1.2247025,1.0715417,2.121767,2.5489704,4.1641822,3.5908141,6.3177439h-4.8619674l-2.5870466-4.431666-4.921308,4.431666h-4.8619674l7.9811554-7.4644029-3.7961708-6.9368675h5.046599Z"/>
      <path class="st4" d="M283.7025332,126.354155l-2.8223944,10.6630951-.0369323.141554-4.1554447,2.0001764-.2461756.1193915.9822381-4.3080723-6.2861014.0541589-.2744833.2227886-1.5595126,5.4330965c-.0923158.008617-.2351169.0750817-.3101836.0750817h-3.5080018l3.8157212-14.4012704h3.938809l-1.4770534,5.6620379h6.4621085l1.5385973-5.6620379h3.938809Z"/>
      <path class="st4" d="M266.5919661,130.908094c-2.4225916-1.4513519-5.0774277-2.0924008-7.7510404-.7974734-3.7028112,1.7934055-4.6150756,7.4071625.5453361,7.5730626,2.0872765.0671031,4.1268652-.8834468,5.9749545-1.7284963l-1.0573006,3.5572327c-3.3529854,1.7587835-9.9394994,2.4374972-12.0364065-1.4786654-2.149812-4.0149672,1.345081-8.8947256,4.9453459-10.6589943,2.9129011-1.427434,7.5060727-1.8569064,10.2284876.1680623l-.8493765,3.3652719Z"/>
      <path class="st4" d="M313.6128641,140.7555893l3.995659-14.4094526c2.4132764.3232474,7.1115474-.718514,9.0431207.8167779,1.4521526,1.1542291,1.2755,3.2735986.4786647,4.7696868-1.6446747,3.0879384-4.9384408,3.3336022-8.0842293,3.178297l-1.6790378,5.6446909h-3.7541773ZM319.6441654,132.1394447h3.0156506c.8751011,0,1.9658543-1.790441,1.2997848-2.5314591-.493024-.5485007-2.8677871-.1919067-3.624832-.3070854l-.6906034,2.8385444Z"/>
      <polygon class="st4" points="333.7992602 126.3543189 329.983539 140.7555893 326.04473 140.7555893 329.8604512 126.3543189 333.7992602 126.3543189"/>
    </g>
    <path class="st4" d="M312.6897057,126.354155l-6.5248845,8.3712012c-.2449435.0504702-.1784713-.0923158-.2387831-.2474076-.2757154-.7028264-.5354439-1.8795453-.7348304-2.6513081-.4640433-1.8044636-.775459-3.6680144-1.3182653-5.4564834l-3.4255426-.0110737-1.6161582,6.2614748-4.1726638.5046569-1.249359-6.753826-4.3326839-.0221549-6.7267352,10.0378071c-.4615792.182175-.9551624.3938824-1.4696609.6302088l-.0369323.141554-4.1554447,2.0001764c-1.9189493,1.0610161-3.5830985,2.158957-4.9973759,3.1965861h10.5129466c.8160576-.8542295,1.7342876-1.7441518,2.7608505-2.641459,1.3872017-1.2148758,3.2064427-2.4580669,4.4693246-3.3209134.0036962-.0024566.0085945-.0061529.0122907-.0086095l1.4586022-.9182376.9342471,5.2792367,3.970783-.007385.1514256-.2351019-1.1668998-6.7501297,3.9252862-.9970155-2.0912602,7.9994737,3.8563498.0061604,2.2955751-7.7606906,1.2554894,7.7926871c.1206236.3224969.5822028.2018658.8739353.2092507l5.2558423-7.7557623-1.8450846,7.5083547h3.938809l3.6926334-14.4012704h-3.2618262ZM287.6425743,134.7241241c-.1119991-.1464748.6179031-1.2874934.7606741-1.5152103.3939049-.6277447,1.0327233-1.6789116,1.4745892-2.2180367.1317123-.1600201.2104753-.3754237.4702037-.3274177l.3188082,3.2076673-3.0242752.8529974Z"/>
  </g>
  <path d="M463.2973105,37.6150966l-.050622.1940237-5.6957405,2.7415804c.0118214-.0050663.0236016-.0118111.0354231-.0185559,1.9115274-1.0561428,3.9039924-2.0903521,5.7109394-2.9170482Z"/>
</svg>