<?xml version="1.0" encoding="UTF-8"?>
<svg id="Layer_1" xmlns="http://www.w3.org/2000/svg" xmlns:xlink="http://www.w3.org/1999/xlink" version="1.1" viewBox="0 0 80 80">
  <!-- Generator: Adobe Illustrator 29.4.0, SVG Export Plug-In . SVG Version: 2.1.0 Build 152)  -->
  <defs>
    <style>
      .st0 {
        fill: none;
      }

      .st1 {
        fill: #28292a;
      }

      .st2 {
        fill: url(#New_Pattern_Swatch_1);
      }
    </style>
    <pattern id="New_Pattern_Swatch_1" data-name="New Pattern Swatch 1" x="0" y="0" width="19.8620682" height="19.8620682" patternTransform="translate(-5775.4478347 -10175.6130893) scale(.665437 -.665437)" patternUnits="userSpaceOnUse" viewBox="0 0 19.8620682 19.8620682">
      <g>
        <rect class="st0" width="19.8620682" height="19.8620682"/>
        <g>
          <rect class="st0" width="19.8620682" height="19.8620682"/>
          <rect class="st1" width="19.8620682" height="19.8620682"/>
        </g>
      </g>
    </pattern>
  </defs>
  <path class="st2" d="M79.9999998,12.9180727h-12.5659933v30.2775936c0,3.8456336-.8666178,6.7163172-2.7082167,8.7203792-1.7873939,2.004062-4.4414328,3.033174-7.8537497,3.033174-3.4123208,0-4.0081278-.4333128-5.5246993-1.2457724l-.216672-.1083243c-1.6249269-.9207878-2.8165059-2.2748844-3.628985-3.9539618-.8124479-1.8415755-1.2457607-3.8997996-1.2457607-6.3913346V12.9180727h-12.5660284v30.2775936c0,3.8456336-.8666256,6.7163172-2.7081894,8.7203792-1.7873978,2.004062-4.4414289,3.033174-7.8537497,3.033174-3.4123247,0-4.0081259-.4333128-5.5247148-1.2457724l-.2166525-.1083243c-1.6249162-.9207878-2.8165215-2.2748844-3.6289811-3.9539618-.8124566-1.8415755-1.2457675-3.8997996-1.2457675-6.3913346V12.9180727H0v30.8192327c0,4.549763.9749492,8.612053,2.924848,12.1327019,1.9498996,3.4664868,4.7122541,6.2288462,8.1787419,8.2329081,3.4664868,2.004062,7.5287748,2.9790119,12.0243737,2.9790119s8.5578752-.9749499,12.0785417-2.9248497c1.78739-.9749499,3.4123169-2.2207184,4.8747456-3.7373054,1.4624288,1.462421,3.0873245,2.7081894,4.7664252,3.6831393,3.4664907,2.004062,7.5287573,2.9790119,12.0243679,2.9790119,4.4956067,0,8.5578772-.9749499,12.0785417-2.9248497,3.4664946-1.8957338,6.1746801-4.6580892,8.1245644-8.1787421,1.9499154-3.520649,2.9248575-7.6371011,2.9248575-12.2410301V12.9180727"/>
</svg>