<?xml version="1.0" encoding="UTF-8"?>
<svg id="Layer_1" xmlns="http://www.w3.org/2000/svg" xmlns:xlink="http://www.w3.org/1999/xlink" version="1.1" viewBox="0 0 1111.5422118 329.5000034">
  <!-- Generator: Adobe Illustrator 29.4.0, SVG Export Plug-In . SVG Version: 2.1.0 Build 152)  -->
  <defs>
    <style>
      .st0, .st1, .st2, .st3, .st4, .st5, .st6, .st7 {
        fill: none;
      }

      .st0, .st1, .st2, .st3, .st5, .st7 {
        stroke-miterlimit: 10;
      }

      .st0, .st1, .st2, .st4, .st5, .st6, .st7 {
        stroke-width: 3px;
      }

      .st0, .st2, .st4, .st5, .st6 {
        stroke-linecap: round;
      }

      .st0, .st7 {
        stroke: #787878;
      }

      .st1 {
        stroke: #ee6c4d;
      }

      .st2, .st6 {
        stroke: #cacac9;
      }

      .st3 {
        stroke: url(#linear-gradient);
      }

      .st4 {
        stroke: #32a2fe;
      }

      .st4, .st6 {
        stroke-linejoin: round;
      }

      .st5 {
        stroke: #787879;
      }
    </style>
    <linearGradient id="linear-gradient" x1="286.7404052" y1="66.0245472" x2="288.3304052" y2="66.0245472" gradientUnits="userSpaceOnUse">
      <stop offset="0" stop-color="#ee6c4d"/>
      <stop offset="1" stop-color="#777"/>
    </linearGradient>
  </defs>
  <path class="st0" d="M584.0649624,90.1284062l-47.0969849,2.6559982M584.0649624,90.1284062l-1.3880005-24.4144058-47.0969849,2.6560059,1.3880005,24.4143982M584.0649624,90.1284062l1.1099854,19.5205994M584.0649624,90.1284062l-1.401001-24.4275055-1.4940186-26.1938972c-.197998-3.4672012-3.1989746-6.1100998-6.6889648-5.9138985-3.5020142.1962967-6.5029907-2.4466019-6.6879883-5.9139023l-1.1630249-20.266819c-.1849976-3.4541302-3.1860352-6.1101502-6.6890259-5.9008102l-9.0679932.5102701c-3.5020142.1831799-6.1719971,3.1532097-5.973999,6.6204195l1.1500244,20.26684c.197998,3.4542007-2.4849854,6.424202-5.9750366,6.6203995-3.5029907.1963005-6.1729736,3.1663017-5.9879761,6.6336021l1.4940186,26.1938019,1.3880005,24.4274979M536.9679775,92.7844044l.4359741,7.5886002M539.7439785,141.5220066l5.3399658,93.5749969c.1849976,3.4669952,3.1849976,6.1100006,6.6879883,5.9140015l14.0250244-.7980042,13.0460205-.6409912"/>
  <path class="st6" d="M562.6069546,114.6090046c2.8339844-1.6110001,6.1140137-2.5279999,9.6030273-2.5279999h37.2859497c10.7190552,0,19.4040527,8.6719971,19.4040527,19.3740005,0,5.3439941-2.1650391,10.1909943-5.6810303,13.701004-3.5159912,3.4980011-8.3699951,5.6719971-13.7230225,5.6719971h-37.2859497c-9.8000488,0-17.8950195-7.2570038-19.2070312-16.6750031"/>
  <path class="st6" d="M622.1159878,150.8300053h-37.5080566c-11.8319702,0-21.4239502,9.5769958-21.4239502,21.3909912v1.9520111c0,11.8139954,9.59198,21.3909912,21.4239502,21.3909912h37.5080566c11.8329468,0,21.4239502-9.5769958,21.4239502-21.3909912v-1.9520111c0-11.8139954-9.5910034-21.3909912-21.4239502-21.3909912Z"/>
  <path class="st6" d="M622.2479458,195.5619999h-37.5079956c-11.8330078,0-21.4249878,9.5780029-21.4249878,21.3910065v1.9519958c0,11.8139954,9.59198,21.3910065,21.4249878,21.3910065h37.5079956c11.8320312,0,21.4240112-9.5770111,21.4240112-21.3910065v-1.9519958c0-11.8130035-9.59198-21.3910065-21.4240112-21.3910065Z"/>
  <path class="st6" d="M610.4669399,240.2960087h-35.8689575c-10.94104,0-19.8099976,8.8559875-19.8099976,19.7799835v1.1650085c0,10.9240112,8.8689575,19.7799988,19.8099976,19.7799988h35.8689575c10.94104,0,19.8099976-8.8559875,19.8099976-19.7799988v-1.1650085c0-10.923996-8.8689575-19.7799835-19.8099976-19.7799835Z"/>
  <path class="st2" d="M376.8869534,223.5560032s24.4680176-6.8639984,32.0240173-19.0460052c7.5569763-12.1829987,7.0589905-17.0549927,7.0589905-17.0549927,0,0,.4330139-30.3249969,2.5580139-37.9490051,2.125-7.6230011,4.7889709-17.7229919,18.9969788-26.5909958s42.4680176-26.2375031,42.4680176-26.2375031c0,0,12.6989746-6.8115005,27.1049805-2.4626007,14.4049988,4.3488998,53.0019836,14.6051025,53.0019836,14.6051025,0,0,5.6550293,1.651001,0,16.0469971-5.6539917,14.3960037-29.2299805,19.6620102-29.2299805,19.6620102-4.7489929.9819946-10.5480042,1.7939911-17.1600037,1.9249878-5.9559937.131012-11.2569885-.3139954-15.7039795-.9689941-7.006012,4.5449982-14.0120239,9.0910034-21.0180054,13.6230011"/>
  <path class="st6" d="M414.1199551,316.8599888l48.7130127-14.2379761s23.7720032,4.4400024,39.5289917,4.4400024c15.756012,0,67.8140259-12.3789978,80.8549805-26.0280151"/>
  <path class="st6" d="M210.5189571,93.4675022l27.1620026-11.6347961c8.4819946-3.6334,18.3090057.2866974,21.947998,8.7557983l.493988,1.1511002c3.6390076,8.4693985-.2869873,18.2803955-8.7689819,21.9133987l-27.1620026,11.6350021c-8.4830017,3.6330032-18.3090057-.2870026-21.947998-8.7560043l-.4940033-1.151001c-3.6390076-8.4689941.2870026-18.2801971,8.7689972-21.9134979Z"/>
  <path class="st6" d="M216.0029659,158.8399998l25.2679901-10.8239899c7.8070068-3.3440094,16.8519897.2639923,20.2019958,8.0599976l.3999939.9319916c3.3500061,7.7949982-.2639771,16.826004-8.071991,20.1699982l-25.2679901,10.8240051c-7.8079987,3.3439941-16.852005-.2639923-20.2020111-8.0599976l-.3999939-.9320068c-3.3500061-7.7949982.2640076-16.8259888,8.0720062-20.1699982Z"/>
  <path class="st6" d="M209.8639584,188.4700047l27.3390045,2.9219971c8.446991.9020081,14.5619965,8.4720001,13.6579895,16.9060059l-.1079865,1.0079956c-.904007,8.4349976-8.4850006,14.5399933-16.9329987,13.6369934l-27.3390045-2.92099c-8.4470062-.9029999-14.5619965-8.4730072-13.6580048-16.9069977l.1080017-1.0080109c.904007-8.4349976,8.4860077-14.5399933,16.9329987-13.6369934Z"/>
  <path class="st6" d="M197.8419552,219.1100041l16.4990082,1.7630005c8.7590027.9360046,15.0999908,8.7850037,14.1620026,17.5310059l-.0910034.844986c-.9369965,8.7450104-8.7980042,15.076004-17.5570068,14.1400146l-16.4989929-1.7630005c-8.7590027-.9370117-15.098999-8.7850037-14.1620026-17.5310059l.0910034-.8450012c.9369965-8.7449951,8.7979889-15.076004,17.5569916-14.1399994Z"/>
  <path class="st6" d="M120.5159588,194.1710087s5.4220047-16.6269989,4.0770035-28.1390076c-2.3889999-20.5780029-15.3380051-36.5480042-15.3380051-36.5480042,0,0,15.6669998-21.4729919,12.1119995-47.6580963-3.5539932-26.1849976-20.4160004-33.1039963-20.4160004-33.1039963,0,0-8.7960968-3.9218025-12.1713943,4.4883995-3.3753052,8.4101982-8.2441025,25.8121986-14.6063995,34.9679985-6.3623047,9.1557999-27.7192039,44.3177032-27.7192039,44.3177032,0,0-9.3640976,18.3269958-3.7486,43.571991,5.6155014,25.2460022.7468033,34.401001.7468033,34.401001,0,0-.3734016,6.3530121-11.0519028,14.4049988-10.6783981,8.052002-30.900259,21.1300049-30.900259,21.1300049"/>
  <path class="st6" d="M209.6919613,93.8301045s-30.9600067,9.707901-52.0480042,21.919899c-16.2339935,9.3949966-31.7669983,24.9920044-38.0690002,31.6730042"/>
  <path class="st6" d="M59.372858,316.566013l46.4181023-26.0810242s19.5049973-7.6489868,36.4850006-7.7839966c16.9810028-.1340027,34.5-11.9140015,34.5-11.9140015l28.7050018-17.9689941"/>
  <path class="st7" d="M208.3819637,132.3139988l106.8229828-45.7573929,10.4450073,24.3103943-106.821991,45.7580032-10.4459991-24.3110046Z"/>
  <path class="st7" d="M168.0229549,178.3790012l50.8079987-21.7559967-10.4389954-24.3209991-50.8090057,21.7559967c-.9409943.4029999-1.4489899,1.4020081-1.2099915,2.401001.7769928,3.1909943,1.8970032,6.8890076,3.6000061,10.8549957,1.7319946,4.0559998,3.6589966,7.4860077,5.4809875,10.2750092.552002.8499908,1.6430054,1.1779938,2.5690002.7899933Z"/>
  <path class="st1" d="M319.9639492,84.5131031l-4.7489929,2.0342026,10.4460144,24.3106995,4.7489929-2.0340042c6.1350098-2.6279984,8.9790039-9.7369003,6.3469849-15.8624954l-.9059753-2.110405c-2.6330261-6.1255951-9.7520142-8.9659958-15.8870239-6.3379974Z"/>
  <g>
    <path class="st6" d="M886.1759853,163.7700077s-2.2200317-6.3390045-1.868042-17.1180115"/>
    <path class="st6" d="M711.6609707,259.178989s37.1259766-14.3069916,54.7550049-27.9279785c17.6289673-13.6210022,26.9699707-37.1260071,26.9699707-37.1260071l23.8400269-50.076004s21.3809814-37.6039963,35.1939697-49.2770996c13.8120117-11.6885986,20.6950073-33.9960976,20.6950073-33.9960976l7.6000366-25.2933998s11.8969727-8.3193989,22.355957-1.0379982c8.0960083,5.6367989,10.0599976,14.3872986,10.5390015,18.0599976"/>
    <path class="st5" d="M994.4599819,103.3300053l10.25-23.2972031c2.8099976-6.3553009-.0800171-13.796402-6.4500122-16.5907974l-34.5740356-15.2336006-1.0219727,2.2994003c-2.8099976,6.3712997-10.2360229,9.2614975-16.6069946,6.4510994l-28.8220215-12.6786003-3.625,8.2234993-34.4429932,78.2281952c-2.5869751,5.9080048-.2879639,12.7420044,5.1409912,15.9199982.4160156.2550049.8470459.4790039,1.3099976.6860046l55.3610229,24.4000092h.0159912"/>
    <path class="st5" d="M951.7889614,12.6787039l23.0579834,10.1556997-12.1829834,27.6567993c-2.8109741,6.3712006-10.2360229,9.2615013-16.6069946,6.4510994l-28.822998-12.6946983,1.0219727-2.2994003c2.8110352-6.3712006,10.2360229-9.2615013,16.6069946-6.4510994,3.1780396,1.405201,6.8980103-.0479012,8.3040161-3.225502l8.6220093-19.5928984Z"/>
    <path class="st5" d="M963.6859341,48.2073017l-28.822998-12.6945992"/>
    <path class="st6" d="M954.2009487,170.3480106h.0159912c5.7800293-12.3120117,12.6940308-25.4850006,20.9660034-39.1860046,5.5250244-9.1500015,6.4990234-10.9380035,12.0239868-18.7470016,1.9000244-2.9220047,11.1430054-14.6903,18.3930054-19.4328003,6.0500488-3.9600983,12.460083-6.5468979,15.9200439-4.5029984l.7399902.4310989c6.9299316,4.0559006,5.5400391,9.2614975,1.4699707,16.207695l-54.8869629,107.0980072"/>
    <path class="st6" d="M789.6479702,328.0000034l59.8009644-37.2369995s19.3370361-8.2399902,40.4630127-8.2399902c21.1260376,0,38.5950317-8.2390137,38.5950317-8.2390137,0,0,36.9499512-21.3339996,17.7719727-66.0599976"/>
    <path class="st6" d="M916.5789394,227.912006l-.6220093,22.7550049"/>
    <path class="st6" d="M901.2979336,195.6420017c-.0639648-.4309998-.1429443-.8779907-.1749878-1.3249969l-.1119995-.9900055c-.8779907-9.3580017,5.9719849-17.6609955,15.3450317-18.5709991l35.3859863-4.3439941c.8300171-.0950012,1.6439819-.1110077,2.4589844-.0480042h.0159912c8.3030396.4000092,15.2969971,6.8509979,16.1110229,15.378006l.0319824.4629974.0480347.5429993c.0639648.6539917.0960083,1.2929993.0639648,1.9319916"/>
    <path class="st6" d="M970.3289394,185.7260014l.6230469,11.0500031c.3189697,5.6519928-.559021,11.2890015-2.6030273,16.5740051-3.2579956,8.4160004-9.0859985,20.7589874-17.2139893,27.5769958"/>
    <path class="st6" d="M916.5789394,227.9129978l-29.2689819-3.9919891c-7.9840088-1.0380096-13.5889893-8.3359985-12.5510254-16.3040009l.1119995-.8460083c1.0380249-7.9519958,8.3510132-13.5569916,16.3190308-12.5029907l43.960022,6.0039978c4.9979858.6549988,9.0699463,3.7679901,11.1459961,7.9519958.0159912.0319977.0319824.0960083.0479736.128006.2390137.4949951.4630127.9899902.6229858,1.5169983.0159912.0319977.0320435.0480042.0320435.0639954"/>
    <path class="st4" d="M964.5629589,99.3867069l-5.3631939-2.3633041-5.69908,12.9505997c-.7177772,1.6439972-1.6274456,2.7140045-2.7930709,3.2249985-1.1496394.5270004-2.4741469.4630051-3.9266634-.1759949-1.4525164-.6380005-1.6284829-.9420013-2.1233123-1.5800018l-.0799903-.0800018c-.5268011-.7029953-.7817206-1.5009995-.8136923-2.3799973,0-.9420013.2069009-1.9000015.6707348-2.9700012l5.7140896-12.9656982-5.3631939-2.363205-5.69908,12.9499054c-.7177772,1.6449966-1.6274456,2.7149963-2.7930709,3.2259979-1.1496394.5270004-2.4741469.4629974-3.9266634-.1760025s-1.6284829-.9420013-2.1233123-1.5810013l-.0799903-.0799942c-.5268011-.7020035-.7817206-1.5009995-.8136923-2.3790054,0-.9419937.2069009-1.8999939.6697586-2.9698944l5.7150658-12.9661026-5.3472081-2.3632965-5.811042,13.1736984c-.8617109,1.9480972-1.1965597,3.8646011-1.0376163,5.7325974.1759054,1.8519974.8467013,3.5449982,1.9473458,5.0620041,1.1016208,1.5169983,2.6501134,2.697998,4.5814733,3.5449982,1.931299.8460007,3.8477103,1.1969986,5.7150658,1.0219955.9417012-.0799942,1.8833414-.3040009,2.7930709-.6869965.3518719.8939972.8147296,1.7409973,1.3415307,2.4749985,1.1006445,1.5169983,2.6491371,2.6989975,4.5804971,3.5449982,1.9323362.8460007,3.8477103,1.1980057,5.7150658,1.0220032,1.8353838-.1600037,3.5118243-.8300018,5.0122983-1.9639969,1.500535-1.1340027,2.6821461-2.715004,3.5598429-4.6790009l5.8100047-13.1734009-.0319717-.0318985Z"/>
  </g>
  <line class="st3" x1="288.3304052" y1="66.0245472" x2="286.7404052" y2="66.0245472"/>
</svg>